<svg width="1611" height="1012" viewBox="0 0 1611 1012" fill="none" xmlns="http://www.w3.org/2000/svg">
<rect width="1611" height="1012" fill="#EFF3FD"/>
<line x1="560.069" y1="384.364" x2="858.659" y2="384.364" stroke="#C6D4F1" stroke-width="4.59283" stroke-dasharray="22.96 22.96"/>
<rect x="782.275" y="155.871" width="686.629" height="699.259" rx="31.5757" fill="white" stroke="#D1DBF2" stroke-width="5.74104"/>
<path d="M862.818 407.48C882.736 406.244 914.226 407.298 935.008 407.281L1004.3 407.216C1017.13 407.207 1045.69 405.359 1056.97 409.121C1061.38 410.591 1064.98 415.203 1066.77 419.332C1069.18 424.909 1069.04 477.321 1066.5 482.68C1063.79 488.402 1059.31 491.147 1053.57 493.288C1042.94 494.15 1027.11 493.768 1016.09 493.763L953.857 493.713C940.583 493.708 868.991 495.33 860.794 492.741C856.048 491.242 852.427 488.442 850.304 483.903C848.87 480.836 848.159 477.54 847.817 474.187C846.893 465.138 846.539 425.235 849.377 418.412C851.795 412.593 857.243 409.624 862.818 407.48Z" fill="#226CF8"/>
<path d="M862.962 538.033C873.444 537.358 888.658 537.78 899.366 537.78H966.388L1020.33 537.745C1030.15 537.731 1039.7 537.668 1049.55 538.096C1059.87 537.963 1068.2 546.463 1068.04 556.896C1067.78 573.636 1069.1 591.571 1067.69 608.226C1067.04 615.924 1060.58 623.546 1052.35 623.911C1045.07 625.479 1018.76 625.542 1010.81 625.528L937.858 624.818C914.418 624.579 892.42 626.161 867.335 624.523C836.248 622.491 851.214 576.638 848.013 555.806C846.829 548.101 855.263 540.529 862.962 538.033Z" fill="#E8EBF4"/>
<path d="M1037.12 669.096C1053.91 668.886 1068.53 670.573 1068.32 691.362C1068.16 707.097 1068.83 724.736 1067.49 740.379C1066.94 746.756 1059.37 754.131 1052.71 754.532C1034.24 755.642 1015.26 755.101 996.648 755.08L879.308 755.15C864.241 755.347 849.344 755.22 847.84 736.118C847.071 726.353 848.116 715.667 847.789 705.782C847.235 689.07 845.673 670.088 867.968 669.455C886.943 668.907 905.736 669.174 924.627 669.195L1037.12 669.096Z" fill="#E8EBF4"/>
<rect x="1147.41" y="539.372" width="256.051" height="213.567" rx="21.2419" stroke="#899FD1" stroke-width="3.44463" stroke-dasharray="22.96 22.96"/>
<rect x="1147.41" y="408.476" width="256.051" height="83.8192" rx="21.2419" stroke="#899FD1" stroke-width="3.44463" stroke-dasharray="22.96 22.96"/>
<mask id="path-8-inside-1_572_1580" fill="white">
<path d="M786.294 187.446C786.294 171.593 799.146 158.741 814.999 158.741H1436.18C1452.03 158.741 1464.89 171.593 1464.89 187.446V320.638H786.294V187.446Z"/>
</mask>
<path d="M786.294 187.446C786.294 171.593 799.146 158.741 814.999 158.741H1436.18C1452.03 158.741 1464.89 171.593 1464.89 187.446V320.638H786.294V187.446Z" fill="#FAFBFE"/>
<path d="M786.294 158.741H1464.89H786.294M1464.89 321.787H786.294V319.49H1464.89V321.787ZM1464.89 319.49M786.294 320.638V158.741V320.638M786.294 320.638M1464.89 158.741V320.638V158.741" fill="#E1E9F8" mask="url(#path-8-inside-1_572_1580)"/>
<path d="M1033.29 225.813C1046.9 224.84 1064.97 225.661 1078.86 225.658L1168.4 225.645H1303.75C1326.72 225.647 1349.68 225.594 1372.66 225.698C1378.14 225.819 1385.48 225.468 1387.41 235.553C1389.29 245.354 1386.16 252.781 1380.12 255.668C1370 256.944 1349.97 256.008 1339.26 256.005L1258.5 255.944L1113.56 255.997C1103.13 255.997 1034.06 257.111 1030.25 254.264C1028.01 252.598 1026.33 249.582 1025.61 245.939C1023.77 236.503 1027.31 228.469 1033.29 225.813Z" fill="#E3EAFA"/>
<path d="M855.565 224.566C864.444 222.643 873.206 228.258 875.169 237.129C877.13 245.999 871.552 254.786 862.69 256.787C853.775 258.798 844.923 253.179 842.948 244.255C840.975 235.331 846.632 226.502 855.565 224.566Z" fill="#1361FD"/>
<path d="M907.922 224.655C916.737 222.647 925.518 228.137 927.573 236.941C929.628 245.745 924.183 254.556 915.39 256.657C906.531 258.774 897.64 253.28 895.571 244.41C893.5 235.54 899.041 226.679 907.922 224.655Z" fill="#588FFD"/>
<path d="M960.553 224.718C966.327 223.346 972.393 225.209 976.403 229.585C980.412 233.962 981.739 240.166 979.87 245.799C978 251.433 973.227 255.613 967.395 256.723C958.656 258.387 950.188 252.766 948.328 244.065C946.468 235.366 951.897 226.773 960.553 224.718Z" fill="#C0CFEF"/>
<rect x="143.871" y="155.871" width="442.06" height="699.259" rx="31.5757" fill="#FBFBFD" stroke="#D1DBF2" stroke-width="5.74104"/>
<path d="M438.877 226.687C449.796 226.67 467.562 226.109 477.721 226.932L477.738 226.934C482.699 227.298 487.496 228.873 491.707 231.522V231.523C498.429 235.79 501.307 244.13 502.348 254.09C503.387 264.042 502.528 274.603 502.515 282.961V282.962L502.431 343.772V343.778L502.512 412.679C502.526 422.885 502.442 433.393 502.484 443.61C502.52 452.395 500.838 459.183 497.174 464.117C493.567 468.973 487.792 472.357 478.917 473.88C430.676 474.946 378.53 474.063 329.832 474.052H329.83L276.479 474.081C269.496 474.081 261.266 474.583 253.091 474.189C244.932 473.796 237.495 472.515 232.353 469.264C225.877 465.171 223.102 458.47 222.009 450.563C220.9 442.549 221.58 433.956 221.585 426.175L221.62 375.466V375.464L221.61 296.489L221.601 291.096C221.562 278.53 221.451 266.08 222.027 253.593C222.398 245.553 224.595 239.58 228.432 235.309C232.254 231.053 237.944 228.221 245.832 226.915C256.366 226.162 273.46 226.614 285.46 226.683L287.796 226.691L366.807 226.781H366.812L438.876 226.687H438.877Z" fill="#ECF1FD" stroke="#D2DCF7" stroke-width="4.59283"/>
<path d="M377.646 293.937C381.476 294.073 387.312 295.923 386.296 301.049C385.014 306.279 382.989 311.538 381.153 316.619C370.441 346.267 360.4 376.183 349.281 405.677C348.456 407.865 347.23 408.902 345.395 410.238C340.479 410.159 337.51 409.625 336.284 404.303C337.712 397.957 341.573 388.022 343.907 381.483L356.952 344.922L367.56 314.755C370.26 306.898 371.267 299.226 377.646 293.937Z" fill="#226CF8"/>
<path d="M409.933 314.312C411.649 314.743 413.119 315.227 414.618 316.187C422.284 321.096 429.156 327.587 436.291 333.233C441.556 337.398 447.545 341.142 452.3 345.871C454.255 347.815 455.845 349.864 455.565 352.754C454.854 360.098 420.84 384.149 413.913 389.488C408.554 390.891 403.001 387.75 404.626 383.669C408.587 373.725 431.584 358.789 439.547 352.717C428.916 343.603 416.941 335.776 406.601 326.348C401.208 321.431 405.366 317.211 409.933 314.312Z" fill="#226CF8"/>
<path d="M311.051 315.065C314.49 314.801 315.765 315.474 318.788 316.9C325.276 325.577 292.239 347.13 285.081 352.736C295.09 361.529 310.914 370.562 318.953 381.228C322.393 385.793 317.45 389.291 313.002 390.669C309.367 388.935 273.051 360.914 270.599 357.839C269.151 356.022 268.498 353.333 268.999 351.034C270.281 345.143 304.008 320.582 311.051 315.065Z" fill="#226CF8"/>
<path d="M235.564 614.526C248.523 614.111 263.639 614.477 276.849 614.491L358.301 614.554L439.108 614.477C454.627 614.456 470.252 614.336 485.763 614.61C488.457 614.737 491.21 614.653 493.658 615.932C501.639 620.101 504.53 629.304 499.1 636.792C496.379 640.546 493.649 641.446 489.318 642.381C463.528 642.95 236.76 643.71 231.994 641.488C228.71 639.955 226.207 637.122 224.877 633.776C223.441 630.162 223.483 626.506 225.204 623.005C227.485 618.365 230.732 616.073 235.564 614.526Z" fill="#E8EBF4"/>
<path d="M240.336 673.062L406.364 672.907L461.678 672.957C470.829 672.971 479.987 672.802 489.141 673.146C495.393 673.076 501.947 679.973 501.952 686.258C501.959 695.707 494.993 700.228 486.652 700.833L322.396 700.882L268.103 700.889C260.213 700.889 235.037 702.204 229.769 698.351C226.473 695.946 224.344 692.27 223.907 688.213C222.803 677.618 231.244 673.484 240.336 673.062Z" fill="#E8EBF4"/>
<path d="M234.899 733.377C245.458 732.772 259.17 733.18 269.996 733.173L335.683 733.18C384.925 733.187 434.171 733.096 483.41 733.229C491.397 733.251 498.069 734.179 501.13 742.84C502.357 746.222 502.155 749.962 500.571 753.196C498.519 757.33 495.521 759.039 491.413 760.55C481.124 761.26 466.651 760.909 456.125 760.923L388.73 760.88L287.452 760.916C279.891 760.909 236.339 761.555 232.084 759.91C228.863 758.652 226.306 756.121 225.024 752.908C223.438 748.971 223.599 744.549 225.469 740.738C227.607 736.407 230.595 734.903 234.899 733.377Z" fill="#E8EBF4"/>
<path d="M235.58 553.417C246.081 552.96 257.136 553.22 267.693 553.234C304.278 553.29 340.881 552.995 377.462 553.431C395.601 553.648 397.415 577.116 380.668 581.082C375.095 581.356 369.247 581.208 363.643 581.194C322.063 581.117 280.711 581.405 239.109 581.166C227.831 581.103 221.38 572.708 225.265 561.516C226.702 557.375 231.612 554.773 235.58 553.417Z" fill="#E8EBF4"/>
</svg>
