<svg width="1611" height="1012" viewBox="0 0 1611 1012" fill="none" xmlns="http://www.w3.org/2000/svg">
<rect width="1611" height="1012" fill="#EFF3FD"/>
<rect x="153.5" y="145.5" width="806" height="485" rx="27.5" fill="white" stroke="#D7DFF2" stroke-width="5"/>
<path d="M156 169C156 157.954 164.954 149 176 149H936C947.046 149 956 157.954 956 169V256H156V169Z" fill="#FAFBFE"/>
<path d="M371.773 190.379C389.874 189.535 413.896 190.248 432.362 190.245L551.408 190.233H731.363C761.905 190.235 792.429 190.189 822.989 190.279C830.275 190.385 840.029 190.08 842.601 198.829C845.099 207.332 840.935 213.775 832.902 216.28C819.45 217.387 792.814 216.574 778.584 216.572L671.211 216.519L478.504 216.565C464.635 216.565 372.803 217.531 367.731 215.061C364.76 213.616 362.525 211 361.561 207.84C359.12 199.653 363.83 192.683 371.773 190.379Z" fill="#E3EAFA"/>
<path d="M452.405 319.414C464.75 318.567 481.133 319.282 493.727 319.28L574.915 319.268H697.644C718.473 319.27 739.29 319.223 760.132 319.314C765.101 319.42 771.754 319.114 773.507 327.897C775.211 336.433 772.372 342.902 766.893 345.416C757.718 346.527 739.553 345.712 729.849 345.709L656.62 345.656L525.195 345.702C515.737 345.702 453.108 346.672 449.648 344.193C447.622 342.742 446.098 340.115 445.44 336.943C443.776 328.725 446.988 321.728 452.405 319.414Z" fill="#EBEEF6"/>
<path d="M454.926 390.414C471.473 389.567 493.434 390.282 510.314 390.28L619.142 390.268H783.651C811.571 390.27 839.474 390.223 867.411 390.314C874.072 390.42 882.989 390.114 885.34 398.897C887.624 407.433 883.817 413.902 876.473 416.416C864.176 417.527 839.827 416.712 826.818 416.709L728.661 416.656L552.495 416.702C539.817 416.702 455.868 417.672 451.231 415.193C448.515 413.742 446.471 411.115 445.59 407.943C443.359 399.725 447.665 392.728 454.926 390.414Z" fill="#EBEEF6"/>
<path d="M455.858 469.413C473.959 468.568 497.981 469.281 516.447 469.279L635.493 469.267H815.448C845.99 469.269 876.514 469.222 907.074 469.313C914.36 469.418 924.114 469.113 926.686 477.863C929.184 486.366 925.02 492.809 916.987 495.313C903.535 496.42 876.899 495.608 862.669 495.605L755.296 495.553L562.589 495.599C548.72 495.599 456.888 496.565 451.816 494.095C448.845 492.65 446.61 490.033 445.646 486.873C443.205 478.687 447.915 471.717 455.858 469.413Z" fill="#EBEEF6"/>
<path d="M213.33 189.329C221.063 187.654 228.694 192.544 230.403 200.269C232.112 207.995 227.254 215.648 219.536 217.39C211.771 219.142 204.061 214.248 202.342 206.476C200.623 198.704 205.55 191.014 213.33 189.329Z" fill="#1361FD"/>
<path d="M258.929 189.406C266.606 187.657 274.254 192.438 276.043 200.106C277.833 207.774 273.091 215.447 265.433 217.277C257.718 219.121 249.974 214.336 248.172 206.611C246.369 198.886 251.194 191.168 258.929 189.406Z" fill="#588FFD"/>
<path d="M304.765 189.461C309.795 188.266 315.077 189.888 318.57 193.7C322.062 197.511 323.217 202.914 321.589 207.821C319.96 212.727 315.803 216.368 310.725 217.334C303.114 218.784 295.739 213.888 294.119 206.311C292.499 198.734 297.227 191.251 304.765 189.461Z" fill="#C0CFEF"/>
<path d="M352.609 321.217C358.661 321.209 365.368 320.805 372.073 321.118C378.736 321.429 384.928 322.447 389.671 325.086V325.087C396.666 329 401.724 335.638 403.642 343.42L403.646 343.436C404.418 346.464 404.717 352.648 404.799 359.304C404.879 365.892 404.749 372.547 404.749 376.531L404.728 429.924V429.926L404.74 473.132C404.744 479.385 404.965 485.354 404.825 491.174C404.686 496.945 404.189 502.305 402.811 507.091C401.44 511.849 399.205 516.01 395.595 519.431C391.995 522.84 386.912 525.622 379.666 527.452C372.797 528.377 360.392 528.032 352.858 528.038H352.859L306.129 527.989H306.123L259.91 528.075H259.907C253.266 528.097 245.81 528.528 238.427 528.172C231.3 527.828 224.656 526.754 219.522 524.042L219.031 523.774C210.562 519.033 206.873 511.83 205.287 503.485C203.672 494.987 204.279 485.63 204.273 476.588L204.281 432.408V432.407L204.261 380.111C204.261 376.825 204.184 373.525 204.114 370.282C204.044 367.03 203.981 363.832 204.005 360.705C204.053 354.439 204.455 348.572 205.811 343.334C207.159 338.122 209.44 333.583 213.223 329.906C216.986 326.249 222.365 323.32 230.13 321.52C238.513 320.826 250.852 321.152 259.615 321.169H259.617L307.419 321.21H307.42L352.606 321.217H352.609Z" fill="#ECF1FD" stroke="#D2DCF7" stroke-width="4"/>
<path d="M295.071 403.518C301.82 403.232 306.934 405.254 312.304 409.171C316.69 412.37 321.771 421.004 317.67 425.972C311.512 428.803 309.769 422.351 306.455 418.768C298.721 410.366 290.72 412.574 283.296 419.977C276.081 427.171 267.755 433.966 261.458 442.01C246.02 461.733 272.64 482.902 289.06 464.498C291.271 462.02 294.773 458.702 297.213 456.198L297.642 455.741C300.372 452.87 307.935 447.142 311.083 451.949C311.901 457.385 307.262 460.706 303.906 464.122C296.869 471.088 290.469 479.34 280.113 481.216C253.416 486.051 236.881 457.483 253.167 436.201C255.536 433.151 258.197 430.159 261.005 427.504C272.287 416.84 278.728 405.883 295.071 403.518Z" fill="#1361FD"/>
<path d="M329.099 367.307C332.918 366.868 336.604 366.947 340.35 367.882C347.508 369.654 353.656 374.221 357.42 380.561C362.321 388.793 362.731 404.064 356.507 411.149C348.043 420.786 335.726 433.969 325.605 441.662C313.521 450.847 285.996 442.842 289.44 425.35C291.086 416.99 300.759 428.059 301.645 431.205C301.825 431.909 305.387 433.706 306.62 434.281C322.496 438.076 328.651 423.792 339.125 415.182C352.971 403.799 357.987 384.38 337.071 377.714C320.356 372.385 310.532 400.204 300.094 397.835C293.583 391.765 304.504 384.042 308.648 379.662C314.869 373.086 320.154 369.275 329.099 367.307Z" fill="#1361FD"/>
<rect x="677.5" y="426.5" width="786" height="445" rx="32.5" fill="white" stroke="#D7DFF2" stroke-width="5"/>
<path d="M1297.81 717.237C1322.78 714.696 1345.08 732.906 1347.58 757.881C1350.09 782.857 1331.85 805.127 1306.87 807.594C1281.94 810.056 1259.73 791.864 1257.23 766.937C1254.73 742.017 1272.89 719.778 1297.81 717.237Z" fill="#EDF0F7"/>
<path d="M1302.88 767.268C1317.45 768.223 1323.78 774.652 1327.46 788.123C1319.07 794.98 1313.07 796.052 1302.62 796.946C1291.35 796.291 1286.15 794.852 1277.1 788.202C1280.77 773.697 1288.46 768.627 1302.88 767.268Z" fill="#B0BEDD"/>
<path d="M1300.28 736.947C1308.06 735.691 1315.39 740.957 1316.69 748.734C1317.98 756.51 1312.74 763.87 1304.97 765.192C1297.15 766.521 1289.74 761.249 1288.45 753.424C1287.15 745.605 1292.45 738.214 1300.28 736.947Z" fill="#B0BEDD"/>
<path d="M1297.81 583.237C1322.78 580.696 1345.08 598.906 1347.58 623.881C1350.09 648.857 1331.85 671.127 1306.87 673.594C1281.94 676.056 1259.73 657.864 1257.23 632.937C1254.73 608.017 1272.89 585.778 1297.81 583.237Z" fill="#EEF0F7"/>
<path d="M1302.88 633.268C1317.45 634.223 1323.78 640.652 1327.46 654.123C1319.07 660.98 1313.07 662.052 1302.62 662.946C1291.35 662.291 1286.15 660.852 1277.1 654.202C1280.77 639.697 1288.46 634.627 1302.88 633.268Z" fill="#AEBDDD"/>
<path d="M1300.28 602.947C1308.06 601.691 1315.39 606.957 1316.69 614.734C1317.98 622.51 1312.74 629.87 1304.97 631.192C1297.15 632.521 1289.74 627.249 1288.45 619.424C1287.15 611.605 1292.45 604.214 1300.28 602.947Z" fill="#AEBDDD"/>
<path d="M727.04 469.648C731.038 468.329 735.438 469.26 738.559 472.086C741.68 474.912 743.043 479.198 742.127 483.308C741.21 487.417 738.157 490.718 734.13 491.95C727.997 493.828 721.496 490.418 719.553 484.306C717.61 478.194 720.949 471.657 727.04 469.648Z" fill="#1361FD"/>
<path d="M809.057 469.052C815.369 468.458 821.003 472.998 821.768 479.292C822.527 485.585 818.143 491.341 811.873 492.271C807.661 492.895 803.448 491.186 800.864 487.807C798.28 484.429 797.731 479.913 799.437 476.015C801.14 472.117 804.826 469.451 809.057 469.052Z" fill="#C0CFEF"/>
<path d="M766.537 469.679C772.66 467.597 779.309 470.891 781.363 477.024C783.417 483.157 780.093 489.791 773.95 491.817C767.848 493.83 761.265 490.532 759.225 484.438C757.184 478.344 760.452 471.747 766.537 469.679Z" fill="#588FFD"/>
<path d="M964.651 680.089C976.511 679.52 989.878 679.808 1001.9 679.826H1058.98L1131 679.801C1145.64 679.795 1165.02 678.846 1179.13 680.922C1186.57 682.018 1190.4 698.483 1177.57 703.736C1168.38 705.377 968.814 704.71 964.547 703.651C961.712 702.947 958.889 701.054 957.419 698.501C955.784 695.672 955.68 692.231 956.556 689.145C957.885 684.467 960.499 682.318 964.651 680.089Z" fill="#ECEFF7"/>
<path d="M964.571 557.61C974.845 556.961 987.385 557.261 997.843 557.273L1051.7 557.328C1068.28 557.334 1173.44 556.122 1178.93 558.32C1181.82 559.471 1184.12 561.731 1185.34 564.59C1188.49 572.158 1184.05 578.642 1176.89 581.373C1164.91 582.194 1146.91 581.618 1134.42 581.661L1041.04 581.563L995.033 581.698C986.852 581.759 972.31 582.671 964.779 581.024C953.072 578.459 953.2 563.218 964.571 557.61Z" fill="#ECEFF7"/>
<path d="M964.516 614.529C975.274 614.015 988.279 614.358 999.24 614.358L1062.38 614.383C1079.41 614.383 1098.95 613.605 1115.59 615.038C1123.64 615.736 1128.97 632.286 1115.15 638.293C1110.57 639.187 1095.15 638.856 1089.89 638.85H1043.22L990.557 638.862C981.703 638.862 962.348 641.446 957.799 632.905C953.562 624.957 957.217 618.669 964.516 614.529Z" fill="#ECEFF7"/>
<path d="M966.341 737.132C973.039 736.679 982.922 736.954 989.872 736.954H1031.56C1057.7 736.954 1083.83 736.832 1109.96 737.107C1126.1 737.273 1128.2 757.056 1112.7 761.299C1088.48 762.291 1060.25 761.116 1035.99 761.508C1026.8 761.654 967.767 762.499 962.618 760.197C959.789 758.905 957.646 756.462 956.74 753.486C954.205 745.343 958.479 739.287 966.341 737.132Z" fill="#ECEFF7"/>
<path d="M739.151 550.268C747.087 549.786 758.383 550.1 766.768 550.106L817.588 550.149H817.593L854.845 550.082C858.416 550.077 862.65 550.184 866.42 550.115L868.004 550.074C875.249 549.826 880.262 550.953 883.761 552.923C887.21 554.865 889.375 557.732 890.748 561.375C892.142 565.074 892.709 569.545 892.906 574.587C893.104 579.65 892.928 585.022 892.931 590.66L892.857 638.517V638.521L892.9 709.308V709.31C892.919 721.937 893.041 734.467 892.687 747.033V747.034C892.525 752.906 890.869 757.192 888.029 760.26C885.187 763.331 880.955 765.399 875.217 766.439C868.33 767.038 858.134 766.738 850.76 766.744L806.574 766.751L761.943 766.757C759.946 766.755 757.829 766.815 755.683 766.875C753.525 766.935 751.329 766.996 749.126 767C744.708 767.009 740.367 766.789 736.464 765.921C732.569 765.055 729.225 763.569 726.688 761.128C724.177 758.711 722.3 755.207 721.586 750.004C720.677 743.381 721.084 735.239 721.132 727.95L721.136 726.505L721.126 679.846L721.161 608.25L721.16 608.249C721.169 595.835 720.98 583.573 721.42 571.255C721.643 565.011 723.126 560.361 725.905 557.012C728.656 553.697 732.889 551.4 739.151 550.268Z" fill="#ECF1FD" stroke="#D2DCF7" stroke-width="4"/>
<path d="M806.174 585.018C815.941 584.712 825.426 588.348 832.485 595.102C845.411 607.685 842.718 622.166 842.95 638.802C855.784 640.627 860.657 645.575 860.725 658.549C860.816 675.816 860.854 693.077 860.799 710.35C861.123 715.745 860.455 723.24 855.894 727.097C847.107 734.506 824.36 731.952 812.904 731.897C798.337 731.946 783.499 732.412 768.994 731.561C761.686 731.132 754.447 723.986 754.405 716.626C754.285 695.073 753.265 672.816 755.01 651.374C755.687 643.046 765.448 639.825 772.396 639.182C772.24 613.465 770.818 593.1 801.833 585.367C803.239 585.22 804.761 585.061 806.174 585.018ZM813.026 664.948C809.905 663.397 804.905 663.397 802.242 664.948C791.255 671.346 792.561 681.143 802.242 688.497C799.688 699.677 794.569 709.535 811.508 707.435C811.508 707.435 815.164 706.039 815.402 704.208C816.021 699.377 813.694 693.371 813.026 688.332C822.905 680.897 822.905 670.397 813.026 664.948ZM825.059 602.86C820.368 598.176 813.326 595.55 806.729 595.837C780.426 598.905 782.872 619.301 783.27 639.225C792.229 639.341 801.189 639.39 810.148 639.372C817.576 639.31 825.003 639.323 832.431 639.403C832.529 627.114 834.451 612.234 825.059 602.86Z" fill="#1361FD"/>
<line x1="150.998" y1="255" x2="957.001" y2="255" stroke="#D7DFF2" stroke-width="2"/>
<g clip-path="url(#clip0_571_1294)">
<path d="M910 191L886 215" stroke="#C0CFEF" stroke-width="4" stroke-linecap="round" stroke-linejoin="round"/>
<path d="M886 191L910 215" stroke="#C0CFEF" stroke-width="4" stroke-linecap="round" stroke-linejoin="round"/>
</g>
<defs>
<clipPath id="clip0_571_1294">
<rect width="48" height="48" fill="white" transform="translate(874 179)"/>
</clipPath>
</defs>
</svg>
