<svg width="1611" height="1012" viewBox="0 0 1611 1012" fill="none" xmlns="http://www.w3.org/2000/svg">
<rect width="1611" height="1012" fill="#EFF3FD"/>
<mask id="path-1-outside-1_571_1271" maskUnits="userSpaceOnUse" x="165" y="152" width="1077" height="762" fill="black">
<rect fill="white" x="165" y="152" width="1077" height="762"/>
<path d="M170 175.732C170 165.387 178.387 157 188.732 157H1218.08C1228.43 157 1236.82 165.387 1236.82 175.732V913.793H170V175.732Z"/>
</mask>
<path d="M170 175.732C170 165.387 178.387 157 188.732 157H1218.08C1228.43 157 1236.82 165.387 1236.82 175.732V913.793H170V175.732Z" fill="#FEFEFE"/>
<path d="M165.317 175.732C165.317 162.8 175.8 152.317 188.732 152.317H1218.08C1231.02 152.317 1241.5 162.8 1241.5 175.732H1232.13C1232.13 167.973 1225.84 161.683 1218.08 161.683H188.732C180.973 161.683 174.683 167.973 174.683 175.732H165.317ZM174.683 175.732M1236.82 913.793H170H1236.82M165.317 913.793V175.732C165.317 162.8 175.8 152.317 188.732 152.317V161.683C180.973 161.683 174.683 167.973 174.683 175.732V913.793H165.317ZM1218.08 152.317C1231.02 152.317 1241.5 162.8 1241.5 175.732V913.793H1232.13V175.732C1232.13 167.973 1225.84 161.683 1218.08 161.683V152.317Z" fill="#D7DFF2" mask="url(#path-1-outside-1_571_1271)"/>
<path d="M1182.96 447.354V473.064C1182.96 477.092 1187.71 479.241 1190.73 476.582L1228 443.836C1228.85 443.085 1229.95 442.671 1231.09 442.671H1317.83C1328.18 442.671 1336.57 434.284 1336.57 423.938V318.1C1336.57 307.754 1328.18 299.367 1317.83 299.367H1155.33C1144.98 299.367 1136.6 307.754 1136.6 318.1V423.938C1136.6 434.284 1144.98 442.671 1155.33 442.671H1178.28C1180.86 442.671 1182.96 444.767 1182.96 447.354Z" fill="#2C6AF5"/>
<rect x="1169.38" y="346.198" width="133.937" height="11.2395" rx="5.61975" fill="#FEFEFE"/>
<rect x="1169.38" y="386.473" width="133.937" height="11.2395" rx="5.61975" fill="#FEFEFE"/>
<rect x="299.254" y="274.078" width="495.475" height="32.7819" rx="9.36625" fill="#E8EBF4"/>
<rect x="299.254" y="361.184" width="404.622" height="32.7819" rx="9.36625" fill="#E8EBF4"/>
<rect x="299.254" y="448.29" width="678.116" height="32.7819" rx="9.36625" fill="#E8EBF4"/>
<rect x="299.254" y="622.503" width="580.707" height="32.7819" rx="9.36625" fill="#E8EBF4"/>
<rect x="299.254" y="709.609" width="252.889" height="32.7819" rx="9.36625" fill="#E8EBF4"/>
<rect x="627.073" y="709.609" width="252.889" height="32.7819" rx="9.36625" fill="#E8EBF4"/>
<rect x="299.254" y="796.715" width="580.707" height="32.7819" rx="9.36625" fill="#E8EBF4"/>
<rect x="299.254" y="535.396" width="314.706" height="32.7819" rx="9.36625" fill="#F8D967"/>
<rect x="1034.04" y="562.09" width="404.622" height="192.008" rx="25.7572" fill="white" stroke="#D7DFF2" stroke-width="4.68312"/>
<path d="M1115.91 683.222C1102.37 667.044 1103.79 643.123 1119.15 628.659C1134.5 614.196 1158.47 614.207 1173.8 628.688C1189.14 643.169 1190.54 667.095 1176.98 683.257C1169.41 692.283 1158.23 697.497 1146.44 697.491C1134.65 697.485 1123.48 692.26 1115.91 683.222Z" fill="#EDF0F7"/>
<path d="M1125.08 670.926C1137.71 664.073 1155.11 662.364 1167.46 670.783C1173.42 674.419 1174.46 677.017 1176.98 683.257C1169.41 692.284 1158.23 697.497 1146.44 697.491C1134.66 697.485 1123.48 692.261 1115.91 683.222C1117.85 676.725 1119.32 674.373 1125.08 670.926Z" fill="#689FFE"/>
<path d="M1142.44 631.51C1147.52 630.082 1152.99 631.504 1156.74 635.226C1160.49 638.948 1161.95 644.396 1160.56 649.5C1159.18 654.599 1155.16 658.562 1150.04 659.869C1142.25 661.865 1134.3 657.22 1132.22 649.449C1130.13 641.678 1134.69 633.683 1142.44 631.51Z" fill="#689FFE"/>
<path d="M1213.93 633.322C1238.54 632.221 1268.45 633.236 1293.34 633.138C1313.32 633.052 1340.79 632.29 1360.25 633.379C1369.23 638.317 1370.27 649.489 1360.37 653.36C1355.42 654.226 1342.26 653.911 1336.5 653.905L1292.14 653.87L1241.03 653.882C1233.5 653.882 1221.79 654.564 1214.71 653.389C1204.09 651.622 1204.55 638.627 1213.93 633.322Z" fill="#E8EBF4"/>
<path d="M1213.91 671.213C1233.67 670.29 1256.04 671.402 1276.09 670.961C1282.32 670.823 1307.96 670.691 1312.21 671.569C1314.58 672.079 1316.61 673.582 1317.8 675.698C1321.57 682.299 1318.48 688.235 1312.12 691.4C1305.72 692.014 1296.95 691.756 1290.28 691.756L1254.51 691.785C1244.39 691.785 1234.26 691.819 1224.15 691.796C1219.09 691.624 1211.16 692.668 1208.42 687.024C1204.95 679.844 1207.33 674.597 1213.91 671.213Z" fill="#E8EBF4"/>
</svg>
