<svg width="215" height="161" viewBox="0 0 215 161" fill="none" xmlns="http://www.w3.org/2000/svg">
<path d="M107.5 1.00352e-05C136.759 1.00352e-05 160.478 23.6448 160.478 52.8121C160.478 53.6798 160.456 54.5424 160.414 55.3998C160.948 55.384 161.484 55.3758 162.022 55.3758C191.281 55.3758 215 79.0206 215 108.188C215 135.45 194.278 157.885 167.679 160.701V161H45.2632V160.442C19.6609 156.718 7.5408e-06 134.743 7.5408e-06 108.188C7.5408e-06 79.0206 23.7193 55.3758 52.9785 55.3758C53.5158 55.3758 54.0513 55.384 54.5848 55.3998C54.5433 54.5425 54.5215 53.6797 54.5215 52.8121C54.5215 23.6448 78.2408 1.00352e-05 107.5 1.00352e-05Z" fill="#F3F7FE"></path>
</svg>