<svg width="1301" height="977" viewBox="0 0 1301 977" fill="none" xmlns="http://www.w3.org/2000/svg">
<path d="M650.5 0C827.552 0 971.081 143.484 971.081 320.481C971.081 325.746 970.943 330.981 970.692 336.184C973.923 336.088 977.165 336.038 980.419 336.038C1157.47 336.038 1301 479.522 1301 656.519C1301 821.953 1175.61 958.1 1014.66 975.183V977H273.895V973.615C118.971 951.018 0 817.663 0 656.519C0 479.522 143.529 336.038 320.581 336.038C323.833 336.038 327.073 336.088 330.302 336.184C330.05 330.981 329.919 325.746 329.919 320.481C329.919 143.484 473.448 0 650.5 0Z" fill="#F7F9FE"></path>
</svg>