<svg width="697" height="107" viewBox="0 0 697 107" fill="none" xmlns="http://www.w3.org/2000/svg">
<path d="M71.1094 71.1094H142.224C142.224 51.474 126.302 35.5573 106.667 35.5573C106.667 15.9167 90.75 0 71.1094 0C51.474 0 35.5573 15.9167 35.5573 35.5573C15.9167 35.5573 0 51.474 0 71.1094C0 90.75 15.9167 106.667 35.5573 106.667C55.1927 106.667 71.1094 90.75 71.1094 71.1094Z" fill="#23278A"></path>
<path d="M142.225 71.1094C142.225 90.75 126.303 106.667 106.668 106.667H124.444C144.085 106.667 160.001 90.75 160.001 71.1094H142.225Z" fill="#2CADF4"></path>
<path d="M142.225 71.1094H71.1107C71.1107 90.75 55.194 106.667 35.5586 106.667H106.668C126.303 106.667 142.225 90.75 142.225 71.1094Z" fill="#1189FA"></path>
<path d="M691.057 60.505H661.409V93.096H647.457V13.417H696.725V26.279H661.409V47.97H691.057V60.505Z" fill="#1189FA"></path>
<path d="M596.091 93.096H567.424V13.417H595.328C618.872 13.417 635.113 29.658 635.113 53.42C635.113 76.855 619.199 93.096 596.091 93.096ZM594.02 26.279H581.376V80.234H594.783C610.697 80.234 620.398 69.988 620.398 53.42C620.398 36.525 610.479 26.279 594.02 26.279Z" fill="#1189FA"></path>
<path d="M529.964 65.628H512.415V93.096H498.463V13.417H529.964C545.987 13.417 556.342 23.881 556.342 39.468C556.342 54.837 545.878 65.628 529.964 65.628ZM527.239 25.843H512.415V53.202H527.021C536.613 53.202 541.736 48.079 541.736 39.359C541.736 30.639 536.504 25.843 527.239 25.843Z" fill="#1189FA"></path>
<path d="M451.796 94.513C436.209 94.513 426.508 83.068 426.508 66.391C426.508 49.605 436.318 37.615 452.559 37.615C460.08 37.615 466.729 40.776 470.108 46.117V12H483.297V93.096H471.089L470.217 84.703C466.947 90.916 459.971 94.513 451.796 94.513ZM454.739 82.305C464.004 82.305 469.999 75.656 469.999 65.955C469.999 56.254 464.004 49.496 454.739 49.496C445.474 49.496 439.806 56.363 439.806 65.955C439.806 75.547 445.474 82.305 454.739 82.305Z" fill="#23278A"></path>
<path d="M404.355 39.25H417.653V93.096H405.336L404.355 85.902C401.085 91.025 394.109 94.513 386.915 94.513C374.489 94.513 367.186 86.12 367.186 72.931V39.25H380.484V68.244C380.484 78.49 384.517 82.632 391.929 82.632C400.322 82.632 404.355 77.727 404.355 67.481V39.25Z" fill="#23278A"></path>
<path d="M301.678 66.064C301.678 49.278 313.777 37.724 330.454 37.724C347.131 37.724 359.23 49.278 359.23 66.064C359.23 82.85 347.131 94.404 330.454 94.404C313.777 94.404 301.678 82.85 301.678 66.064ZM314.976 66.064C314.976 75.874 321.298 82.523 330.454 82.523C339.61 82.523 345.932 75.874 345.932 66.064C345.932 56.254 339.61 49.605 330.454 49.605C321.298 49.605 314.976 56.254 314.976 66.064Z" fill="#23278A"></path>
<path d="M291.544 93.096H278.355V12H291.544V93.096Z" fill="#23278A"></path>
<path d="M232.259 94.404C209.042 94.404 194 78.272 194 53.311C194 28.568 209.587 12.109 232.913 12.109C251.77 12.109 265.831 23.118 268.556 40.231H253.841C251.116 30.966 243.159 25.516 232.586 25.516C217.871 25.516 208.606 36.198 208.606 53.202C208.606 70.097 217.98 80.997 232.586 80.997C243.377 80.997 251.661 75.329 254.277 66.5H268.774C265.722 83.286 251.116 94.404 232.259 94.404Z" fill="#23278A"></path>
</svg>