<svg xmlns="http://www.w3.org/2000/svg" version="1.1" xmlns:xlink="http://www.w3.org/1999/xlink" width="1000" height="1000"><metadata><rdf:RDF xmlns:rdf="http://www.w3.org/1999/02/22-rdf-syntax-ns#" xmlns:dc="http://purl.org/dc/elements/1.1/"><rdf:Description><dc:creator>RealFaviconGenerator</dc:creator><dc:source>https://realfavicongenerator.net</dc:source></rdf:Description></rdf:RDF></metadata><style>
    #light-icon {
      display: inline;
    }
    #dark-icon {
      display: none;
    }

    @media (prefers-color-scheme: dark) {
      #light-icon {
        display: none;
      }
      #dark-icon {
        display: inline;
      }
    }
  </style><g id="light-icon"><svg xmlns="http://www.w3.org/2000/svg" version="1.1" xmlns:xlink="http://www.w3.org/1999/xlink" width="1000" height="1000"><g><g transform="matrix(6.25,0,0,6.25,0,165.625)"><svg xmlns="http://www.w3.org/2000/svg" width="160" height="107" viewBox="0 0 160 107" fill="none"><path d="M71.1094 71.1094H142.224C142.224 51.474 126.302 35.5573 106.667 35.5573C106.667 15.9167 90.75 0 71.1094 0C51.474 0 35.5573 15.9167 35.5573 35.5573C15.9167 35.5573 0 51.474 0 71.1094C0 90.75 15.9167 106.667 35.5573 106.667C55.1927 106.667 71.1094 90.75 71.1094 71.1094Z" fill="#23278A"></path><path d="M142.225 71.1094C142.225 90.75 126.303 106.667 106.668 106.667H124.444C144.085 106.667 160.001 90.75 160.001 71.1094H142.225Z" fill="#2CADF4"></path><path d="M142.225 71.1094H71.1107C71.1107 90.75 55.194 106.667 35.5586 106.667H106.668C126.303 106.667 142.225 90.75 142.225 71.1094Z" fill="#1189FA"></path></svg></g></g></svg></g><g id="dark-icon"><svg xmlns="http://www.w3.org/2000/svg" version="1.1" xmlns:xlink="http://www.w3.org/1999/xlink" width="1000" height="1000"><g><g transform="matrix(6.25,0,0,6.25,0,165.625)"><svg xmlns="http://www.w3.org/2000/svg" width="160" height="107" viewBox="0 0 160 107" fill="none"><path d="M71.1094 71.1094H142.224C142.224 51.474 126.302 35.5573 106.667 35.5573C106.667 15.9167 90.75 0 71.1094 0C51.474 0 35.5573 15.9167 35.5573 35.5573C15.9167 35.5573 0 51.474 0 71.1094C0 90.75 15.9167 106.667 35.5573 106.667C55.1927 106.667 71.1094 90.75 71.1094 71.1094Z" fill="#A2D4F4"></path><path d="M142.225 71.1094C142.225 90.75 126.303 106.667 106.668 106.667H124.444C144.085 106.667 160.001 90.75 160.001 71.1094H142.225Z" fill="#1189FA"></path><path d="M142.225 71.1094H71.1107C71.1107 90.75 55.194 106.667 35.5586 106.667H106.668C126.303 106.667 142.225 90.75 142.225 71.1094Z" fill="#2CADF4"></path></svg></g></g></svg></g></svg>