<svg width="1611" height="1012" viewBox="0 0 1611 1012" fill="none" xmlns="http://www.w3.org/2000/svg">
<rect width="1611" height="1012" fill="#EFF3FD"/>
<path d="M307 850V718.5C307 707.454 315.954 698.5 327 698.5H1246C1257.05 698.5 1266 689.546 1266 678.5V460" stroke="#95B0F4" stroke-width="6" stroke-dasharray="20 20"/>
<path d="M585.5 157.5C668.605 157.5 739.035 211.71 763.386 286.688C765.741 286.565 768.113 286.5 770.5 286.5C828.492 286.5 877.868 323.337 896.529 374.878C958.073 379.735 1006.5 431.209 1006.5 494C1006.5 557.479 957.005 609.392 894.5 613.264V613.5H386.5V612.411C308.785 603.257 248.5 537.174 248.5 457C248.5 370.998 317.871 301.201 403.71 300.508C423.496 218.46 497.372 157.5 585.5 157.5Z" stroke="url(#paint0_linear_572_1738)" stroke-width="7"/>
<path d="M585.5 157.5C668.605 157.5 739.035 211.71 763.386 286.688C765.741 286.565 768.113 286.5 770.5 286.5C828.492 286.5 877.868 323.337 896.529 374.878C958.073 379.735 1006.5 431.209 1006.5 494C1006.5 557.479 957.005 609.392 894.5 613.264V613.5H386.5V612.411C308.785 603.257 248.5 537.174 248.5 457C248.5 370.998 317.871 301.201 403.71 300.508C423.496 218.46 497.372 157.5 585.5 157.5Z" stroke="url(#paint1_linear_572_1738)" stroke-width="7"/>
<mask id="path-3-outside-1_572_1738" maskUnits="userSpaceOnUse" x="903" y="490" width="243" height="283" fill="black">
<rect fill="white" x="903" y="490" width="243" height="283"/>
<path d="M1020.84 510.09C1029.22 509.398 1032.97 512.797 1040.09 516.642C1044.66 519.109 1049.23 521.492 1053.82 523.916C1074.74 534.974 1097.44 540.368 1120.01 546.742C1122 547.3 1124.29 550.888 1125.35 552.474C1126.22 563.391 1125.63 581.136 1125.66 592.537C1125.44 609.969 1126.4 627.487 1124.2 644.803C1117.92 694.094 1073.24 736.435 1027.77 752.055C1023.74 752.171 1020.94 752.079 1017.06 750.554C979.084 735.644 946.013 706.548 930.497 668.31C928.177 662.603 925.844 650.81 924.889 644.595C924.105 639.446 923.615 634.247 923.419 629.036C923.04 618.866 922.36 558.045 924.412 552.351C925.863 548.328 929.261 546.865 933.136 545.615C948.995 540.491 964.884 537.111 980.351 530.572C994.422 524.62 1007.08 516.427 1020.84 510.09ZM1075.56 590.969C1071.66 587.816 1069.37 587.46 1064.62 587.865C1057.43 591.637 1023.3 636.25 1015.19 645.746C1007.34 638.319 985.323 605.726 978.838 633.654C977.921 637.628 989.113 647.822 991.869 650.669C997.269 656.713 1005.59 667.746 1013.27 670.783C1016.63 672.112 1021.77 669.271 1023.69 666.699C1034.11 654.766 1044.03 642.299 1054.32 630.242C1061.99 621.113 1070.05 611.929 1077.27 602.45C1079.52 599.493 1078.59 593.216 1075.56 590.969Z"/>
</mask>
<path d="M1020.84 510.09C1029.22 509.398 1032.97 512.797 1040.09 516.642C1044.66 519.109 1049.23 521.492 1053.82 523.916C1074.74 534.974 1097.44 540.368 1120.01 546.742C1122 547.3 1124.29 550.888 1125.35 552.474C1126.22 563.391 1125.63 581.136 1125.66 592.537C1125.44 609.969 1126.4 627.487 1124.2 644.803C1117.92 694.094 1073.24 736.435 1027.77 752.055C1023.74 752.171 1020.94 752.079 1017.06 750.554C979.084 735.644 946.013 706.548 930.497 668.31C928.177 662.603 925.844 650.81 924.889 644.595C924.105 639.446 923.615 634.247 923.419 629.036C923.04 618.866 922.36 558.045 924.412 552.351C925.863 548.328 929.261 546.865 933.136 545.615C948.995 540.491 964.884 537.111 980.351 530.572C994.422 524.62 1007.08 516.427 1020.84 510.09ZM1075.56 590.969C1071.66 587.816 1069.37 587.46 1064.62 587.865C1057.43 591.637 1023.3 636.25 1015.19 645.746C1007.34 638.319 985.323 605.726 978.838 633.654C977.921 637.628 989.113 647.822 991.869 650.669C997.269 656.713 1005.59 667.746 1013.27 670.783C1016.63 672.112 1021.77 669.271 1023.69 666.699C1034.11 654.766 1044.03 642.299 1054.32 630.242C1061.99 621.113 1070.05 611.929 1077.27 602.45C1079.52 599.493 1078.59 593.216 1075.56 590.969Z" fill="#3B87FE"/>
<path d="M1020.84 510.09L1019.2 490.158L1015.68 490.448L1012.48 491.923L1020.84 510.09ZM1040.09 516.642L1030.58 534.24L1030.59 534.244L1040.09 516.642ZM1053.82 523.916L1044.47 541.597L1044.47 541.598L1053.82 523.916ZM1120.01 546.742L1114.58 565.99L1114.59 565.993L1114.6 565.997L1120.01 546.742ZM1125.35 552.474L1145.28 550.875L1144.87 545.719L1142.01 541.41L1125.35 552.474ZM1125.66 592.537L1145.66 592.79L1145.66 592.642L1145.66 592.494L1125.66 592.537ZM1124.2 644.803L1144.04 647.332L1144.04 647.329L1124.2 644.803ZM1027.77 752.055L1028.35 772.047L1031.39 771.959L1034.27 770.97L1027.77 752.055ZM1017.06 750.554L1024.39 731.942L1024.37 731.937L1017.06 750.554ZM930.497 668.31L949.03 660.79L949.027 660.783L949.024 660.776L930.497 668.31ZM924.889 644.595L905.117 647.604L905.119 647.619L905.121 647.633L924.889 644.595ZM923.419 629.036L903.433 629.782L903.433 629.788L923.419 629.036ZM924.412 552.351L905.599 545.563L905.595 545.573L924.412 552.351ZM933.136 545.615L939.271 564.651L939.279 564.649L939.286 564.646L933.136 545.615ZM980.351 530.572L988.139 548.993L988.142 548.992L980.351 530.572ZM1075.56 590.969L1062.99 606.522L1063.31 606.779L1063.64 607.023L1075.56 590.969ZM1064.62 587.865L1062.92 567.936L1058.89 568.278L1055.32 570.158L1064.62 587.865ZM1015.19 645.746L1001.45 660.274L1016.73 674.736L1030.4 658.737L1015.19 645.746ZM978.838 633.654L959.357 629.13L959.354 629.142L959.351 629.154L978.838 633.654ZM991.869 650.669L1006.78 637.343L1006.52 637.046L1006.24 636.761L991.869 650.669ZM1013.27 670.783L1005.91 689.381L1005.92 689.383L1013.27 670.783ZM1023.69 666.699L1008.62 653.549L1008.11 654.13L1007.65 654.748L1023.69 666.699ZM1054.32 630.242L1069.53 643.224L1069.58 643.167L1069.63 643.11L1054.32 630.242ZM1077.27 602.45L1093.18 614.575L1093.19 614.563L1093.2 614.55L1077.27 602.45ZM1020.84 510.09L1022.49 530.022C1023.08 529.973 1023.19 530.025 1023 529.993C1022.8 529.96 1022.74 529.912 1022.99 530.019C1023.36 530.18 1023.97 530.484 1025.32 531.26C1026.44 531.899 1028.52 533.126 1030.58 534.24L1040.09 516.642L1049.59 499.044C1045.65 496.915 1035.1 488.844 1019.2 490.158L1020.84 510.09ZM1040.09 516.642L1030.59 534.244C1035.26 536.764 1040.02 539.244 1044.47 541.597L1053.82 523.916L1063.16 506.235C1058.44 503.739 1054.06 501.455 1049.58 499.04L1040.09 516.642ZM1053.82 523.916L1044.47 541.598C1067.77 553.915 1093.19 559.952 1114.58 565.99L1120.01 546.742L1125.45 527.495C1101.68 520.785 1081.7 516.034 1063.16 506.234L1053.82 523.916ZM1120.01 546.742L1114.6 565.997C1112.69 565.461 1111.27 564.717 1110.39 564.182C1109.49 563.635 1108.85 563.125 1108.49 562.808C1108.11 562.481 1107.86 562.223 1107.73 562.095C1107.67 562.025 1107.62 561.972 1107.59 561.941C1107.57 561.909 1107.55 561.892 1107.55 561.891C1107.55 561.891 1107.56 561.902 1107.58 561.927C1107.6 561.952 1107.63 561.986 1107.66 562.032C1107.73 562.124 1107.81 562.243 1107.92 562.392C1108.16 562.74 1108.33 563.004 1108.68 563.538L1125.35 552.474L1142.01 541.41C1141.67 540.906 1140.23 538.661 1138.5 536.554C1137.62 535.473 1136.29 533.965 1134.58 532.492C1133.09 531.205 1129.96 528.764 1125.42 527.488L1120.01 546.742ZM1125.35 552.474L1105.41 554.073C1106.2 563.971 1105.63 579.756 1105.66 592.58L1125.66 592.537L1145.66 592.494C1145.64 582.517 1146.24 562.812 1145.28 550.875L1125.35 552.474ZM1125.66 592.537L1105.66 592.285C1105.42 611.544 1106.37 626.463 1104.36 642.277L1124.2 644.803L1144.04 647.329C1146.43 628.511 1145.46 608.395 1145.66 592.79L1125.66 592.537ZM1124.2 644.803L1104.36 642.274C1099.31 681.873 1061.83 719.209 1021.28 733.14L1027.77 752.055L1034.27 770.97C1084.66 753.661 1136.52 706.314 1144.04 647.332L1124.2 644.803ZM1027.77 752.055L1027.2 732.063C1025.33 732.117 1024.85 732.075 1024.7 732.058C1024.68 732.055 1024.71 732.059 1024.73 732.065C1024.75 732.068 1024.65 732.045 1024.39 731.942L1017.06 750.554L1009.74 769.166C1017.35 772.157 1023.33 772.191 1028.35 772.047L1027.77 752.055ZM1017.06 750.554L1024.37 731.937C990.652 718.7 962.166 693.163 949.03 660.79L930.497 668.31L911.965 675.83C929.861 719.933 967.516 752.589 1009.76 769.171L1017.06 750.554ZM930.497 668.31L949.024 660.776C947.685 657.483 945.619 647.814 944.657 641.557L924.889 644.595L905.121 647.633C906.07 653.806 908.668 667.723 911.971 675.844L930.497 668.31ZM924.889 644.595L944.661 641.586C943.992 637.189 943.573 632.744 943.405 628.285L923.419 629.036L903.433 629.788C903.658 635.75 904.218 641.702 905.117 647.604L924.889 644.595ZM923.419 629.036L943.405 628.29C943.23 623.6 942.965 606.16 943.004 589.061C943.023 580.543 943.118 572.323 943.327 565.962C943.432 562.758 943.56 560.227 943.702 558.448C943.773 557.547 943.833 557.041 943.861 556.84C943.944 556.254 943.843 557.421 943.228 559.129L924.412 552.351L905.595 545.573C904.723 547.993 904.388 550.302 904.255 551.238C904.069 552.558 903.933 553.952 903.827 555.28C903.615 557.956 903.462 561.19 903.349 564.648C903.12 571.61 903.024 580.299 903.004 588.97C902.965 606.246 903.229 624.303 903.433 629.782L923.419 629.036ZM924.412 552.351L943.225 559.139C942.853 560.169 942.255 561.285 941.404 562.34C940.569 563.374 939.711 564.076 939.07 564.51C938.469 564.916 938.082 565.071 938.149 565.043C938.233 565.007 938.525 564.892 939.271 564.651L933.136 545.615L927.001 526.58C922.975 527.877 910.584 531.747 905.599 545.563L924.412 552.351ZM933.136 545.615L939.286 564.646C952.353 560.424 971.827 555.89 988.139 548.993L980.351 530.572L972.563 512.15C957.942 518.332 945.637 520.557 926.986 526.585L933.136 545.615ZM980.351 530.572L988.142 548.992C996.139 545.609 1003.56 541.664 1010.21 538.077C1017.09 534.364 1023.04 531.098 1029.21 528.257L1020.84 510.09L1012.48 491.923C1004.88 495.42 997.621 499.418 991.216 502.874C984.576 506.456 978.634 509.582 972.56 512.152L980.351 530.572ZM1075.56 590.969L1088.14 575.416C1085.01 572.886 1080.91 570.155 1075.47 568.733C1070.35 567.395 1065.74 567.697 1062.92 567.936L1064.62 587.865L1066.31 607.793C1067.19 607.718 1067.38 607.732 1067.24 607.728C1067.01 607.722 1066.3 607.681 1065.35 607.433C1064.37 607.177 1063.59 606.82 1063.08 606.535C1062.65 606.293 1062.58 606.194 1062.99 606.522L1075.56 590.969ZM1064.62 587.865L1055.32 570.158C1051.51 572.155 1048.31 575.248 1046.78 576.742C1044.68 578.797 1042.38 581.266 1040.08 583.851C1035.44 589.052 1030.02 595.555 1024.75 602.022C1013.69 615.584 1003.92 628.15 999.984 632.756L1015.19 645.746L1030.4 658.737C1034.58 653.846 1045.92 639.357 1055.75 627.296C1060.93 620.951 1065.89 615 1069.93 610.478C1071.96 608.201 1073.57 606.492 1074.74 605.348C1076.49 603.644 1075.92 604.517 1073.92 605.571L1064.62 587.865ZM1015.19 645.746L1028.94 631.219C1027.79 630.13 1026.25 628.206 1022.03 623.48C1018.69 619.731 1013.93 614.594 1008.66 610.561C1004.66 607.501 994.252 600.155 981.412 603.286C966.572 606.905 961.332 620.622 959.357 629.13L978.838 633.654L998.32 638.177C998.806 636.082 999.084 636.236 998.32 637.326C997.324 638.749 994.914 641.166 990.888 642.147C987.23 643.04 984.577 642.163 983.889 641.896C983.228 641.639 983.357 641.567 984.345 642.323C986.374 643.876 988.996 646.534 992.189 650.113C993.84 651.962 995.014 653.334 996.647 655.184C997.982 656.696 999.729 658.65 1001.45 660.274L1015.19 645.746ZM978.838 633.654L959.351 629.154C958.067 634.715 959.254 639.375 960.066 641.786C960.952 644.421 962.154 646.594 963.086 648.101C964.953 651.124 967.245 653.869 969.038 655.882C972.298 659.545 977.311 664.385 977.497 664.578L991.869 650.669L1006.24 636.761C1005.69 636.197 1005.04 635.548 1004.51 635.03C1003.92 634.445 1003.32 633.856 1002.66 633.205C1001.35 631.895 1000.04 630.552 998.914 629.286C998.358 628.661 997.912 628.129 997.573 627.696C997.217 627.242 997.093 627.043 997.114 627.076C997.131 627.104 997.229 627.264 997.369 627.545C997.504 627.815 997.739 628.321 997.978 629.032C998.211 629.726 998.525 630.839 998.684 632.285C998.843 633.739 998.873 635.781 998.326 638.153L978.838 633.654ZM991.869 650.669L976.955 663.996C978.464 665.684 983.444 671.677 987.244 675.66C991.12 679.722 997.689 686.129 1005.91 689.381L1013.27 670.783L1020.62 652.186C1021.23 652.426 1021.02 652.46 1019.94 651.594C1018.94 650.795 1017.69 649.628 1016.18 648.047C1014.69 646.486 1013.18 644.762 1011.58 642.902C1010.13 641.216 1008.3 639.046 1006.78 637.343L991.869 650.669ZM1013.27 670.783L1005.92 689.383C1014.95 692.955 1023.24 690.215 1027.15 688.477C1031.49 686.545 1036.29 683.268 1039.73 678.651L1023.69 666.699L1007.65 654.748C1008.57 653.516 1009.37 652.879 1009.67 652.648C1010.05 652.365 1010.43 652.135 1010.89 651.931C1011.31 651.743 1012.23 651.384 1013.63 651.214C1015.01 651.047 1017.58 650.982 1020.62 652.184L1013.27 670.783ZM1023.69 666.699L1038.76 679.85C1048.95 668.169 1060.15 654.219 1069.53 643.224L1054.32 630.242L1039.1 617.261C1027.91 630.378 1019.26 641.362 1008.62 653.549L1023.69 666.699ZM1054.32 630.242L1069.63 643.11C1076.92 634.428 1085.57 624.558 1093.18 614.575L1077.27 602.45L1061.37 590.326C1054.53 599.3 1047.05 607.798 1039.01 617.375L1054.32 630.242ZM1077.27 602.45L1093.2 614.55C1098.82 607.148 1098.94 598.604 1098.18 593.502C1097.41 588.35 1094.82 580.358 1087.49 574.915L1075.56 590.969L1063.64 607.023C1061.28 605.274 1060.09 603.352 1059.55 602.273C1058.98 601.13 1058.73 600.147 1058.61 599.385C1058.5 598.625 1058.45 597.588 1058.68 596.286C1058.89 595.059 1059.5 592.783 1061.35 590.351L1077.27 602.45Z" fill="#EFF3FD" mask="url(#path-3-outside-1_572_1738)"/>
<path d="M481.166 654.361C492.595 653.711 509.483 654.127 521.848 654.182L524.258 654.188L605.546 654.212L712.221 654.2L726.91 654.181C741.604 654.158 756.306 654.142 770.998 654.298C777.242 654.366 783.61 657.393 786.15 663.533L786.385 664.137L786.388 664.146C787.298 666.739 787.861 669.44 788.058 672.181C788.441 677.512 788.387 683.759 788.277 690.011C788.168 696.282 788.003 702.557 788.158 708.014V708.058C787.994 718.874 788.342 729.979 787.975 740.858C787.696 749.075 781.058 753.874 774.431 756.019L774.309 756.058L774.181 756.065C765.575 756.57 753.768 756.232 744.978 756.22V756.219L693.678 756.184L554.364 756.188C551.746 756.192 546.115 756.285 539.016 756.385C531.923 756.484 523.379 756.589 514.953 756.617C506.529 756.645 498.215 756.596 491.585 756.385C488.271 756.279 485.366 756.132 483.074 755.934C480.828 755.739 479.046 755.486 478.065 755.123V755.122C474.093 753.656 471.249 750.965 469.56 747.124V747.123C468.316 744.291 467.623 741.159 467.399 738.112V738.111C466.538 726.343 467.332 713.891 467.377 702.209C467.418 691.683 466.71 680.374 467.622 669.773V669.772C467.798 667.723 468.183 665.774 469.059 663.822L469.289 663.333C471.732 658.37 476.244 656.202 480.864 654.426L481.01 654.37L481.166 654.361Z" fill="white" stroke="#97B3F8" stroke-width="2"/>
<path d="M702.869 695.636C708.267 693.739 714.188 696.543 716.137 701.92V701.921C718.085 707.303 715.334 713.251 709.971 715.245L709.972 715.246C704.539 717.272 698.5 714.474 696.526 709.027C694.553 703.574 697.402 697.559 702.869 695.636Z" fill="#97B3F8" stroke="#97B3F8"/>
<path d="M740.648 695.563C746.158 693.839 752.007 696.948 753.68 702.472H753.681C755.347 707.998 752.182 713.821 746.645 715.435C741.177 717.031 735.447 713.917 733.802 708.468C732.158 703.02 735.213 697.256 740.648 695.564V695.563Z" fill="#97B3F8" stroke="#97B3F8"/>
<path d="M481.166 529.361C492.595 528.711 509.483 529.127 521.848 529.182L524.258 529.188L605.546 529.212L712.221 529.2L726.91 529.181C741.604 529.158 756.306 529.142 770.998 529.298C777.242 529.366 783.61 532.393 786.15 538.533L786.385 539.137L786.388 539.146C787.298 541.739 787.861 544.44 788.058 547.181C788.441 552.512 788.387 558.759 788.277 565.011C788.168 571.282 788.003 577.557 788.158 583.014V583.058C787.994 593.874 788.342 604.979 787.975 615.858C787.696 624.075 781.058 628.874 774.431 631.019L774.309 631.058L774.181 631.065C765.575 631.57 753.768 631.232 744.978 631.22V631.219L693.678 631.184L554.364 631.188C551.746 631.192 546.115 631.285 539.016 631.385C531.923 631.484 523.379 631.589 514.953 631.617C506.529 631.645 498.215 631.596 491.585 631.385C488.271 631.279 485.366 631.132 483.074 630.934C480.828 630.739 479.046 630.486 478.065 630.123V630.122C474.093 628.656 471.249 625.965 469.56 622.124V622.123C468.316 619.291 467.623 616.159 467.399 613.112V613.111C466.538 601.343 467.332 588.891 467.377 577.209C467.418 566.683 466.71 555.374 467.622 544.773V544.772C467.798 542.723 468.183 540.774 469.059 538.822L469.289 538.333C471.732 533.37 476.244 531.202 480.864 529.426L481.01 529.37L481.166 529.361Z" fill="white" stroke="#97B3F8" stroke-width="2"/>
<path d="M702.869 570.636C708.267 568.739 714.188 571.543 716.137 576.92V576.921C718.085 582.303 715.334 588.251 709.971 590.245L709.972 590.246C704.539 592.272 698.5 589.474 696.526 584.027C694.553 578.574 697.402 572.559 702.869 570.636Z" fill="#97B3F8" stroke="#97B3F8"/>
<path d="M740.648 570.563C746.158 568.839 752.007 571.948 753.68 577.472H753.681C755.347 582.998 752.182 588.821 746.645 590.435C741.177 592.031 735.447 588.917 733.802 583.468C732.158 578.02 735.213 572.256 740.648 570.564V570.563Z" fill="#97B3F8" stroke="#97B3F8"/>
<path d="M481.166 404.361C492.595 403.711 509.483 404.127 521.848 404.182L524.258 404.188L605.546 404.212L712.221 404.2L726.91 404.181C741.604 404.158 756.306 404.142 770.998 404.298C777.242 404.366 783.61 407.393 786.15 413.533L786.385 414.137L786.388 414.146C787.298 416.739 787.861 419.44 788.058 422.181C788.441 427.512 788.387 433.759 788.277 440.011C788.168 446.282 788.003 452.557 788.158 458.014V458.058C787.994 468.874 788.342 479.979 787.975 490.858C787.696 499.075 781.058 503.874 774.431 506.019L774.309 506.058L774.181 506.065C765.575 506.57 753.768 506.232 744.978 506.22V506.219L693.678 506.184L554.364 506.188C551.746 506.192 546.115 506.285 539.016 506.385C531.923 506.484 523.379 506.589 514.953 506.617C506.529 506.645 498.215 506.596 491.585 506.385C488.271 506.279 485.366 506.132 483.074 505.934C480.828 505.739 479.046 505.486 478.065 505.123V505.122C474.093 503.656 471.249 500.965 469.56 497.124V497.123C468.316 494.291 467.623 491.159 467.399 488.112V488.111C466.538 476.343 467.332 463.891 467.377 452.209C467.418 441.683 466.71 430.374 467.622 419.773V419.772C467.798 417.723 468.183 415.774 469.059 413.822L469.289 413.333C471.732 408.37 476.244 406.202 480.864 404.426L481.01 404.37L481.166 404.361Z" fill="white" stroke="#97B3F8" stroke-width="2"/>
<path d="M702.869 445.636C708.267 443.739 714.188 446.543 716.137 451.92V451.921C718.085 457.303 715.334 463.251 709.971 465.245L709.972 465.246C704.539 467.272 698.5 464.474 696.526 459.027C694.553 453.574 697.402 447.559 702.869 445.636Z" fill="#97B3F8" stroke="#97B3F8"/>
<path d="M740.648 445.563C746.158 443.839 752.007 446.948 753.68 452.472H753.681C755.347 457.998 752.182 463.821 746.645 465.435C741.177 467.031 735.447 463.917 733.802 458.468C732.158 453.02 735.213 447.256 740.648 445.564V445.563Z" fill="#97B3F8" stroke="#97B3F8"/>
<path d="M1334.69 398.793C1350.38 381.914 1360 359.311 1360 334.5C1360 309.691 1350.39 287.089 1334.69 270.211C1334.49 269.918 1334.24 269.666 1333.98 269.443C1316.75 251.318 1292.42 240 1265.5 240C1238.58 240 1214.25 251.317 1197.02 269.442C1196.76 269.664 1196.52 269.916 1196.31 270.209C1180.62 287.087 1171 309.69 1171 334.5C1171 359.288 1180.6 381.874 1196.27 398.747C1196.5 399.087 1196.78 399.38 1197.09 399.627C1214.31 417.712 1238.61 429 1265.5 429C1292.42 429 1316.75 417.681 1333.98 399.553C1334.24 399.333 1334.48 399.083 1334.69 398.793ZM1179.42 338.658H1226.42C1226.66 352.877 1228.16 366.53 1230.76 378.791C1219.69 381.609 1209.38 385.736 1200.49 391.013C1188.16 376.849 1180.37 358.634 1179.42 338.658ZM1200.49 277.987C1209.38 283.264 1219.69 287.391 1230.76 290.209C1228.16 302.47 1226.66 316.123 1226.42 330.342H1179.42C1180.37 310.366 1188.16 292.151 1200.49 277.987ZM1351.58 330.342H1304.58C1304.34 316.11 1302.84 302.446 1300.23 290.177C1311.37 287.341 1321.76 283.201 1330.52 277.995C1342.85 292.158 1350.63 310.37 1351.58 330.342ZM1234.73 330.342C1234.97 316.716 1236.4 303.679 1238.88 292.015C1247.51 293.66 1256.48 294.537 1265.5 294.537C1274.43 294.537 1283.43 293.647 1292.11 291.981C1294.6 303.653 1296.03 316.703 1296.27 330.342H1234.73ZM1296.27 338.658C1296.03 352.297 1294.6 365.347 1292.11 377.019C1283.43 375.353 1274.43 374.463 1265.5 374.463C1256.48 374.463 1247.51 375.34 1238.88 376.985C1236.4 365.321 1234.97 352.283 1234.73 338.658L1296.27 338.658ZM1298.27 282.038C1297.05 277.47 1295.66 273.138 1294.1 269.118C1291.09 261.335 1287.58 255.007 1283.71 250.259C1299.32 253.629 1313.36 261.237 1324.58 271.817C1316.95 276.096 1307.92 279.572 1298.27 282.038ZM1286.35 272.12C1287.76 275.77 1289.02 279.702 1290.15 283.845C1282.05 285.387 1273.69 286.22 1265.5 286.22C1257.13 286.22 1248.82 285.423 1240.83 283.928C1241.96 279.754 1243.23 275.794 1244.65 272.12C1250.51 256.992 1258.11 248.317 1265.5 248.317C1272.89 248.317 1280.49 256.992 1286.35 272.12ZM1236.9 269.118C1235.33 273.167 1233.93 277.531 1232.7 282.134C1223.15 279.694 1214.23 276.208 1206.43 271.807C1217.64 261.232 1231.69 253.628 1247.29 250.259C1243.42 255.007 1239.91 261.335 1236.9 269.118ZM1232.7 386.867C1233.93 391.47 1235.33 395.834 1236.9 399.883C1239.91 407.665 1243.42 413.993 1247.29 418.742C1231.69 415.372 1217.65 407.768 1206.43 397.193C1214.23 392.792 1223.15 389.306 1232.7 386.867ZM1244.65 396.88C1243.23 393.206 1241.96 389.246 1240.83 385.072C1248.82 383.578 1257.13 382.78 1265.5 382.78C1273.69 382.78 1282.05 383.613 1290.15 385.155C1289.02 389.299 1287.76 393.23 1286.35 396.88C1280.49 412.008 1272.89 420.683 1265.5 420.683C1258.11 420.683 1250.51 412.008 1244.65 396.88ZM1294.1 399.882C1295.66 395.862 1297.05 391.53 1298.27 386.962C1307.91 389.428 1316.95 392.904 1324.58 397.183C1313.36 407.763 1299.32 415.371 1283.71 418.741C1287.58 413.993 1291.09 407.665 1294.1 399.882ZM1300.23 378.824C1302.84 366.555 1304.34 352.89 1304.58 338.658H1351.58C1350.63 358.63 1342.85 376.842 1330.52 391.005C1321.76 385.799 1311.37 381.659 1300.23 378.824Z" fill="#2D76FD" fill-opacity="0.8"/>
<defs>
<linearGradient id="paint0_linear_572_1738" x1="627.5" y1="161" x2="627.5" y2="610" gradientUnits="userSpaceOnUse">
<stop stop-color="#3C7FFD"/>
<stop offset="1" stop-color="#C9D8FA" stop-opacity="0.62"/>
</linearGradient>
<linearGradient id="paint1_linear_572_1738" x1="627.5" y1="161" x2="627.5" y2="610" gradientUnits="userSpaceOnUse">
<stop stop-color="#3C7FFD"/>
<stop offset="1" stop-color="#C9D8FA" stop-opacity="0.62"/>
</linearGradient>
</defs>
</svg>
