<svg width="1070" height="830" viewBox="0 0 1070 830" fill="none" xmlns="http://www.w3.org/2000/svg">
<rect x="69" y="12" width="581" height="751" rx="30" fill="#F8F9FB"/>
<path d="M210 642.966V695C210 706.046 218.954 715 230 715H564C575.046 715 584 706.046 584 695V615.999C584 611.422 582.43 606.984 579.553 603.425L433.813 423.145C426.103 413.607 411.703 413.193 403.456 422.271L215.196 629.519C211.852 633.199 210 637.994 210 642.966Z" fill="#E1EBFA"/>
<rect x="133" y="73" width="427" height="23" rx="11.5" fill="#EFF0F4"/>
<rect x="133" y="120" width="302" height="23" rx="11.5" fill="#EFF0F4"/>
<rect x="133" y="167" width="195" height="23" rx="11.5" fill="#EFF0F4"/>
<path opacity="0.5" d="M650.003 441C648.898 440.998 648.002 441.893 648 442.997C647.998 444.102 648.893 444.998 649.997 445L650 443L650.003 441ZM830.402 443.419C830.488 449.309 835.333 454.014 841.224 453.928C847.114 453.842 851.819 448.997 851.733 443.106C851.647 437.216 846.802 432.511 840.912 432.597C835.021 432.683 830.316 437.528 830.402 443.419ZM652.447 445.003C653.551 445.005 654.448 444.111 654.45 443.006C654.451 441.902 653.557 441.005 652.452 441.003L652.45 443.003L652.447 445.003ZM662.251 441.017C661.146 441.015 660.249 441.91 660.248 443.014C660.246 444.119 661.141 445.015 662.245 445.017L662.248 443.017L662.251 441.017ZM667.144 445.024C668.249 445.025 669.146 444.131 669.147 443.026C669.149 441.922 668.254 441.025 667.15 441.024L667.147 443.024L667.144 445.024ZM676.948 441.037C675.844 441.035 674.947 441.93 674.945 443.034C674.944 444.139 675.838 445.035 676.943 445.037L676.945 443.037L676.948 441.037ZM681.842 445.044C682.946 445.045 683.843 444.151 683.845 443.046C683.846 441.942 682.952 441.045 681.847 441.044L681.845 443.044L681.842 445.044ZM691.646 441.057C690.541 441.056 689.644 441.95 689.643 443.054C689.641 444.159 690.536 445.056 691.64 445.057L691.643 443.057L691.646 441.057ZM696.539 445.064C697.644 445.065 698.541 444.171 698.542 443.067C698.544 441.962 697.649 441.065 696.545 441.064L696.542 443.064L696.539 445.064ZM706.343 441.077C705.239 441.076 704.342 441.97 704.34 443.075C704.339 444.179 705.233 445.076 706.338 445.077L706.34 443.077L706.343 441.077ZM711.237 445.084C712.341 445.086 713.238 444.191 713.24 443.087C713.241 441.982 712.347 441.086 711.242 441.084L711.24 443.084L711.237 445.084ZM721.041 441.098C719.936 441.096 719.04 441.99 719.038 443.095C719.036 444.199 719.931 445.096 721.035 445.098L721.038 443.098L721.041 441.098ZM725.934 445.104C727.039 445.106 727.936 444.212 727.937 443.107C727.939 442.002 727.044 441.106 725.94 441.104L725.937 443.104L725.934 445.104ZM735.738 441.118C734.634 441.116 733.737 442.01 733.736 443.115C733.734 444.22 734.628 445.116 735.733 445.118L735.736 443.118L735.738 441.118ZM740.632 445.124C741.737 445.126 742.633 444.232 742.635 443.127C742.636 442.023 741.742 441.126 740.637 441.124L740.635 443.124L740.632 445.124ZM750.436 441.138C749.331 441.136 748.435 442.031 748.433 443.135C748.432 444.24 749.326 445.136 750.43 445.138L750.433 443.138L750.436 441.138ZM755.329 445.145C756.434 445.146 757.331 444.252 757.332 443.147C757.334 442.043 756.44 441.146 755.335 441.145L755.332 443.145L755.329 445.145ZM765.133 441.158C764.029 441.157 763.132 442.051 763.131 443.155C763.129 444.26 764.023 445.157 765.128 445.158L765.131 443.158L765.133 441.158ZM770.027 445.165C771.132 445.166 772.028 444.272 772.03 443.168C772.031 442.063 771.137 441.166 770.032 441.165L770.03 443.165L770.027 445.165ZM779.831 441.178C778.726 441.177 777.83 442.071 777.828 443.176C777.827 444.28 778.721 445.177 779.825 445.178L779.828 443.178L779.831 441.178ZM784.724 445.185C785.829 445.187 786.726 444.292 786.727 443.188C786.729 442.083 785.835 441.187 784.73 441.185L784.727 443.185L784.724 445.185ZM794.528 441.199C793.424 441.197 792.527 442.091 792.526 443.196C792.524 444.3 793.418 445.197 794.523 445.198L794.526 443.199L794.528 441.199ZM799.422 445.205C800.527 445.207 801.423 444.313 801.425 443.208C801.426 442.103 800.532 441.207 799.427 441.205L799.425 443.205L799.422 445.205ZM809.226 441.219C808.121 441.217 807.225 442.111 807.223 443.216C807.222 444.321 808.116 445.217 809.22 445.219L809.223 443.219L809.226 441.219ZM814.12 445.225C815.224 445.227 816.121 444.333 816.122 443.228C816.124 442.124 815.23 441.227 814.125 441.225L814.122 443.225L814.12 445.225ZM823.923 441.239C822.819 441.237 821.922 442.132 821.921 443.236C821.919 444.341 822.813 445.237 823.918 445.239L823.921 443.239L823.923 441.239ZM828.817 445.246C829.922 445.247 830.818 444.353 830.82 443.248C830.821 442.144 829.927 441.247 828.823 441.246L828.82 443.246L828.817 445.246ZM838.621 441.259C837.516 441.258 836.62 442.152 836.618 443.256C836.617 444.361 837.511 445.258 838.615 445.259L838.618 443.259L838.621 441.259ZM650 443L649.997 445L652.447 445.003L652.45 443.003L652.452 441.003L650.003 441L650 443ZM662.248 443.017L662.245 445.017L667.144 445.024L667.147 443.024L667.15 441.024L662.251 441.017L662.248 443.017ZM676.945 443.037L676.943 445.037L681.842 445.044L681.845 443.044L681.847 441.044L676.948 441.037L676.945 443.037ZM691.643 443.057L691.64 445.057L696.539 445.064L696.542 443.064L696.545 441.064L691.646 441.057L691.643 443.057ZM706.34 443.077L706.338 445.077L711.237 445.084L711.24 443.084L711.242 441.084L706.343 441.077L706.34 443.077ZM721.038 443.098L721.035 445.098L725.934 445.104L725.937 443.104L725.94 441.104L721.041 441.098L721.038 443.098ZM735.736 443.118L735.733 445.118L740.632 445.124L740.635 443.124L740.637 441.124L735.738 441.118L735.736 443.118ZM750.433 443.138L750.43 445.138L755.329 445.145L755.332 443.145L755.335 441.145L750.436 441.138L750.433 443.138ZM765.131 443.158L765.128 445.158L770.027 445.165L770.03 443.165L770.032 441.165L765.133 441.158L765.131 443.158ZM779.828 443.178L779.825 445.178L784.724 445.185L784.727 443.185L784.73 441.185L779.831 441.178L779.828 443.178ZM794.526 443.199L794.523 445.198L799.422 445.205L799.425 443.205L799.427 441.205L794.528 441.199L794.526 443.199ZM809.223 443.219L809.22 445.219L814.12 445.225L814.122 443.225L814.125 441.225L809.226 441.219L809.223 443.219ZM823.921 443.239L823.918 445.239L828.817 445.246L828.82 443.246L828.823 441.246L823.923 441.239L823.921 443.239ZM838.618 443.259L838.615 445.259L841.065 445.262L841.068 443.262L841.07 441.262L838.621 441.259L838.618 443.259Z" fill="#6D33FD"/>
<path opacity="0.5" d="M495 441C496.105 441 497 440.105 497 439C497 437.895 496.105 437 495 437V439V441ZM203.667 439C203.667 433.109 198.891 428.333 193 428.333C187.109 428.333 182.333 433.109 182.333 439C182.333 444.891 187.109 449.667 193 449.667C198.891 449.667 203.667 444.891 203.667 439ZM492.483 437C491.379 437 490.483 437.895 490.483 439C490.483 440.105 491.379 441 492.483 441V439V437ZM482.417 441C483.521 441 484.417 440.105 484.417 439C484.417 437.895 483.521 437 482.417 437V439V441ZM477.383 437C476.279 437 475.383 437.895 475.383 439C475.383 440.105 476.279 441 477.383 441V439V437ZM467.317 441C468.421 441 469.317 440.105 469.317 439C469.317 437.895 468.421 437 467.317 437V439V441ZM462.283 437C461.179 437 460.283 437.895 460.283 439C460.283 440.105 461.179 441 462.283 441V439V437ZM452.217 441C453.321 441 454.217 440.105 454.217 439C454.217 437.895 453.321 437 452.217 437V439V441ZM447.183 437C446.079 437 445.183 437.895 445.183 439C445.183 440.105 446.079 441 447.183 441V439V437ZM437.117 441C438.221 441 439.117 440.105 439.117 439C439.117 437.895 438.221 437 437.117 437V439V441ZM432.083 437C430.979 437 430.083 437.895 430.083 439C430.083 440.105 430.979 441 432.083 441V439V437ZM422.017 441C423.121 441 424.017 440.105 424.017 439C424.017 437.895 423.121 437 422.017 437V439V441ZM416.983 437C415.879 437 414.983 437.895 414.983 439C414.983 440.105 415.879 441 416.983 441V439V437ZM406.917 441C408.021 441 408.917 440.105 408.917 439C408.917 437.895 408.021 437 406.917 437V439V441ZM401.883 437C400.779 437 399.883 437.895 399.883 439C399.883 440.105 400.779 441 401.883 441V439V437ZM391.817 441C392.921 441 393.817 440.105 393.817 439C393.817 437.895 392.921 437 391.817 437V439V441ZM386.783 437C385.679 437 384.783 437.895 384.783 439C384.783 440.105 385.679 441 386.783 441V439V437ZM376.717 441C377.821 441 378.717 440.105 378.717 439C378.717 437.895 377.821 437 376.717 437V439V441ZM371.683 437C370.579 437 369.683 437.895 369.683 439C369.683 440.105 370.579 441 371.683 441V439V437ZM361.617 441C362.721 441 363.617 440.105 363.617 439C363.617 437.895 362.721 437 361.617 437V439V441ZM356.583 437C355.479 437 354.583 437.895 354.583 439C354.583 440.105 355.479 441 356.583 441V439V437ZM346.517 441C347.621 441 348.517 440.105 348.517 439C348.517 437.895 347.621 437 346.517 437V439V441ZM341.483 437C340.379 437 339.483 437.895 339.483 439C339.483 440.105 340.379 441 341.483 441V439V437ZM331.417 441C332.521 441 333.417 440.105 333.417 439C333.417 437.895 332.521 437 331.417 437V439V441ZM326.383 437C325.279 437 324.383 437.895 324.383 439C324.383 440.105 325.279 441 326.383 441V439V437ZM316.317 441C317.421 441 318.317 440.105 318.317 439C318.317 437.895 317.421 437 316.317 437V439V441ZM311.283 437C310.179 437 309.283 437.895 309.283 439C309.283 440.105 310.179 441 311.283 441V439V437ZM301.217 441C302.321 441 303.217 440.105 303.217 439C303.217 437.895 302.321 437 301.217 437V439V441ZM296.183 437C295.079 437 294.183 437.895 294.183 439C294.183 440.105 295.079 441 296.183 441V439V437ZM286.117 441C287.221 441 288.117 440.105 288.117 439C288.117 437.895 287.221 437 286.117 437V439V441ZM281.083 437C279.979 437 279.083 437.895 279.083 439C279.083 440.105 279.979 441 281.083 441V439V437ZM271.017 441C272.121 441 273.017 440.105 273.017 439C273.017 437.895 272.121 437 271.017 437V439V441ZM265.983 437C264.879 437 263.983 437.895 263.983 439C263.983 440.105 264.879 441 265.983 441V439V437ZM255.917 441C257.021 441 257.917 440.105 257.917 439C257.917 437.895 257.021 437 255.917 437V439V441ZM250.883 437C249.779 437 248.883 437.895 248.883 439C248.883 440.105 249.779 441 250.883 441V439V437ZM240.817 441C241.921 441 242.817 440.105 242.817 439C242.817 437.895 241.921 437 240.817 437V439V441ZM235.783 437C234.679 437 233.783 437.895 233.783 439C233.783 440.105 234.679 441 235.783 441V439V437ZM225.717 441C226.821 441 227.717 440.105 227.717 439C227.717 437.895 226.821 437 225.717 437V439V441ZM220.683 437C219.579 437 218.683 437.895 218.683 439C218.683 440.105 219.579 441 220.683 441V439V437ZM210.617 441C211.721 441 212.617 440.105 212.617 439C212.617 437.895 211.721 437 210.617 437V439V441ZM205.583 437C204.479 437 203.583 437.895 203.583 439C203.583 440.105 204.479 441 205.583 441V439V437ZM195.517 441C196.621 441 197.517 440.105 197.517 439C197.517 437.895 196.621 437 195.517 437V439V441ZM495 439V437H492.483V439V441H495V439ZM482.417 439V437H477.383V439V441H482.417V439ZM467.317 439V437H462.283V439V441H467.317V439ZM452.217 439V437H447.183V439V441H452.217V439ZM437.117 439V437H432.083V439V441H437.117V439ZM422.017 439V437H416.983V439V441H422.017V439ZM406.917 439V437H401.883V439V441H406.917V439ZM391.817 439V437H386.783V439V441H391.817V439ZM376.717 439V437H371.683V439V441H376.717V439ZM361.617 439V437H356.583V439V441H361.617V439ZM346.517 439V437H341.483V439V441H346.517V439ZM331.417 439V437H326.383V439V441H331.417V439ZM316.317 439V437H311.283V439V441H316.317V439ZM301.217 439V437H296.183V439V441H301.217V439ZM286.117 439V437H281.083V439V441H286.117V439ZM271.017 439V437H265.983V439V441H271.017V439ZM255.917 439V437H250.883V439V441H255.917V439ZM240.817 439V437H235.783V439V441H240.817V439ZM225.717 439V437H220.683V439V441H225.717V439ZM210.617 439V437H205.583V439V441H210.617V439ZM195.517 439V437H193V439V441H195.517V439Z" fill="#6D33FD"/>
<path opacity="0.5" d="M613.35 527.005C613.353 525.9 612.459 525.003 611.355 525C610.25 524.997 609.353 525.891 609.35 526.995L611.35 527L613.35 527.005ZM478.075 751.797C478.038 745.907 473.232 741.161 467.341 741.198C461.45 741.235 456.705 746.041 456.742 751.932C456.779 757.823 461.585 762.568 467.476 762.531C473.366 762.494 478.112 757.688 478.075 751.797ZM610.865 731.7L612.865 731.704L610.865 731.7ZM609.344 529.432C609.342 530.537 610.235 531.434 611.34 531.437C612.444 531.44 613.342 530.546 613.344 529.442L611.344 529.437L609.344 529.432ZM613.321 539.189C613.324 538.085 612.431 537.187 611.326 537.185C610.221 537.182 609.324 538.075 609.321 539.18L611.321 539.185L613.321 539.189ZM609.31 544.054C609.307 545.158 610.2 546.056 611.305 546.058C612.409 546.061 613.307 545.168 613.31 544.063L611.31 544.058L609.31 544.054ZM613.287 553.811C613.289 552.706 612.396 551.809 611.291 551.806C610.187 551.803 609.289 552.697 609.287 553.801L611.287 553.806L613.287 553.811ZM609.275 558.675C609.272 559.78 610.166 560.677 611.27 560.68C612.375 560.682 613.272 559.789 613.275 558.684L611.275 558.68L609.275 558.675ZM613.252 568.432C613.255 567.327 612.361 566.43 611.257 566.427C610.152 566.425 609.255 567.318 609.252 568.423L611.252 568.427L613.252 568.432ZM609.24 573.296C609.238 574.401 610.131 575.298 611.236 575.301C612.34 575.304 613.238 574.41 613.24 573.306L611.24 573.301L609.24 573.296ZM613.217 583.053C613.22 581.949 612.327 581.051 611.222 581.049C610.118 581.046 609.22 581.939 609.217 583.044L611.217 583.049L613.217 583.053ZM609.206 587.918C609.203 589.022 610.097 589.92 611.201 589.923C612.306 589.925 613.203 589.032 613.206 587.927L611.206 587.923L609.206 587.918ZM613.183 597.675C613.185 596.57 612.292 595.673 611.187 595.67C610.083 595.668 609.185 596.561 609.183 597.665L611.183 597.67L613.183 597.675ZM609.171 602.539C609.169 603.644 610.062 604.541 611.166 604.544C612.271 604.547 613.169 603.653 613.171 602.549L611.171 602.544L609.171 602.539ZM613.148 612.296C613.151 611.192 612.257 610.294 611.153 610.292C610.048 610.289 609.151 611.182 609.148 612.287L611.148 612.292L613.148 612.296ZM609.137 617.161C609.134 618.265 610.027 619.163 611.132 619.165C612.236 619.168 613.134 618.275 613.137 617.17L611.137 617.165L609.137 617.161ZM613.113 626.918C613.116 625.813 612.223 624.916 611.118 624.913C610.014 624.91 609.116 625.804 609.114 626.908L611.114 626.913L613.113 626.918ZM609.102 631.782C609.099 632.887 609.993 633.784 611.097 633.787C612.202 633.789 613.099 632.896 613.102 631.791L611.102 631.787L609.102 631.782ZM613.079 641.539C613.081 640.434 612.188 639.537 611.084 639.534C609.979 639.532 609.082 640.425 609.079 641.53L611.079 641.534L613.079 641.539ZM609.067 646.403C609.065 647.508 609.958 648.405 611.063 648.408C612.167 648.411 613.065 647.517 613.067 646.413L611.067 646.408L609.067 646.403ZM613.044 656.16C613.047 655.056 612.154 654.158 611.049 654.156C609.944 654.153 609.047 655.046 609.044 656.151L611.044 656.156L613.044 656.16ZM609.033 661.025C609.03 662.129 609.923 663.027 611.028 663.029C612.133 663.032 613.03 662.139 613.033 661.034L611.033 661.029L609.033 661.025ZM613.01 670.782C613.012 669.677 612.119 668.78 611.014 668.777C609.91 668.774 609.012 669.668 609.01 670.772L611.01 670.777L613.01 670.782ZM608.998 675.646C608.996 676.751 609.889 677.648 610.993 677.651C612.098 677.653 612.995 676.76 612.998 675.656L610.998 675.651L608.998 675.646ZM612.975 685.403C612.978 684.299 612.084 683.401 610.98 683.398C609.875 683.396 608.978 684.289 608.975 685.394L610.975 685.398L612.975 685.403ZM608.964 690.268C608.961 691.372 609.854 692.27 610.959 692.272C612.063 692.275 612.961 691.382 612.963 690.277L610.963 690.272L608.964 690.268ZM612.94 700.025C612.943 698.92 612.05 698.022 610.945 698.02C609.841 698.017 608.943 698.911 608.94 700.015L610.94 700.02L612.94 700.025ZM608.929 704.889C608.926 705.993 609.82 706.891 610.924 706.894C612.029 706.896 612.926 706.003 612.929 704.898L610.929 704.894L608.929 704.889ZM612.906 714.646C612.908 713.541 612.015 712.644 610.911 712.641C609.806 712.639 608.908 713.532 608.906 714.636L610.906 714.641L612.906 714.646ZM608.894 719.51C608.892 720.615 609.785 721.512 610.89 721.515C611.994 721.518 612.892 720.624 612.894 719.52L610.894 719.515L608.894 719.51ZM612.871 729.267C612.874 728.163 611.98 727.265 610.876 727.263C609.771 727.26 608.874 728.153 608.871 729.258L610.871 729.263L612.871 729.267ZM608.708 734.042C608.563 735.137 609.333 736.142 610.428 736.287C611.523 736.432 612.529 735.662 612.674 734.567L610.691 734.305L608.708 734.042ZM608.31 745.058C608.984 744.183 608.82 742.927 607.945 742.253C607.07 741.58 605.814 741.743 605.14 742.619L606.725 743.838L608.31 745.058ZM601.823 745.934C600.947 746.607 600.783 747.863 601.456 748.739C602.129 749.614 603.384 749.779 604.26 749.106L603.041 747.52L601.823 745.934ZM593.766 753.462C594.862 753.318 595.632 752.313 595.488 751.218C595.343 750.123 594.339 749.352 593.244 749.497L593.505 751.48L593.766 753.462ZM588.324 749.657C587.219 749.659 586.325 750.555 586.327 751.66C586.329 752.765 587.226 753.659 588.331 753.657L588.327 751.657L588.324 749.657ZM578.04 753.674C579.144 753.672 580.038 752.775 580.036 751.671C580.034 750.566 579.137 749.672 578.033 749.674L578.036 751.674L578.04 753.674ZM572.887 749.683C571.783 749.685 570.889 750.582 570.891 751.687C570.893 752.791 571.79 753.685 572.894 753.683L572.891 751.683L572.887 749.683ZM562.603 753.701C563.708 753.699 564.602 752.802 564.6 751.697C564.598 750.593 563.701 749.699 562.596 749.701L562.6 751.701L562.603 753.701ZM557.451 749.71C556.346 749.712 555.452 750.609 555.454 751.713C555.456 752.818 556.353 753.712 557.458 753.71L557.454 751.71L557.451 749.71ZM547.167 753.727C548.271 753.725 549.165 752.829 549.163 751.724C549.161 750.619 548.264 749.725 547.16 749.727L547.163 751.727L547.167 753.727ZM542.014 749.736C540.91 749.738 540.016 750.635 540.018 751.74C540.02 752.844 540.917 753.738 542.021 753.736L542.018 751.736L542.014 749.736ZM531.73 753.754C532.835 753.752 533.729 752.855 533.727 751.75C533.725 750.646 532.828 749.752 531.723 749.754L531.727 751.754L531.73 753.754ZM526.578 749.763C525.473 749.765 524.58 750.662 524.581 751.766C524.583 752.871 525.48 753.765 526.585 753.763L526.581 751.763L526.578 749.763ZM516.294 753.78C517.398 753.779 518.292 752.882 518.29 751.777C518.289 750.672 517.392 749.779 516.287 749.78L516.29 751.78L516.294 753.78ZM511.142 749.789C510.037 749.791 509.143 750.688 509.145 751.793C509.147 752.897 510.044 753.791 511.148 753.789L511.145 751.789L511.142 749.789ZM500.857 753.807C501.962 753.805 502.856 752.908 502.854 751.804C502.852 750.699 501.955 749.805 500.851 749.807L500.854 751.807L500.857 753.807ZM495.705 749.816C494.601 749.818 493.707 750.715 493.709 751.819C493.71 752.924 494.607 753.818 495.712 753.816L495.709 751.816L495.705 749.816ZM485.421 753.834C486.526 753.832 487.419 752.935 487.418 751.83C487.416 750.726 486.519 749.832 485.414 749.834L485.418 751.834L485.421 753.834ZM480.269 749.842C479.164 749.844 478.27 750.741 478.272 751.846C478.274 752.95 479.171 753.844 480.276 753.842L480.272 751.842L480.269 749.842ZM469.985 753.86C471.089 753.858 471.983 752.961 471.981 751.857C471.979 750.752 471.082 749.858 469.978 749.86L469.981 751.86L469.985 753.86ZM611.35 527L609.35 526.995L609.344 529.432L611.344 529.437L613.344 529.442L613.35 527.005L611.35 527ZM611.321 539.185L609.321 539.18L609.31 544.054L611.31 544.058L613.31 544.063L613.321 539.189L611.321 539.185ZM611.287 553.806L609.287 553.801L609.275 558.675L611.275 558.68L613.275 558.684L613.287 553.811L611.287 553.806ZM611.252 568.427L609.252 568.423L609.24 573.296L611.24 573.301L613.24 573.306L613.252 568.432L611.252 568.427ZM611.217 583.049L609.217 583.044L609.206 587.918L611.206 587.923L613.206 587.927L613.217 583.053L611.217 583.049ZM611.183 597.67L609.183 597.665L609.171 602.539L611.171 602.544L613.171 602.549L613.183 597.675L611.183 597.67ZM611.148 612.292L609.148 612.287L609.137 617.161L611.137 617.165L613.137 617.17L613.148 612.296L611.148 612.292ZM611.114 626.913L609.114 626.908L609.102 631.782L611.102 631.787L613.102 631.791L613.113 626.918L611.114 626.913ZM611.079 641.534L609.079 641.53L609.067 646.403L611.067 646.408L613.067 646.413L613.079 641.539L611.079 641.534ZM611.044 656.156L609.044 656.151L609.033 661.025L611.033 661.029L613.033 661.034L613.044 656.16L611.044 656.156ZM611.01 670.777L609.01 670.772L608.998 675.646L610.998 675.651L612.998 675.656L613.01 670.782L611.01 670.777ZM610.975 685.398L608.975 685.394L608.964 690.268L610.963 690.272L612.963 690.277L612.975 685.403L610.975 685.398ZM610.94 700.02L608.94 700.015L608.929 704.889L610.929 704.894L612.929 704.898L612.94 700.025L610.94 700.02ZM610.906 714.641L608.906 714.636L608.894 719.51L610.894 719.515L612.894 719.52L612.906 714.646L610.906 714.641ZM610.871 729.263L608.871 729.258L608.865 731.695L610.865 731.7L612.865 731.704L612.871 729.267L610.871 729.263ZM610.865 731.7L608.865 731.695C608.864 732.491 608.81 733.275 608.708 734.042L610.691 734.305L612.674 734.567C612.798 733.629 612.863 732.674 612.865 731.704L610.865 731.7ZM606.725 743.838L605.14 742.619C604.183 743.863 603.067 744.978 601.823 745.934L603.041 747.52L604.26 749.106C605.779 747.938 607.142 746.577 608.31 745.058L606.725 743.838ZM593.505 751.48L593.244 749.497C592.476 749.598 591.693 749.651 590.896 749.652L590.9 751.652L590.903 753.652C591.873 753.651 592.829 753.586 593.766 753.462L593.505 751.48ZM590.9 751.652L590.896 749.652L588.324 749.657L588.327 751.657L588.331 753.657L590.903 753.652L590.9 751.652ZM578.036 751.674L578.033 749.674L572.887 749.683L572.891 751.683L572.894 753.683L578.04 753.674L578.036 751.674ZM562.6 751.701L562.596 749.701L557.451 749.71L557.454 751.71L557.458 753.71L562.603 753.701L562.6 751.701ZM547.163 751.727L547.16 749.727L542.014 749.736L542.018 751.736L542.021 753.736L547.167 753.727L547.163 751.727ZM531.727 751.754L531.723 749.754L526.578 749.763L526.581 751.763L526.585 753.763L531.73 753.754L531.727 751.754ZM516.29 751.78L516.287 749.78L511.142 749.789L511.145 751.789L511.148 753.789L516.294 753.78L516.29 751.78ZM500.854 751.807L500.851 749.807L495.705 749.816L495.709 751.816L495.712 753.816L500.857 753.807L500.854 751.807ZM485.418 751.834L485.414 749.834L480.269 749.842L480.272 751.842L480.276 753.842L485.421 753.834L485.418 751.834ZM469.981 751.86L469.978 749.86L467.405 749.865L467.408 751.865L467.412 753.865L469.985 753.86L469.981 751.86Z" fill="#6D33FD"/>
<path opacity="0.5" d="M746.961 318.5C745.857 318.5 744.961 319.396 744.961 320.5C744.961 321.605 745.857 322.5 746.961 322.5L746.961 320.5L746.961 318.5ZM864.628 166.933C864.591 161.042 859.785 156.296 853.894 156.334C848.003 156.371 843.258 161.176 843.295 167.067C843.332 172.958 848.137 177.704 854.028 177.666C859.919 177.629 864.665 172.824 864.628 166.933ZM833.961 320.5L833.961 318.5L833.961 320.5ZM851.961 169.472C851.961 170.577 852.857 171.472 853.961 171.472C855.066 171.472 855.961 170.577 855.961 169.472L853.961 169.472L851.961 169.472ZM855.961 179.361C855.961 178.257 855.066 177.361 853.961 177.361C852.857 177.361 851.961 178.257 851.961 179.361L853.961 179.361L855.961 179.361ZM851.961 184.306C851.961 185.41 852.857 186.306 853.961 186.306C855.066 186.306 855.961 185.41 855.961 184.306L853.961 184.306L851.961 184.306ZM855.961 194.194C855.961 193.09 855.066 192.194 853.961 192.194C852.857 192.194 851.961 193.09 851.961 194.194L853.961 194.194L855.961 194.194ZM851.961 199.139C851.961 200.243 852.857 201.139 853.961 201.139C855.066 201.139 855.961 200.243 855.961 199.139L853.961 199.139L851.961 199.139ZM855.961 209.028C855.961 207.923 855.066 207.028 853.961 207.028C852.857 207.028 851.961 207.923 851.961 209.028L853.961 209.028L855.961 209.028ZM851.961 213.972C851.961 215.077 852.857 215.972 853.961 215.972C855.066 215.972 855.961 215.077 855.961 213.972L853.961 213.972L851.961 213.972ZM855.961 223.861C855.961 222.757 855.066 221.861 853.961 221.861C852.857 221.861 851.961 222.757 851.961 223.861L853.961 223.861L855.961 223.861ZM851.961 228.806C851.961 229.91 852.857 230.806 853.961 230.806C855.066 230.806 855.961 229.91 855.961 228.806L853.961 228.806L851.961 228.806ZM855.961 238.694C855.961 237.59 855.066 236.694 853.961 236.694C852.857 236.694 851.961 237.59 851.961 238.694L853.961 238.694L855.961 238.694ZM851.961 243.639C851.961 244.743 852.857 245.639 853.961 245.639C855.066 245.639 855.961 244.743 855.961 243.639L853.961 243.639L851.961 243.639ZM855.961 253.528C855.961 252.423 855.066 251.528 853.961 251.528C852.857 251.528 851.961 252.423 851.961 253.528L853.961 253.528L855.961 253.528ZM851.961 258.472C851.961 259.577 852.857 260.472 853.961 260.472C855.066 260.472 855.961 259.577 855.961 258.472L853.961 258.472L851.961 258.472ZM855.961 268.361C855.961 267.257 855.066 266.361 853.961 266.361C852.857 266.361 851.961 267.257 851.961 268.361L853.961 268.361L855.961 268.361ZM851.961 273.306C851.961 274.41 852.857 275.306 853.961 275.306C855.066 275.306 855.961 274.41 855.961 273.306L853.961 273.306L851.961 273.306ZM855.961 283.194C855.961 282.09 855.066 281.194 853.961 281.194C852.857 281.194 851.961 282.09 851.961 283.194L853.961 283.194L855.961 283.194ZM851.961 288.139C851.961 289.243 852.857 290.139 853.961 290.139C855.066 290.139 855.961 289.243 855.961 288.139L853.961 288.139L851.961 288.139ZM855.961 298.028C855.961 296.923 855.066 296.028 853.961 296.028C852.857 296.028 851.961 296.923 851.961 298.028L853.961 298.028L855.961 298.028ZM851.809 302.854C851.666 303.949 852.438 304.953 853.533 305.095C854.629 305.238 855.632 304.466 855.775 303.371L853.792 303.112L851.809 302.854ZM851.415 313.894C852.088 313.018 851.924 311.763 851.048 311.09C850.172 310.417 848.916 310.581 848.243 311.457L849.829 312.676L851.415 313.894ZM844.918 314.782C844.042 315.455 843.878 316.711 844.551 317.587C845.224 318.462 846.48 318.627 847.356 317.954L846.137 316.368L844.918 314.782ZM836.832 322.314C837.927 322.171 838.699 321.168 838.557 320.072C838.414 318.977 837.41 318.205 836.315 318.348L836.573 320.331L836.832 322.314ZM831.545 318.5C830.44 318.5 829.545 319.395 829.545 320.5C829.545 321.605 830.44 322.5 831.545 322.5L831.545 320.5L831.545 318.5ZM821.878 322.5C822.982 322.5 823.878 321.605 823.878 320.5C823.878 319.395 822.982 318.5 821.878 318.5L821.878 320.5L821.878 322.5ZM817.045 318.5C815.94 318.5 815.045 319.395 815.045 320.5C815.045 321.605 815.94 322.5 817.045 322.5L817.045 320.5L817.045 318.5ZM807.378 322.5C808.482 322.5 809.378 321.605 809.378 320.5C809.378 319.395 808.482 318.5 807.378 318.5L807.378 320.5L807.378 322.5ZM802.545 318.5C801.44 318.5 800.545 319.396 800.545 320.5C800.545 321.605 801.44 322.5 802.545 322.5L802.545 320.5L802.545 318.5ZM792.878 322.5C793.982 322.5 794.878 321.605 794.878 320.5C794.878 319.396 793.982 318.5 792.878 318.5L792.878 320.5L792.878 322.5ZM788.045 318.5C786.94 318.5 786.045 319.396 786.045 320.5C786.045 321.605 786.94 322.5 788.045 322.5L788.045 320.5L788.045 318.5ZM778.378 322.5C779.482 322.5 780.378 321.605 780.378 320.5C780.378 319.396 779.482 318.5 778.378 318.5L778.378 320.5L778.378 322.5ZM773.545 318.5C772.44 318.5 771.545 319.396 771.545 320.5C771.545 321.605 772.44 322.5 773.545 322.5L773.545 320.5L773.545 318.5ZM763.878 322.5C764.982 322.5 765.878 321.605 765.878 320.5C765.878 319.396 764.982 318.5 763.878 318.5L763.878 320.5L763.878 322.5ZM759.045 318.5C757.94 318.5 757.045 319.396 757.045 320.5C757.045 321.605 757.94 322.5 759.045 322.5L759.045 320.5L759.045 318.5ZM749.378 322.5C750.482 322.5 751.378 321.605 751.378 320.5C751.378 319.396 750.482 318.5 749.378 318.5L749.378 320.5L749.378 322.5ZM853.961 167L851.961 167L851.961 169.472L853.961 169.472L855.961 169.472L855.961 167L853.961 167ZM853.961 179.361L851.961 179.361L851.961 184.306L853.961 184.306L855.961 184.306L855.961 179.361L853.961 179.361ZM853.961 194.194L851.961 194.194L851.961 199.139L853.961 199.139L855.961 199.139L855.961 194.194L853.961 194.194ZM853.961 209.028L851.961 209.028L851.961 213.972L853.961 213.972L855.961 213.972L855.961 209.028L853.961 209.028ZM853.961 223.861L851.961 223.861L851.961 228.806L853.961 228.806L855.961 228.806L855.961 223.861L853.961 223.861ZM853.961 238.694L851.961 238.694L851.961 243.639L853.961 243.639L855.961 243.639L855.961 238.694L853.961 238.694ZM853.961 253.528L851.961 253.528L851.961 258.472L853.961 258.472L855.961 258.472L855.961 253.528L853.961 253.528ZM853.961 268.361L851.961 268.361L851.961 273.306L853.961 273.306L855.961 273.306L855.961 268.361L853.961 268.361ZM853.961 283.194L851.961 283.194L851.961 288.139L853.961 288.139L855.961 288.139L855.961 283.194L853.961 283.194ZM853.961 298.028L851.961 298.028L851.961 300.5L853.961 300.5L855.961 300.5L855.961 298.028L853.961 298.028ZM853.961 300.5L851.961 300.5C851.961 301.299 851.909 302.084 851.809 302.854L853.792 303.112L855.775 303.371C855.898 302.43 855.961 301.472 855.961 300.5L853.961 300.5ZM849.829 312.676L848.243 311.457C847.285 312.705 846.166 313.823 844.918 314.782L846.137 316.368L847.356 317.954C848.879 316.783 850.244 315.418 851.415 313.894L849.829 312.676ZM836.573 320.331L836.315 318.348C835.545 318.448 834.76 318.5 833.961 318.5L833.961 320.5L833.961 322.5C834.933 322.5 835.892 322.437 836.832 322.314L836.573 320.331ZM833.961 320.5L833.961 318.5L831.545 318.5L831.545 320.5L831.545 322.5L833.961 322.5L833.961 320.5ZM821.878 320.5L821.878 318.5L817.045 318.5L817.045 320.5L817.045 322.5L821.878 322.5L821.878 320.5ZM807.378 320.5L807.378 318.5L802.545 318.5L802.545 320.5L802.545 322.5L807.378 322.5L807.378 320.5ZM792.878 320.5L792.878 318.5L788.045 318.5L788.045 320.5L788.045 322.5L792.878 322.5L792.878 320.5ZM778.378 320.5L778.378 318.5L773.545 318.5L773.545 320.5L773.545 322.5L778.378 322.5L778.378 320.5ZM763.878 320.5L763.878 318.5L759.045 318.5L759.045 320.5L759.045 322.5L763.878 322.5L763.878 320.5ZM749.378 320.5L749.378 318.5L746.961 318.5L746.961 320.5L746.961 322.5L749.378 322.5L749.378 320.5Z" fill="#6D33FD"/>
<g filter="url(#filter0_d_282_5263)">
<rect x="29" y="260" width="133" height="359" rx="20" fill="#FEFEFD"/>
</g>
<rect x="55" y="288" width="80" height="80" rx="10" fill="#ECEDEF"/>
<rect x="55" y="399" width="80" height="80" rx="10" fill="#ECEDEF"/>
<rect x="55" y="510" width="80" height="80" rx="10" fill="#ECEDEF"/>
<g filter="url(#filter1_d_282_5263)">
<rect x="466" y="237" width="281" height="336" rx="20" fill="#FEFEFD"/>
</g>
<path d="M519.191 475.48C516.887 475.48 514.897 474.979 513.223 473.976C511.559 472.973 510.273 471.571 509.367 469.768C508.471 467.965 508.023 465.869 508.023 463.48C508.023 461.091 508.471 458.995 509.367 457.192C510.273 455.389 511.559 453.987 513.223 452.984C514.897 451.981 516.887 451.48 519.191 451.48C521.836 451.48 524.055 452.136 525.847 453.448C527.649 454.76 528.919 456.536 529.655 458.776L525.271 459.992C524.844 458.595 524.124 457.512 523.111 456.744C522.097 455.965 520.791 455.576 519.191 455.576C517.729 455.576 516.508 455.901 515.527 456.552C514.556 457.203 513.825 458.12 513.335 459.304C512.844 460.488 512.599 461.88 512.599 463.48C512.599 465.08 512.844 466.472 513.335 467.656C513.825 468.84 514.556 469.757 515.527 470.408C516.508 471.059 517.729 471.384 519.191 471.384C520.791 471.384 522.097 470.995 523.111 470.216C524.124 469.437 524.844 468.355 525.271 466.968L529.655 468.184C528.919 470.424 527.649 472.2 525.847 473.512C524.055 474.824 521.836 475.48 519.191 475.48ZM540.954 475.48C539.215 475.48 537.69 475.091 536.378 474.312C535.066 473.533 534.042 472.461 533.306 471.096C532.58 469.72 532.218 468.141 532.218 466.36C532.218 464.557 532.591 462.973 533.338 461.608C534.084 460.232 535.114 459.16 536.426 458.392C537.738 457.624 539.247 457.24 540.954 457.24C542.692 457.24 544.218 457.629 545.53 458.408C546.852 459.187 547.882 460.264 548.618 461.64C549.354 463.005 549.722 464.579 549.722 466.36C549.722 468.152 549.348 469.736 548.602 471.112C547.866 472.477 546.836 473.549 545.514 474.328C544.202 475.096 542.682 475.48 540.954 475.48ZM540.954 471.416C542.351 471.416 543.391 470.947 544.074 470.008C544.767 469.059 545.114 467.843 545.114 466.36C545.114 464.824 544.762 463.597 544.058 462.68C543.364 461.763 542.33 461.304 540.954 461.304C540.004 461.304 539.226 461.517 538.618 461.944C538.01 462.371 537.556 462.963 537.258 463.72C536.97 464.477 536.826 465.357 536.826 466.36C536.826 467.907 537.172 469.139 537.866 470.056C538.57 470.963 539.599 471.416 540.954 471.416ZM574.04 475V464.792C574.04 463.651 573.768 462.765 573.224 462.136C572.691 461.496 571.949 461.176 571 461.176C570.392 461.176 569.864 461.32 569.416 461.608C568.968 461.885 568.616 462.28 568.36 462.792C568.115 463.293 567.992 463.875 567.992 464.536L566.168 463.32C566.168 462.136 566.445 461.091 567 460.184C567.565 459.277 568.317 458.573 569.256 458.072C570.205 457.56 571.256 457.304 572.408 457.304C574.381 457.304 575.869 457.891 576.872 459.064C577.885 460.227 578.392 461.752 578.392 463.64V475H574.04ZM553.208 475V457.72H557.048V463.448H557.592V475H553.208ZM563.64 475V464.792C563.64 463.651 563.368 462.765 562.824 462.136C562.291 461.496 561.549 461.176 560.6 461.176C559.693 461.176 558.963 461.491 558.408 462.12C557.864 462.739 557.592 463.544 557.592 464.536L555.768 463.256C555.768 462.125 556.051 461.112 556.616 460.216C557.181 459.32 557.939 458.611 558.888 458.088C559.848 457.565 560.92 457.304 562.104 457.304C563.459 457.304 564.568 457.592 565.432 458.168C566.307 458.744 566.952 459.512 567.368 460.472C567.784 461.432 567.992 462.488 567.992 463.64V475H563.64ZM591.033 475.48C589.315 475.48 587.881 475.08 586.729 474.28C585.577 473.48 584.707 472.392 584.121 471.016C583.545 469.64 583.257 468.088 583.257 466.36C583.257 464.632 583.545 463.08 584.121 461.704C584.697 460.328 585.545 459.24 586.665 458.44C587.785 457.64 589.166 457.24 590.809 457.24C592.462 457.24 593.902 457.635 595.129 458.424C596.355 459.213 597.305 460.296 597.977 461.672C598.659 463.037 599.001 464.6 599.001 466.36C599.001 468.088 598.665 469.64 597.993 471.016C597.331 472.392 596.403 473.48 595.209 474.28C594.014 475.08 592.622 475.48 591.033 475.48ZM582.521 482.68V457.72H586.361V469.56H586.905V482.68H582.521ZM590.329 471.608C591.267 471.608 592.035 471.373 592.633 470.904C593.23 470.435 593.673 469.805 593.961 469.016C594.249 468.216 594.393 467.331 594.393 466.36C594.393 465.4 594.243 464.525 593.945 463.736C593.646 462.936 593.182 462.301 592.553 461.832C591.934 461.352 591.139 461.112 590.169 461.112C589.262 461.112 588.526 461.331 587.961 461.768C587.406 462.205 587.001 462.819 586.745 463.608C586.489 464.397 586.361 465.315 586.361 466.36C586.361 467.405 586.489 468.323 586.745 469.112C587.001 469.901 587.417 470.515 587.993 470.952C588.579 471.389 589.358 471.608 590.329 471.608ZM610.297 475.48C608.559 475.48 607.033 475.091 605.721 474.312C604.409 473.533 603.385 472.461 602.649 471.096C601.924 469.72 601.561 468.141 601.561 466.36C601.561 464.557 601.935 462.973 602.681 461.608C603.428 460.232 604.457 459.16 605.769 458.392C607.081 457.624 608.591 457.24 610.297 457.24C612.036 457.24 613.561 457.629 614.873 458.408C616.196 459.187 617.225 460.264 617.961 461.64C618.697 463.005 619.065 464.579 619.065 466.36C619.065 468.152 618.692 469.736 617.945 471.112C617.209 472.477 616.18 473.549 614.857 474.328C613.545 475.096 612.025 475.48 610.297 475.48ZM610.297 471.416C611.695 471.416 612.735 470.947 613.417 470.008C614.111 469.059 614.457 467.843 614.457 466.36C614.457 464.824 614.105 463.597 613.401 462.68C612.708 461.763 611.673 461.304 610.297 461.304C609.348 461.304 608.569 461.517 607.961 461.944C607.353 462.371 606.9 462.963 606.601 463.72C606.313 464.477 606.169 465.357 606.169 466.36C606.169 467.907 606.516 469.139 607.209 470.056C607.913 470.963 608.943 471.416 610.297 471.416ZM628.867 475.48C626.691 475.48 624.931 474.989 623.587 474.008C622.254 473.016 621.443 471.619 621.155 469.816L625.603 469.144C625.784 469.955 626.184 470.589 626.803 471.048C627.432 471.507 628.227 471.736 629.187 471.736C629.976 471.736 630.584 471.587 631.011 471.288C631.438 470.979 631.651 470.552 631.651 470.008C631.651 469.667 631.566 469.395 631.395 469.192C631.224 468.979 630.84 468.771 630.243 468.568C629.656 468.365 628.739 468.099 627.491 467.768C626.083 467.405 624.958 467 624.115 466.552C623.272 466.104 622.664 465.571 622.291 464.952C621.918 464.323 621.731 463.565 621.731 462.68C621.731 461.571 622.014 460.611 622.579 459.8C623.144 458.979 623.939 458.349 624.963 457.912C625.998 457.464 627.214 457.24 628.611 457.24C629.966 457.24 631.166 457.448 632.211 457.864C633.256 458.28 634.099 458.872 634.739 459.64C635.39 460.408 635.79 461.315 635.939 462.36L631.491 463.16C631.416 462.52 631.139 462.013 630.659 461.64C630.179 461.267 629.528 461.048 628.707 460.984C627.907 460.931 627.262 461.037 626.771 461.304C626.291 461.571 626.051 461.955 626.051 462.456C626.051 462.755 626.152 463.005 626.355 463.208C626.568 463.411 627 463.619 627.651 463.832C628.312 464.045 629.315 464.323 630.659 464.664C631.971 465.005 633.022 465.405 633.811 465.864C634.611 466.312 635.192 466.856 635.555 467.496C635.918 468.125 636.099 468.888 636.099 469.784C636.099 471.555 635.459 472.947 634.179 473.96C632.899 474.973 631.128 475.48 628.867 475.48ZM644.415 475.48C643.178 475.48 642.127 475.245 641.263 474.776C640.41 474.296 639.759 473.661 639.311 472.872C638.874 472.072 638.655 471.192 638.655 470.232C638.655 469.432 638.778 468.701 639.023 468.04C639.268 467.379 639.663 466.797 640.207 466.296C640.762 465.784 641.503 465.357 642.431 465.016C643.071 464.781 643.834 464.573 644.719 464.392C645.604 464.211 646.607 464.04 647.727 463.88C648.847 463.709 650.079 463.523 651.423 463.32L649.855 464.184C649.855 463.16 649.61 462.408 649.119 461.928C648.628 461.448 647.807 461.208 646.655 461.208C646.015 461.208 645.348 461.363 644.655 461.672C643.962 461.981 643.476 462.531 643.199 463.32L639.263 462.072C639.7 460.643 640.522 459.48 641.727 458.584C642.932 457.688 644.575 457.24 646.655 457.24C648.18 457.24 649.535 457.475 650.719 457.944C651.903 458.413 652.799 459.224 653.407 460.376C653.748 461.016 653.951 461.656 654.015 462.296C654.079 462.936 654.111 463.651 654.111 464.44V475H650.303V471.448L650.847 472.184C650.004 473.347 649.092 474.189 648.111 474.712C647.14 475.224 645.908 475.48 644.415 475.48ZM645.343 472.056C646.143 472.056 646.815 471.917 647.359 471.64C647.914 471.352 648.351 471.027 648.671 470.664C649.002 470.301 649.226 469.997 649.343 469.752C649.567 469.283 649.695 468.739 649.727 468.12C649.77 467.491 649.791 466.968 649.791 466.552L651.071 466.872C649.78 467.085 648.735 467.267 647.935 467.416C647.135 467.555 646.49 467.683 645.999 467.8C645.508 467.917 645.076 468.045 644.703 468.184C644.276 468.355 643.93 468.541 643.663 468.744C643.407 468.936 643.215 469.149 643.087 469.384C642.97 469.619 642.911 469.88 642.911 470.168C642.911 470.563 643.007 470.904 643.199 471.192C643.402 471.469 643.684 471.683 644.047 471.832C644.41 471.981 644.842 472.056 645.343 472.056ZM666.751 475.48C665.034 475.48 663.599 475.08 662.447 474.28C661.295 473.48 660.426 472.392 659.839 471.016C659.263 469.64 658.975 468.088 658.975 466.36C658.975 464.632 659.263 463.08 659.839 461.704C660.415 460.328 661.263 459.24 662.383 458.44C663.503 457.64 664.885 457.24 666.527 457.24C668.181 457.24 669.621 457.635 670.847 458.424C672.074 459.213 673.023 460.296 673.695 461.672C674.378 463.037 674.719 464.6 674.719 466.36C674.719 468.088 674.383 469.64 673.711 471.016C673.05 472.392 672.122 473.48 670.927 474.28C669.733 475.08 668.341 475.48 666.751 475.48ZM658.239 475V451.96H662.623V463.16H662.079V475H658.239ZM666.047 471.608C666.986 471.608 667.754 471.373 668.351 470.904C668.949 470.435 669.391 469.805 669.679 469.016C669.967 468.216 670.111 467.331 670.111 466.36C670.111 465.4 669.962 464.525 669.663 463.736C669.365 462.936 668.901 462.301 668.271 461.832C667.653 461.352 666.858 461.112 665.887 461.112C664.981 461.112 664.245 461.331 663.679 461.768C663.125 462.205 662.719 462.819 662.463 463.608C662.207 464.397 662.079 465.315 662.079 466.36C662.079 467.405 662.207 468.323 662.463 469.112C662.719 469.901 663.135 470.515 663.711 470.952C664.298 471.389 665.077 471.608 666.047 471.608ZM678.56 475V451.48H682.912V475H678.56ZM695.741 475.48C693.97 475.48 692.407 475.101 691.053 474.344C689.709 473.576 688.653 472.525 687.885 471.192C687.127 469.848 686.749 468.312 686.749 466.584C686.749 464.696 687.122 463.053 687.869 461.656C688.615 460.259 689.645 459.176 690.957 458.408C692.269 457.629 693.778 457.24 695.485 457.24C697.298 457.24 698.839 457.667 700.109 458.52C701.378 459.373 702.317 460.573 702.925 462.12C703.533 463.667 703.746 465.485 703.565 467.576H699.261V465.976C699.261 464.216 698.978 462.952 698.413 462.184C697.858 461.405 696.946 461.016 695.677 461.016C694.194 461.016 693.101 461.469 692.397 462.376C691.703 463.272 691.357 464.6 691.357 466.36C691.357 467.971 691.703 469.219 692.397 470.104C693.101 470.979 694.13 471.416 695.485 471.416C696.338 471.416 697.069 471.229 697.677 470.856C698.285 470.483 698.749 469.944 699.069 469.24L703.421 470.488C702.77 472.067 701.741 473.293 700.333 474.168C698.935 475.043 697.405 475.48 695.741 475.48ZM690.013 467.576V464.344H701.469V467.576H690.013ZM559.006 513V489.96H563.358V499.432H573.662V489.96H578.014V513H573.662V503.496H563.358V513H559.006ZM590.282 513.48C588.543 513.48 587.018 513.091 585.706 512.312C584.394 511.533 583.37 510.461 582.634 509.096C581.908 507.72 581.546 506.141 581.546 504.36C581.546 502.557 581.919 500.973 582.666 499.608C583.412 498.232 584.442 497.16 585.754 496.392C587.066 495.624 588.575 495.24 590.282 495.24C592.02 495.24 593.546 495.629 594.858 496.408C596.18 497.187 597.21 498.264 597.946 499.64C598.682 501.005 599.05 502.579 599.05 504.36C599.05 506.152 598.676 507.736 597.93 509.112C597.194 510.477 596.164 511.549 594.842 512.328C593.53 513.096 592.01 513.48 590.282 513.48ZM590.282 509.416C591.679 509.416 592.719 508.947 593.402 508.008C594.095 507.059 594.442 505.843 594.442 504.36C594.442 502.824 594.09 501.597 593.386 500.68C592.692 499.763 591.658 499.304 590.282 499.304C589.332 499.304 588.554 499.517 587.946 499.944C587.338 500.371 586.884 500.963 586.586 501.72C586.298 502.477 586.154 503.357 586.154 504.36C586.154 505.907 586.5 507.139 587.194 508.056C587.898 508.963 588.927 509.416 590.282 509.416ZM610.344 513.48C608.605 513.48 607.08 513.091 605.768 512.312C604.456 511.533 603.432 510.461 602.696 509.096C601.971 507.72 601.608 506.141 601.608 504.36C601.608 502.557 601.981 500.973 602.728 499.608C603.475 498.232 604.504 497.16 605.816 496.392C607.128 495.624 608.637 495.24 610.344 495.24C612.083 495.24 613.608 495.629 614.92 496.408C616.243 497.187 617.272 498.264 618.008 499.64C618.744 501.005 619.112 502.579 619.112 504.36C619.112 506.152 618.739 507.736 617.992 509.112C617.256 510.477 616.227 511.549 614.904 512.328C613.592 513.096 612.072 513.48 610.344 513.48ZM610.344 509.416C611.741 509.416 612.781 508.947 613.464 508.008C614.157 507.059 614.504 505.843 614.504 504.36C614.504 502.824 614.152 501.597 613.448 500.68C612.755 499.763 611.72 499.304 610.344 499.304C609.395 499.304 608.616 499.517 608.008 499.944C607.4 500.371 606.947 500.963 606.648 501.72C606.36 502.477 606.216 503.357 606.216 504.36C606.216 505.907 606.563 507.139 607.256 508.056C607.96 508.963 608.989 509.416 610.344 509.416ZM622.599 513L622.631 489.96H627.047V504.04L632.903 495.72H638.279L632.039 504.36L638.695 513H633.031L627.047 504.68V513H622.599ZM646.726 513.48C644.55 513.48 642.79 512.989 641.446 512.008C640.113 511.016 639.302 509.619 639.014 507.816L643.462 507.144C643.644 507.955 644.044 508.589 644.662 509.048C645.292 509.507 646.086 509.736 647.046 509.736C647.836 509.736 648.444 509.587 648.87 509.288C649.297 508.979 649.51 508.552 649.51 508.008C649.51 507.667 649.425 507.395 649.254 507.192C649.084 506.979 648.7 506.771 648.102 506.568C647.516 506.365 646.598 506.099 645.35 505.768C643.942 505.405 642.817 505 641.974 504.552C641.132 504.104 640.524 503.571 640.15 502.952C639.777 502.323 639.59 501.565 639.59 500.68C639.59 499.571 639.873 498.611 640.438 497.8C641.004 496.979 641.798 496.349 642.822 495.912C643.857 495.464 645.073 495.24 646.47 495.24C647.825 495.24 649.025 495.448 650.07 495.864C651.116 496.28 651.958 496.872 652.598 497.64C653.249 498.408 653.649 499.315 653.798 500.36L649.35 501.16C649.276 500.52 648.998 500.013 648.518 499.64C648.038 499.267 647.388 499.048 646.566 498.984C645.766 498.931 645.121 499.037 644.63 499.304C644.15 499.571 643.91 499.955 643.91 500.456C643.91 500.755 644.012 501.005 644.214 501.208C644.428 501.411 644.86 501.619 645.51 501.832C646.172 502.045 647.174 502.323 648.518 502.664C649.83 503.005 650.881 503.405 651.67 503.864C652.47 504.312 653.052 504.856 653.414 505.496C653.777 506.125 653.958 506.888 653.958 507.784C653.958 509.555 653.318 510.947 652.038 511.96C650.758 512.973 648.988 513.48 646.726 513.48Z" fill="#071449"/>
<path d="M605.863 306L562 331L605.863 355.999L649.726 331L605.863 306Z" fill="#F0EEFD" stroke="#DCD6FE" stroke-width="4" stroke-linecap="round" stroke-linejoin="round"/>
<path d="M649.726 380.999L605.636 405.999V355.999L649.726 331V380.999Z" fill="#F0EEFD" stroke="#DCD6FE" stroke-width="4" stroke-linejoin="round"/>
<path d="M605.636 405.999L562 380.999V331L605.636 355.999V405.999Z" fill="#F1EFFE" stroke="#DCD6FE" stroke-width="4" stroke-linejoin="round"/>
<g filter="url(#filter2_d_282_5263)">
<rect x="869" y="361" width="171" height="167" rx="20" fill="#FEFEFD"/>
</g>
<path d="M940.967 413.531C941.681 413.432 942.487 413.593 943.1 413.829C944.357 414.313 945.368 415.339 945.892 416.553C946.269 417.427 946.35 418.345 946.387 419.199C946.503 421.903 945.717 424.776 944.594 427.499C943.469 430.227 941.989 432.845 940.684 435.043C939.902 436.359 939.134 437.697 938.218 438.976C937.096 440.541 935.981 442.168 934.821 443.729C933.144 445.989 931.336 448.07 929.387 450.096C928.673 450.838 927.006 452.461 925.279 453.937C924.416 454.674 923.53 455.382 922.735 455.927C922.338 456.199 921.956 456.436 921.606 456.615C921.264 456.791 920.922 456.928 920.61 456.977H920.609C920.33 457.019 919.967 457.004 919.65 456.805L919.518 456.708C919.169 456.413 918.917 455.976 918.884 455.487C918.846 454.938 919.056 454.545 919.367 454.199H919.368C919.706 453.824 920.165 453.459 920.474 453.176C921.467 452.264 922.448 451.418 923.404 450.505C925.958 448.067 928.361 445.477 930.599 442.749L930.601 442.746C930.786 442.523 930.962 442.286 931.143 442.038C931.321 441.794 931.508 441.535 931.703 441.284C933.679 438.751 936.584 434.678 938.909 430.421C940.072 428.292 941.083 426.128 941.761 424.095C942.441 422.055 942.773 420.183 942.614 418.625C942.567 418.167 942.417 417.823 942.12 417.596C941.873 417.407 941.568 417.342 941.212 417.393C940.059 417.556 938.783 418.126 937.454 418.987C936.13 419.845 934.782 420.972 933.486 422.207C930.895 424.678 928.549 427.553 927.063 429.502C925.443 431.628 923.685 434.198 922.273 436.488C921.856 437.165 921.522 437.8 921.097 438.515L921.096 438.518C919.556 441.068 918.126 443.682 916.812 446.355L916.813 446.356C916.633 446.729 916.476 447.097 916.298 447.49C913.891 452.817 911.55 458.206 910.681 463.942C910.471 465.325 910.268 466.962 910.49 468.403C910.709 469.824 911.326 470.976 912.708 471.541C913.38 471.816 914.211 471.791 915.037 471.677L915.043 471.676C916.591 471.483 918.504 470.747 920.397 469.814C922.28 468.887 924.102 467.785 925.457 466.896C926.776 466.03 928.453 464.933 930.14 464.438L930.339 464.388C931.317 464.192 932.068 464.727 932.659 465.221C933.002 465.507 933.277 465.766 933.604 466.014C933.915 466.25 934.219 466.43 934.542 466.525H934.543C936.311 467.038 938.335 467.222 940.209 467.183H940.21C943.22 467.12 946.215 466.721 949.223 466.242C952.22 465.765 955.25 465.203 958.277 464.825C958.516 464.795 959 464.692 959.642 464.552C960.268 464.415 961.019 464.251 961.756 464.113C962.489 463.976 963.228 463.863 963.829 463.831C964.128 463.815 964.415 463.818 964.659 463.857C964.851 463.888 965.109 463.954 965.301 464.134L965.378 464.219L965.462 464.323L965.482 464.456C965.498 464.559 965.513 464.699 965.48 464.853C965.454 464.975 965.403 465.078 965.343 465.168L965.279 465.254C964.778 465.876 963.972 466.155 963.266 466.329C962.903 466.418 962.529 466.488 962.199 466.553C961.944 466.603 961.716 466.65 961.518 466.702L961.329 466.757C961.001 466.862 960.679 466.991 960.334 467.129C959.995 467.264 959.635 467.407 959.262 467.521C953.135 469.39 946.151 471.022 939.664 470.991C938.75 470.987 937.794 470.984 936.848 470.874C935.506 470.719 933.318 470.144 932.101 469.515V469.514C931.963 469.442 931.775 469.315 931.597 469.189C931.401 469.052 931.201 468.909 930.99 468.763C930.783 468.619 930.592 468.493 930.438 468.406C930.385 468.376 930.341 468.356 930.308 468.341C930.279 468.353 930.243 468.37 930.201 468.391C930.076 468.453 929.912 468.543 929.718 468.656C929.331 468.882 928.847 469.187 928.351 469.506C927.375 470.133 926.32 470.84 925.953 471.068C922.991 472.915 919.284 474.997 915.637 475.418C913.645 475.648 911.18 475.452 909.448 474.063C907.609 472.588 906.784 470.142 906.563 467.984C906.288 465.288 906.964 462.376 907.605 459.884C909.562 452.28 912.969 445.076 916.818 438.3C919.464 433.642 922.378 429.084 925.78 424.908C927.268 423.082 929.16 420.929 931.229 418.993C933.292 417.063 935.559 415.323 937.8 414.352L937.804 414.35C938.806 413.926 939.866 413.652 940.948 413.533V413.532C940.953 413.532 940.957 413.532 940.962 413.531C940.964 413.531 940.965 413.53 940.967 413.53V413.531Z" fill="#9791F5" stroke="#9791F5"/>
<path d="M954.481 438.5C955.19 438.492 955.813 438.818 956.278 439.26L956.468 439.456L956.469 439.457C956.853 439.892 957.134 440.411 957.291 440.974C957.518 441.786 957.545 442.99 957.502 444.134C957.458 445.296 957.338 446.463 957.241 447.238C957.188 447.665 957.106 448.124 957.039 448.551C957.028 448.621 957.019 448.691 957.009 448.76C957.12 448.652 957.237 448.536 957.356 448.414C957.793 447.969 958.28 447.438 958.644 447.144C959.643 446.334 960.631 445.403 961.707 444.495C962.745 443.619 963.826 442.801 964.866 442.378C965.928 441.946 967.038 441.895 967.995 442.703C968.895 443.464 969.559 444.911 970.012 447.172H970.011C970.038 447.282 970.077 447.47 970.115 447.642C970.162 447.85 970.219 448.083 970.287 448.298C970.354 448.509 970.423 448.668 970.484 448.764C971.447 448.565 972.636 448.102 973.64 447.771L973.643 447.77C980.724 445.485 988.124 444.422 995.542 444.623H995.541C997.284 444.658 999.101 444.778 1000.86 444.985L1001.61 445.079L1001.61 445.081L1001.62 445.082C1001.85 445.121 1002.16 445.2 1002.45 445.331C1002.72 445.455 1003.06 445.662 1003.24 446.004H1003.24C1003.56 446.619 1003.59 447.338 1003.31 447.91C1003.01 448.51 1002.39 448.897 1001.59 448.825C1001.12 448.784 1000.64 448.689 1000.24 448.634V448.633C999.523 448.536 998.798 448.466 998.072 448.421V448.42C996.467 448.348 994.86 448.336 993.255 448.383L993.25 448.384C989.822 448.449 986.393 448.895 982.979 449.446C979.894 449.944 976.773 450.889 973.757 451.846C972.282 452.313 971.127 453.119 969.197 452.505L969.169 452.496L969.143 452.484C968.065 451.998 967.425 451.13 966.99 450.193C966.564 449.275 966.307 448.217 966.047 447.342V447.341C965.972 447.089 965.938 446.926 965.861 446.687C965.834 446.6 965.805 446.525 965.778 446.46C965.703 446.494 965.612 446.542 965.512 446.607C965.24 446.784 964.996 446.994 964.809 447.139C964.145 447.651 963.498 448.152 962.894 448.698C962.584 448.978 962.092 449.453 961.488 450.027C960.889 450.596 960.19 451.252 959.483 451.875C958.779 452.496 958.057 453.093 957.413 453.54C957.091 453.763 956.778 453.956 956.49 454.096C956.247 454.214 955.986 454.313 955.732 454.341L955.624 454.349C954.939 454.367 954.288 454.019 953.852 453.595C953.354 453.111 953.107 452.448 952.997 451.758C952.886 451.065 952.904 450.296 952.977 449.542C953.049 448.785 953.179 448.02 953.303 447.332C953.429 446.634 953.545 446.033 953.602 445.565C953.697 444.773 953.724 443.987 953.715 443.186C953.302 443.508 952.853 443.928 952.378 444.423C951.62 445.213 950.823 446.164 950.03 447.153C948.466 449.106 946.889 451.245 945.742 452.405C945.342 452.81 944.91 453.309 944.428 453.852C943.952 454.388 943.434 454.959 942.885 455.483C941.804 456.515 940.509 457.451 939.04 457.498C938.068 457.529 937.324 457.161 936.789 456.547C936.273 455.954 935.972 455.157 935.79 454.345C935.428 452.723 935.5 450.817 935.519 449.743L935.521 449.556L935.647 449.416C936.103 448.912 936.475 448.553 937.197 448.299L937.33 448.252L937.469 448.281C938.385 448.479 938.955 448.894 939.231 449.558C939.477 450.148 939.45 450.872 939.426 451.551C939.406 452.097 939.41 452.618 939.46 453.146V453.147C939.462 453.169 939.464 453.197 939.466 453.225C939.489 453.209 939.514 453.193 939.539 453.175C939.765 453.009 940.044 452.763 940.362 452.452C940.998 451.833 941.753 450.994 942.509 450.111C944.027 448.338 945.483 446.466 945.969 445.88C947.194 444.402 948.441 442.977 949.775 441.594C950.435 440.91 951.136 440.148 951.967 439.548C952.681 439.032 953.462 438.581 954.447 438.502L954.464 438.5H954.481Z" fill="#9791F5" stroke="#9791F5"/>
<path d="M972.676 462.535C973.116 462.438 973.582 462.543 973.939 462.83L973.938 462.831C974.366 463.174 974.573 463.724 974.477 464.264C974.38 464.803 973.997 465.247 973.478 465.422H973.477C972.747 465.666 971.96 465.318 971.642 464.635L971.584 464.494C971.313 463.719 971.717 462.87 972.488 462.59L972.676 462.535Z" fill="#9791F5" stroke="#9791F5"/>
<g filter="url(#filter3_d_282_5263)">
<rect x="54" y="708" width="381" height="86" rx="20" fill="#FEFEFD"/>
</g>
<g clip-path="url(#clip0_282_5263)">
<path d="M349.965 740.16L359.215 749.41C359.504 749.699 359.666 750.091 359.666 750.5C359.666 750.909 359.504 751.301 359.215 751.59L349.965 760.84C349.823 760.987 349.653 761.105 349.464 761.185C349.276 761.266 349.074 761.309 348.869 761.311C348.665 761.312 348.462 761.273 348.272 761.196C348.083 761.118 347.911 761.004 347.766 760.859C347.621 760.714 347.507 760.542 347.429 760.353C347.352 760.163 347.313 759.96 347.314 759.756C347.316 759.551 347.359 759.349 347.439 759.16C347.52 758.972 347.638 758.802 347.785 758.66L355.945 750.5L347.785 742.34C347.504 742.049 347.349 741.66 347.352 741.256C347.356 740.851 347.518 740.465 347.804 740.179C348.09 739.893 348.476 739.731 348.88 739.727C349.285 739.724 349.674 739.879 349.965 740.16Z" fill="#73819D"/>
</g>
<g clip-path="url(#clip1_282_5263)">
<path d="M141.125 741.25L131.875 750.5L141.125 759.75" stroke="#73819D" stroke-width="2" stroke-linecap="round" stroke-linejoin="round"/>
</g>
<g clip-path="url(#clip2_282_5263)">
<path d="M384.25 741.25L393.5 750.5L384.25 759.75" stroke="#73819D" stroke-width="2" stroke-linecap="round" stroke-linejoin="round"/>
<path d="M401.208 739.708V759.75" stroke="#73819D" stroke-width="2" stroke-linecap="round" stroke-linejoin="round"/>
</g>
<g clip-path="url(#clip3_282_5263)">
<path d="M87.7916 741.25V759.75" stroke="#73819D" stroke-width="2" stroke-linecap="round" stroke-linejoin="round"/>
<path d="M104.75 741.25L95.5 750.5L104.75 759.75" stroke="#73819D" stroke-width="2" stroke-linecap="round" stroke-linejoin="round"/>
</g>
<rect x="177" y="730" width="135" height="42" rx="21" fill="#EFECFD" fill-opacity="0.6"/>
<rect x="177.5" y="730.5" width="134" height="41" rx="20.5" stroke="black" stroke-opacity="0.04"/>
<path d="M219.499 758V747.704L217.069 749.198V746.498L219.499 745.04H222.001V758H219.499ZM225.063 757.982V755.858L230.499 751.034C230.907 750.674 231.195 750.335 231.363 750.017C231.531 749.699 231.615 749.402 231.615 749.126C231.615 748.73 231.534 748.379 231.372 748.073C231.21 747.761 230.982 747.518 230.688 747.344C230.394 747.164 230.049 747.074 229.653 747.074C229.239 747.074 228.873 747.17 228.555 747.362C228.243 747.548 228 747.797 227.826 748.109C227.652 748.415 227.571 748.748 227.583 749.108H225.063C225.063 748.22 225.258 747.452 225.648 746.804C226.038 746.156 226.581 745.655 227.277 745.301C227.973 744.947 228.783 744.77 229.707 744.77C230.553 744.77 231.309 744.956 231.975 745.328C232.647 745.694 233.175 746.207 233.559 746.867C233.943 747.527 234.135 748.292 234.135 749.162C234.135 749.804 234.045 750.338 233.865 750.764C233.685 751.184 233.418 751.574 233.064 751.934C232.71 752.288 232.275 752.69 231.759 753.14L228.249 756.218L228.051 755.678H234.135V757.982H225.063Z" fill="#545E73"/>
<path d="M243.166 745.04H245.614L242.158 758H239.71L243.166 745.04ZM255.342 758.234C254.694 758.234 254.076 758.105 253.488 757.847C252.9 757.583 252.387 757.214 251.949 756.74C251.517 756.266 251.208 755.708 251.022 755.066L253.398 754.436C253.524 754.91 253.77 755.279 254.136 755.543C254.508 755.801 254.91 755.93 255.342 755.93C255.714 755.93 256.053 755.84 256.359 755.66C256.671 755.48 256.917 755.237 257.097 754.931C257.283 754.625 257.376 754.286 257.376 753.914C257.376 753.356 257.184 752.879 256.8 752.483C256.422 752.081 255.936 751.88 255.342 751.88C255.162 751.88 254.988 751.907 254.82 751.961C254.652 752.009 254.49 752.078 254.334 752.168L253.236 750.242L257.358 746.822L257.538 747.344H251.526V745.04H259.626V747.344L256.422 750.44L256.404 749.756C257.148 749.87 257.775 750.131 258.285 750.539C258.801 750.941 259.191 751.439 259.455 752.033C259.725 752.621 259.86 753.248 259.86 753.914C259.86 754.73 259.653 755.465 259.239 756.119C258.825 756.767 258.276 757.283 257.592 757.667C256.908 758.045 256.158 758.234 255.342 758.234ZM267.471 758V755.984H261.837V753.698L265.923 745.04H268.731L264.645 753.698H267.471V750.458H269.955V753.698H271.107V755.984H269.955V758H267.471Z" fill="#73819D"/>
<g filter="url(#filter4_d_282_5263)">
<rect x="709" y="55" width="292" height="82" rx="20" fill="#FEFEFD"/>
</g>
<rect x="789" y="76" width="131" height="41" rx="20.5" fill="#EFECFD" fill-opacity="0.6"/>
<rect x="789.5" y="76.5" width="130" height="40" rx="20" stroke="black" stroke-opacity="0.04"/>
<path d="M834.191 103V92.704L831.761 94.198V91.498L834.191 90.04H836.693V103H834.191ZM844.92 103.27C843.96 103.27 843.12 103.069 842.4 102.667C841.68 102.265 841.119 101.704 840.717 100.984C840.315 100.264 840.114 99.424 840.114 98.464V94.576C840.114 93.616 840.315 92.776 840.717 92.056C841.119 91.336 841.68 90.775 842.4 90.373C843.12 89.971 843.96 89.77 844.92 89.77C845.88 89.77 846.72 89.971 847.44 90.373C848.16 90.775 848.721 91.336 849.123 92.056C849.525 92.776 849.726 93.616 849.726 94.576V98.464C849.726 99.424 849.525 100.264 849.123 100.984C848.721 101.704 848.16 102.265 847.44 102.667C846.72 103.069 845.88 103.27 844.92 103.27ZM844.92 100.948C845.352 100.948 845.742 100.846 846.09 100.642C846.438 100.438 846.714 100.162 846.918 99.814C847.122 99.466 847.224 99.076 847.224 98.644V94.378C847.224 93.946 847.122 93.556 846.918 93.208C846.714 92.86 846.438 92.584 846.09 92.38C845.742 92.176 845.352 92.074 844.92 92.074C844.488 92.074 844.098 92.176 843.75 92.38C843.402 92.584 843.126 92.86 842.922 93.208C842.718 93.556 842.616 93.946 842.616 94.378V98.644C842.616 99.076 842.718 99.466 842.922 99.814C843.126 100.162 843.402 100.438 843.75 100.642C844.098 100.846 844.488 100.948 844.92 100.948ZM857.049 103.27C856.089 103.27 855.249 103.069 854.529 102.667C853.809 102.265 853.248 101.704 852.846 100.984C852.444 100.264 852.243 99.424 852.243 98.464V94.576C852.243 93.616 852.444 92.776 852.846 92.056C853.248 91.336 853.809 90.775 854.529 90.373C855.249 89.971 856.089 89.77 857.049 89.77C858.009 89.77 858.849 89.971 859.569 90.373C860.289 90.775 860.85 91.336 861.252 92.056C861.654 92.776 861.855 93.616 861.855 94.576V98.464C861.855 99.424 861.654 100.264 861.252 100.984C860.85 101.704 860.289 102.265 859.569 102.667C858.849 103.069 858.009 103.27 857.049 103.27ZM857.049 100.948C857.481 100.948 857.871 100.846 858.219 100.642C858.567 100.438 858.843 100.162 859.047 99.814C859.251 99.466 859.353 99.076 859.353 98.644V94.378C859.353 93.946 859.251 93.556 859.047 93.208C858.843 92.86 858.567 92.584 858.219 92.38C857.871 92.176 857.481 92.074 857.049 92.074C856.617 92.074 856.227 92.176 855.879 92.38C855.531 92.584 855.255 92.86 855.051 93.208C854.847 93.556 854.745 93.946 854.745 94.378V98.644C854.745 99.076 854.847 99.466 855.051 99.814C855.255 100.162 855.531 100.438 855.879 100.642C856.227 100.846 856.617 100.948 857.049 100.948ZM866.352 103L864.732 101.38L876.072 90.04L877.692 91.678L866.352 103ZM874.992 103.27C874.398 103.27 873.855 103.126 873.363 102.838C872.877 102.544 872.487 102.154 872.193 101.668C871.899 101.176 871.752 100.63 871.752 100.03C871.752 99.442 871.902 98.902 872.202 98.41C872.502 97.918 872.898 97.525 873.39 97.231C873.882 96.937 874.416 96.79 874.992 96.79C875.586 96.79 876.129 96.937 876.621 97.231C877.113 97.519 877.503 97.909 877.791 98.401C878.085 98.887 878.232 99.43 878.232 100.03C878.232 100.63 878.085 101.176 877.791 101.668C877.503 102.154 877.113 102.544 876.621 102.838C876.129 103.126 875.586 103.27 874.992 103.27ZM874.992 101.2C875.202 101.2 875.394 101.146 875.568 101.038C875.748 100.93 875.892 100.789 876 100.615C876.108 100.435 876.162 100.24 876.162 100.03C876.162 99.82 876.108 99.628 876 99.454C875.892 99.274 875.748 99.13 875.568 99.022C875.394 98.914 875.202 98.86 874.992 98.86C874.782 98.86 874.587 98.914 874.407 99.022C874.233 99.13 874.092 99.274 873.984 99.454C873.876 99.628 873.822 99.82 873.822 100.03C873.822 100.24 873.876 100.435 873.984 100.615C874.092 100.789 874.233 100.93 874.407 101.038C874.587 101.146 874.782 101.2 874.992 101.2ZM867.432 96.25C866.838 96.25 866.295 96.106 865.803 95.818C865.311 95.524 864.918 95.134 864.624 94.648C864.336 94.156 864.192 93.61 864.192 93.01C864.192 92.422 864.342 91.882 864.642 91.39C864.942 90.898 865.338 90.505 865.83 90.211C866.322 89.917 866.856 89.77 867.432 89.77C868.026 89.77 868.566 89.917 869.052 90.211C869.544 90.499 869.937 90.889 870.231 91.381C870.525 91.867 870.672 92.41 870.672 93.01C870.672 93.61 870.525 94.156 870.231 94.648C869.937 95.134 869.544 95.524 869.052 95.818C868.566 96.106 868.026 96.25 867.432 96.25ZM867.432 94.18C867.642 94.18 867.834 94.126 868.008 94.018C868.188 93.91 868.332 93.769 868.44 93.595C868.548 93.415 868.602 93.22 868.602 93.01C868.602 92.8 868.548 92.608 868.44 92.434C868.332 92.254 868.188 92.11 868.008 92.002C867.834 91.894 867.642 91.84 867.432 91.84C867.222 91.84 867.027 91.894 866.847 92.002C866.673 92.11 866.532 92.254 866.424 92.434C866.316 92.608 866.262 92.8 866.262 93.01C866.262 93.22 866.316 93.415 866.424 93.595C866.532 93.769 866.673 93.91 866.847 94.018C867.027 94.126 867.222 94.18 867.432 94.18Z" fill="#545E73"/>
<g clip-path="url(#clip4_282_5263)">
<path d="M964.5 85.7083V107.292" stroke="#73819D" stroke-width="2" stroke-linecap="round" stroke-linejoin="round"/>
<path d="M953.708 96.5H975.292" stroke="#73819D" stroke-width="2" stroke-linecap="round" stroke-linejoin="round"/>
</g>
<g clip-path="url(#clip5_282_5263)">
<path d="M735.708 96.5H757.292" stroke="#73819D" stroke-width="2" stroke-linecap="round" stroke-linejoin="round"/>
</g>
<defs>
<filter id="filter0_d_282_5263" x="9" y="240" width="173" height="399" filterUnits="userSpaceOnUse" color-interpolation-filters="sRGB">
<feFlood flood-opacity="0" result="BackgroundImageFix"/>
<feColorMatrix in="SourceAlpha" type="matrix" values="0 0 0 0 0 0 0 0 0 0 0 0 0 0 0 0 0 0 127 0" result="hardAlpha"/>
<feOffset/>
<feGaussianBlur stdDeviation="10"/>
<feComposite in2="hardAlpha" operator="out"/>
<feColorMatrix type="matrix" values="0 0 0 0 0.913725 0 0 0 0 0.92549 0 0 0 0 0.94902 0 0 0 1 0"/>
<feBlend mode="normal" in2="BackgroundImageFix" result="effect1_dropShadow_282_5263"/>
<feBlend mode="normal" in="SourceGraphic" in2="effect1_dropShadow_282_5263" result="shape"/>
</filter>
<filter id="filter1_d_282_5263" x="446" y="217" width="321" height="376" filterUnits="userSpaceOnUse" color-interpolation-filters="sRGB">
<feFlood flood-opacity="0" result="BackgroundImageFix"/>
<feColorMatrix in="SourceAlpha" type="matrix" values="0 0 0 0 0 0 0 0 0 0 0 0 0 0 0 0 0 0 127 0" result="hardAlpha"/>
<feOffset/>
<feGaussianBlur stdDeviation="10"/>
<feComposite in2="hardAlpha" operator="out"/>
<feColorMatrix type="matrix" values="0 0 0 0 0.913725 0 0 0 0 0.92549 0 0 0 0 0.94902 0 0 0 1 0"/>
<feBlend mode="normal" in2="BackgroundImageFix" result="effect1_dropShadow_282_5263"/>
<feBlend mode="normal" in="SourceGraphic" in2="effect1_dropShadow_282_5263" result="shape"/>
</filter>
<filter id="filter2_d_282_5263" x="849" y="341" width="211" height="207" filterUnits="userSpaceOnUse" color-interpolation-filters="sRGB">
<feFlood flood-opacity="0" result="BackgroundImageFix"/>
<feColorMatrix in="SourceAlpha" type="matrix" values="0 0 0 0 0 0 0 0 0 0 0 0 0 0 0 0 0 0 127 0" result="hardAlpha"/>
<feOffset/>
<feGaussianBlur stdDeviation="10"/>
<feComposite in2="hardAlpha" operator="out"/>
<feColorMatrix type="matrix" values="0 0 0 0 0.913725 0 0 0 0 0.92549 0 0 0 0 0.94902 0 0 0 1 0"/>
<feBlend mode="normal" in2="BackgroundImageFix" result="effect1_dropShadow_282_5263"/>
<feBlend mode="normal" in="SourceGraphic" in2="effect1_dropShadow_282_5263" result="shape"/>
</filter>
<filter id="filter3_d_282_5263" x="34" y="688" width="421" height="126" filterUnits="userSpaceOnUse" color-interpolation-filters="sRGB">
<feFlood flood-opacity="0" result="BackgroundImageFix"/>
<feColorMatrix in="SourceAlpha" type="matrix" values="0 0 0 0 0 0 0 0 0 0 0 0 0 0 0 0 0 0 127 0" result="hardAlpha"/>
<feOffset/>
<feGaussianBlur stdDeviation="10"/>
<feComposite in2="hardAlpha" operator="out"/>
<feColorMatrix type="matrix" values="0 0 0 0 0.913725 0 0 0 0 0.92549 0 0 0 0 0.94902 0 0 0 1 0"/>
<feBlend mode="normal" in2="BackgroundImageFix" result="effect1_dropShadow_282_5263"/>
<feBlend mode="normal" in="SourceGraphic" in2="effect1_dropShadow_282_5263" result="shape"/>
</filter>
<filter id="filter4_d_282_5263" x="689" y="35" width="332" height="122" filterUnits="userSpaceOnUse" color-interpolation-filters="sRGB">
<feFlood flood-opacity="0" result="BackgroundImageFix"/>
<feColorMatrix in="SourceAlpha" type="matrix" values="0 0 0 0 0 0 0 0 0 0 0 0 0 0 0 0 0 0 127 0" result="hardAlpha"/>
<feOffset/>
<feGaussianBlur stdDeviation="10"/>
<feComposite in2="hardAlpha" operator="out"/>
<feColorMatrix type="matrix" values="0 0 0 0 0.913725 0 0 0 0 0.92549 0 0 0 0 0.94902 0 0 0 1 0"/>
<feBlend mode="normal" in2="BackgroundImageFix" result="effect1_dropShadow_282_5263"/>
<feBlend mode="normal" in="SourceGraphic" in2="effect1_dropShadow_282_5263" result="shape"/>
</filter>
<clipPath id="clip0_282_5263">
<rect width="37" height="37" fill="white" transform="translate(335 732)"/>
</clipPath>
<clipPath id="clip1_282_5263">
<rect width="37" height="37" fill="white" transform="translate(118 732)"/>
</clipPath>
<clipPath id="clip2_282_5263">
<rect width="37" height="37" fill="white" transform="translate(375 732)"/>
</clipPath>
<clipPath id="clip3_282_5263">
<rect width="37" height="37" fill="white" transform="translate(77 732)"/>
</clipPath>
<clipPath id="clip4_282_5263">
<rect width="37" height="37" fill="white" transform="translate(946 78)"/>
</clipPath>
<clipPath id="clip5_282_5263">
<rect width="37" height="37" fill="white" transform="translate(728 78)"/>
</clipPath>
</defs>
</svg>
