<svg width="1110" height="870" viewBox="0 0 1110 870" fill="none" xmlns="http://www.w3.org/2000/svg">
<g filter="url(#filter0_d_284_5465)">
<g clip-path="url(#clip0_284_5465)">
<rect x="20" y="20" width="1070" height="830" rx="20" fill="white"/>
<g filter="url(#filter1_d_284_5465)">
<rect x="289.146" y="93.2539" width="800.854" height="786.862" fill="#F8F9FB"/>
<g filter="url(#filter2_d_284_5465)">
<rect x="20" y="93.2539" width="269.146" height="786.862" fill="#F8F9FB"/>
</g>
<g filter="url(#filter3_d_284_5465)">
<rect x="20" y="20" width="1070" height="73.3427" fill="#F8F9FB"/>
</g>
</g>
<rect x="71.6434" y="148.643" width="166.537" height="209.713" rx="6.16803" fill="white" stroke="#95C7FD" stroke-width="5.28689"/>
<rect x="69" y="406" width="171.824" height="215" rx="8.81148" fill="#ECEDEF"/>
<rect x="70" y="666" width="171.824" height="215" rx="8.81148" fill="#ECEDEF"/>
<rect x="354" y="146" width="672" height="754.169" rx="8.13559" fill="#FEFEFE"/>
<path d="M633.864 869.094V930.271C633.864 939.258 641.149 946.542 650.136 946.542H1009.73C1018.72 946.542 1026 939.258 1026 930.271V840.939C1026 837.219 1024.73 833.612 1022.39 830.718L865.09 635.906C858.817 628.136 847.09 627.799 840.38 635.194L638.085 858.161C635.369 861.154 633.864 865.052 633.864 869.094Z" fill="#A1CBFD" fill-opacity="0.5"/>
<path d="M382.475 895.76V984.78C382.475 993.766 389.759 1001.05 398.746 1001.05H888.509C897.495 1001.05 904.78 993.766 904.78 984.78V858.422C904.78 854.703 903.506 851.096 901.17 848.202L686.495 582.219C680.221 574.446 668.49 574.109 661.78 581.508L386.693 884.83C383.978 887.823 382.475 891.719 382.475 895.76Z" fill="#9EC9FD" fill-opacity="0.5"/>
<circle cx="887.695" cy="429.932" r="43.9322" fill="#CFE3FD"/>
<rect x="422.339" y="213.526" width="362.034" height="31.7288" rx="15.8644" fill="#F4F5F8"/>
<rect x="422.339" y="271.288" width="314.034" height="31.7288" rx="15.8644" fill="#F4F5F8"/>
<rect x="422.339" y="329.051" width="262.78" height="31.7288" rx="15.8644" fill="#F4F5F8"/>
<g clip-path="url(#clip1_284_5465)">
<path d="M973.963 53.1975C973.963 54.5707 974.233 55.9305 974.759 57.1992C975.284 58.4678 976.055 59.6206 977.026 60.5916C977.997 61.5626 979.149 62.3328 980.418 62.8583C981.687 63.3838 983.046 63.6543 984.42 63.6543C985.793 63.6543 987.153 63.3838 988.421 62.8583C989.69 62.3328 990.843 61.5626 991.814 60.5916C992.785 59.6206 993.555 58.4678 994.08 57.1992C994.606 55.9305 994.876 54.5707 994.876 53.1975C994.876 51.8243 994.606 50.4645 994.08 49.1959C993.555 47.9272 992.785 46.7744 991.814 45.8034C990.843 44.8324 989.69 44.0622 988.421 43.5367C987.153 43.0112 985.793 42.7407 984.42 42.7407C983.046 42.7407 981.687 43.0112 980.418 43.5367C979.149 44.0622 977.997 44.8324 977.026 45.8034C976.055 46.7744 975.284 47.9272 974.759 49.1959C974.233 50.4645 973.963 51.8243 973.963 53.1975Z" stroke="#73819D" stroke-width="2.98765" stroke-linecap="round" stroke-linejoin="round"/>
<path d="M1000.85 69.6296L991.889 60.6666" stroke="#73819D" stroke-width="2.98765" stroke-linecap="round" stroke-linejoin="round"/>
</g>
<g clip-path="url(#clip2_284_5465)">
<path d="M1033.58 52.5186H1045.53" stroke="#73819D" stroke-width="2.98765" stroke-linecap="round" stroke-linejoin="round"/>
<path d="M1033.58 58.4939H1042.54" stroke="#73819D" stroke-width="2.98765" stroke-linecap="round" stroke-linejoin="round"/>
<path d="M1048.52 45.0494C1049.71 45.0494 1050.85 45.5216 1051.69 46.362C1052.53 47.2025 1053 48.3424 1053 49.5309V61.4815C1053 62.6701 1052.53 63.81 1051.69 64.6504C1050.85 65.4909 1049.71 65.963 1048.52 65.963H1041.05L1033.58 70.4445V65.963H1030.59C1029.4 65.963 1028.26 65.4909 1027.42 64.6504C1026.58 63.81 1026.11 62.6701 1026.11 61.4815V49.5309C1026.11 48.3424 1026.58 47.2025 1027.42 46.362C1028.26 45.5216 1029.4 45.0494 1030.59 45.0494H1048.52Z" stroke="#73819D" stroke-width="2.98765" stroke-linecap="round" stroke-linejoin="round"/>
</g>
<g clip-path="url(#clip3_284_5465)">
<path d="M401.955 65.3102C402.035 65.6671 402.222 65.9912 402.49 66.239C402.759 66.4867 403.098 66.6464 403.46 66.6964C403.822 66.7465 404.191 66.6846 404.517 66.5191C404.843 66.3536 405.11 66.0923 405.284 65.7703L408.406 61.1499L415.736 68.4801C415.884 68.6281 416.06 68.7455 416.253 68.8257C416.446 68.9058 416.654 68.947 416.863 68.947C417.072 68.947 417.28 68.9058 417.473 68.8257C417.666 68.7455 417.842 68.6281 417.99 68.4801L419.554 66.9161C419.702 66.7681 419.82 66.5924 419.9 66.399C419.98 66.2056 420.021 65.9983 420.021 65.789C420.021 65.5797 419.98 65.3724 419.9 65.179C419.82 64.9856 419.702 64.8099 419.554 64.6619L412.224 57.3317L416.874 54.2096C417.196 54.0362 417.457 53.7685 417.623 53.4423C417.788 53.1162 417.85 52.7473 417.8 52.3851C417.75 52.0229 417.59 51.6847 417.342 51.4159C417.094 51.1471 416.77 50.9606 416.413 50.8813L396.124 45.0494L401.955 65.3102Z" stroke="#73819D" stroke-width="2.98765" stroke-linecap="round" stroke-linejoin="round"/>
</g>
<g clip-path="url(#clip4_284_5465)">
<path d="M349.951 58.4939V47.2902C349.951 46.6959 350.187 46.126 350.607 45.7057C351.027 45.2855 351.597 45.0494 352.191 45.0494C352.786 45.0494 353.356 45.2855 353.776 45.7057C354.196 46.126 354.432 46.6959 354.432 47.2902V57.0001" stroke="#73819D" stroke-width="2.98765" stroke-linecap="round" stroke-linejoin="round"/>
<path d="M354.432 47.2902V44.3025C354.432 44.0083 354.49 43.7169 354.603 43.445C354.715 43.1732 354.88 42.9261 355.088 42.7181C355.296 42.51 355.544 42.3449 355.815 42.2323C356.087 42.1197 356.379 42.0618 356.673 42.0618C356.967 42.0618 357.259 42.1197 357.53 42.2323C357.802 42.3449 358.049 42.51 358.257 42.7181C358.465 42.9261 358.63 43.1732 358.743 43.445C358.856 43.7169 358.914 44.0083 358.914 44.3025V57" stroke="#73819D" stroke-width="2.98765" stroke-linecap="round" stroke-linejoin="round"/>
<path d="M358.914 47.2902C358.914 46.6959 359.15 46.126 359.57 45.7057C359.99 45.2855 360.56 45.0494 361.154 45.0494C361.749 45.0494 362.319 45.2855 362.739 45.7057C363.159 46.126 363.395 46.6959 363.395 47.2902V57.0001" stroke="#73819D" stroke-width="2.98765" stroke-linecap="round" stroke-linejoin="round"/>
<path d="M363.395 50.2779C363.395 49.6836 363.631 49.1136 364.051 48.6934C364.472 48.2732 365.042 48.0371 365.636 48.0371C366.23 48.0371 366.8 48.2732 367.22 48.6934C367.641 49.1136 367.877 49.6836 367.877 50.2779V62.9754C367.877 65.3525 366.932 67.6323 365.251 69.3132C363.571 70.994 361.291 71.9383 358.914 71.9383H355.926H356.237C354.752 71.9386 353.291 71.5702 351.984 70.8662C350.678 70.1622 349.566 69.1447 348.75 67.905C348.652 67.7559 348.554 67.6065 348.457 67.4569C347.991 66.7413 346.355 63.8896 343.548 58.9002C343.262 58.3916 343.186 57.7914 343.335 57.2274C343.485 56.6633 343.848 56.1798 344.349 55.8797C344.882 55.5598 345.507 55.4272 346.124 55.503C346.741 55.5788 347.315 55.8586 347.755 56.298L349.951 58.4939" stroke="#73819D" stroke-width="2.98765" stroke-linecap="round" stroke-linejoin="round"/>
</g>
<g clip-path="url(#clip5_284_5465)">
<path d="M57.9753 48.0371H81.8766" stroke="#73819D" stroke-width="2.98765" stroke-linecap="round" stroke-linejoin="round"/>
<path d="M57.9753 57H81.8766" stroke="#73819D" stroke-width="2.98765" stroke-linecap="round" stroke-linejoin="round"/>
<path d="M57.9753 65.963H81.8766" stroke="#73819D" stroke-width="2.98765" stroke-linecap="round" stroke-linejoin="round"/>
</g>
<line x1="110.667" y1="37.4445" x2="110.667" y2="78.1852" stroke="#EDEFF3" stroke-width="1.62963"/>
<line x1="319.259" y1="37.4445" x2="319.259" y2="78.1852" stroke="#EDEFF3" stroke-width="1.62963"/>
<rect x="140.815" y="35.8148" width="154" height="42.3704" rx="5.7037" fill="#F3F4F5" stroke="#EAEBEC" stroke-width="1.62963"/>
<g clip-path="url(#clip6_284_5465)">
<path d="M226.167 57C226.167 58.5248 226.467 60.0347 227.05 61.4434C227.634 62.8521 228.489 64.1321 229.567 65.2103C230.646 66.2885 231.926 67.1438 233.334 67.7273C234.743 68.3108 236.253 68.6111 237.778 68.6111C239.303 68.6111 240.812 68.3108 242.221 67.7273C243.63 67.1438 244.91 66.2885 245.988 65.2103C247.066 64.1321 247.921 62.8521 248.505 61.4434C249.089 60.0347 249.389 58.5248 249.389 57C249.389 55.4752 249.089 53.9654 248.505 52.5566C247.921 51.1479 247.066 49.8679 245.988 48.7897C244.91 47.7115 243.63 46.8563 242.221 46.2728C240.812 45.6892 239.303 45.3889 237.778 45.3889C236.253 45.3889 234.743 45.6892 233.334 46.2728C231.926 46.8563 230.646 47.7115 229.567 48.7897C228.489 49.8679 227.634 51.1479 227.05 52.5566C226.467 53.9654 226.167 55.4752 226.167 57Z" stroke="#73819D" stroke-width="2.58025" stroke-linecap="round" stroke-linejoin="round"/>
<path d="M233.907 57H241.648" stroke="#73819D" stroke-width="2.58025" stroke-linecap="round" stroke-linejoin="round"/>
</g>
<g clip-path="url(#clip7_284_5465)">
<path d="M262.019 57C262.019 58.5248 262.319 60.0347 262.902 61.4434C263.486 62.8521 264.341 64.1321 265.419 65.2103C266.498 66.2885 267.778 67.1438 269.186 67.7273C270.595 68.3108 272.105 68.6111 273.63 68.6111C275.154 68.6111 276.664 68.3108 278.073 67.7273C279.482 67.1438 280.762 66.2885 281.84 65.2103C282.918 64.1321 283.773 62.8521 284.357 61.4434C284.94 60.0347 285.241 58.5248 285.241 57C285.241 53.9206 284.017 50.9672 281.84 48.7897C279.662 46.6122 276.709 45.3889 273.63 45.3889C270.55 45.3889 267.597 46.6122 265.419 48.7897C263.242 50.9672 262.019 53.9206 262.019 57Z" stroke="#73819D" stroke-width="2.58025" stroke-linecap="round" stroke-linejoin="round"/>
<path d="M269.759 57H277.5" stroke="#73819D" stroke-width="2.58025" stroke-linecap="round" stroke-linejoin="round"/>
<path d="M273.63 53.1296V60.8704" stroke="#73819D" stroke-width="2.58025" stroke-linecap="round" stroke-linejoin="round"/>
</g>
<path d="M160.875 51.2963V63.1482H159.44V52.801H159.37L156.477 54.7223V53.2639L159.44 51.2963H160.875ZM168.149 63.3102C167.277 63.3102 166.535 63.073 165.921 62.5984C165.308 62.12 164.839 61.4275 164.515 60.5209C164.191 59.6104 164.029 58.5108 164.029 57.2223C164.029 55.9414 164.191 54.8477 164.515 53.941C164.843 53.0305 165.314 52.3361 165.927 51.8577C166.544 51.3754 167.285 51.1343 168.149 51.1343C169.013 51.1343 169.752 51.3754 170.366 51.8577C170.983 52.3361 171.454 53.0305 171.778 53.941C172.106 54.8477 172.27 55.9414 172.27 57.2223C172.27 58.5108 172.108 59.6104 171.784 60.5209C171.459 61.4275 170.991 62.12 170.377 62.5984C169.764 63.073 169.021 63.3102 168.149 63.3102ZM168.149 62.0371C169.013 62.0371 169.685 61.6204 170.163 60.7871C170.642 59.9537 170.881 58.7655 170.881 57.2223C170.881 56.196 170.771 55.3222 170.551 54.6007C170.335 53.8793 170.022 53.3295 169.613 52.9514C169.208 52.5733 168.72 52.3843 168.149 52.3843C167.293 52.3843 166.623 52.8068 166.141 53.6517C165.659 54.4927 165.418 55.6829 165.418 57.2223C165.418 58.2485 165.526 59.1204 165.742 59.838C165.958 60.5556 166.268 61.1015 166.674 61.4757C167.083 61.85 167.574 62.0371 168.149 62.0371ZM178.334 63.3102C177.463 63.3102 176.72 63.073 176.106 62.5984C175.493 62.12 175.024 61.4275 174.7 60.5209C174.376 59.6104 174.214 58.5108 174.214 57.2223C174.214 55.9414 174.376 54.8477 174.7 53.941C175.028 53.0305 175.499 52.3361 176.112 51.8577C176.73 51.3754 177.47 51.1343 178.334 51.1343C179.199 51.1343 179.937 51.3754 180.551 51.8577C181.168 52.3361 181.639 53.0305 181.963 53.941C182.291 54.8477 182.455 55.9414 182.455 57.2223C182.455 58.5108 182.293 59.6104 181.969 60.5209C181.645 61.4275 181.176 62.12 180.562 62.5984C179.949 63.073 179.206 63.3102 178.334 63.3102ZM178.334 62.0371C179.199 62.0371 179.87 61.6204 180.348 60.7871C180.827 59.9537 181.066 58.7655 181.066 57.2223C181.066 56.196 180.956 55.3222 180.736 54.6007C180.52 53.8793 180.208 53.3295 179.799 52.9514C179.393 52.5733 178.905 52.3843 178.334 52.3843C177.478 52.3843 176.809 52.8068 176.326 53.6517C175.844 54.4927 175.603 55.6829 175.603 57.2223C175.603 58.2485 175.711 59.1204 175.927 59.838C176.143 60.5556 176.454 61.1015 176.859 61.4757C177.268 61.85 177.76 62.0371 178.334 62.0371ZM190.696 60.926V60.301C190.696 59.8689 190.784 59.4734 190.962 59.1146C191.143 58.752 191.405 58.4626 191.749 58.2466C192.096 58.0267 192.517 57.9167 193.01 57.9167C193.512 57.9167 193.932 58.0267 194.272 58.2466C194.611 58.4626 194.868 58.752 195.042 59.1146C195.215 59.4734 195.302 59.8689 195.302 60.301V60.926C195.302 61.3581 195.213 61.7554 195.036 62.1181C194.862 62.4769 194.604 62.7662 194.26 62.9862C193.921 63.2022 193.504 63.3102 193.01 63.3102C192.509 63.3102 192.086 63.2022 191.743 62.9862C191.4 62.7662 191.139 62.4769 190.962 62.1181C190.784 61.7554 190.696 61.3581 190.696 60.926ZM191.876 60.301V60.926C191.876 61.2848 191.961 61.6069 192.131 61.8924C192.301 62.174 192.594 62.3149 193.01 62.3149C193.415 62.3149 193.701 62.174 193.867 61.8924C194.037 61.6069 194.121 61.2848 194.121 60.926V60.301C194.121 59.9422 194.04 59.622 193.878 59.3403C193.716 59.0548 193.427 58.9121 193.01 58.9121C192.605 58.9121 192.314 59.0548 192.137 59.3403C191.963 59.622 191.876 59.9422 191.876 60.301ZM184.793 54.1436V53.5186C184.793 53.0865 184.882 52.691 185.059 52.3322C185.24 51.9696 185.503 51.6802 185.846 51.4642C186.193 51.2443 186.614 51.1343 187.108 51.1343C187.609 51.1343 188.03 51.2443 188.369 51.4642C188.709 51.6802 188.965 51.9696 189.139 52.3322C189.312 52.691 189.399 53.0865 189.399 53.5186V54.1436C189.399 54.5757 189.311 54.973 189.133 55.3357C188.959 55.6945 188.701 55.9838 188.358 56.2037C188.018 56.4198 187.601 56.5278 187.108 56.5278C186.606 56.5278 186.184 56.4198 185.84 56.2037C185.497 55.9838 185.236 55.6945 185.059 55.3357C184.882 54.973 184.793 54.5757 184.793 54.1436ZM185.973 53.5186V54.1436C185.973 54.5024 186.058 54.8245 186.228 55.11C186.398 55.3916 186.691 55.5325 187.108 55.5325C187.513 55.5325 187.798 55.3916 187.964 55.11C188.134 54.8245 188.219 54.5024 188.219 54.1436V53.5186C188.219 53.1598 188.138 52.8396 187.976 52.5579C187.814 52.2724 187.524 52.1297 187.108 52.1297C186.703 52.1297 186.411 52.2724 186.234 52.5579C186.06 52.8396 185.973 53.1598 185.973 53.5186ZM185.233 63.1482L193.381 51.2963H194.7L186.552 63.1482H185.233Z" fill="black"/>
</g>
</g>
<defs>
<filter id="filter0_d_284_5465" x="0" y="0" width="1110" height="870" filterUnits="userSpaceOnUse" color-interpolation-filters="sRGB">
<feFlood flood-opacity="0" result="BackgroundImageFix"/>
<feColorMatrix in="SourceAlpha" type="matrix" values="0 0 0 0 0 0 0 0 0 0 0 0 0 0 0 0 0 0 127 0" result="hardAlpha"/>
<feOffset/>
<feGaussianBlur stdDeviation="10"/>
<feComposite in2="hardAlpha" operator="out"/>
<feColorMatrix type="matrix" values="0 0 0 0 0.69467 0 0 0 0 0.753434 0 0 0 0 0.870962 0 0 0 0.3 0"/>
<feBlend mode="normal" in2="BackgroundImageFix" result="effect1_dropShadow_284_5465"/>
<feBlend mode="normal" in="SourceGraphic" in2="effect1_dropShadow_284_5465" result="shape"/>
</filter>
<filter id="filter1_d_284_5465" x="3.53846" y="6.83077" width="1102.92" height="893.038" filterUnits="userSpaceOnUse" color-interpolation-filters="sRGB">
<feFlood flood-opacity="0" result="BackgroundImageFix"/>
<feColorMatrix in="SourceAlpha" type="matrix" values="0 0 0 0 0 0 0 0 0 0 0 0 0 0 0 0 0 0 127 0" result="hardAlpha"/>
<feOffset dy="3.29231"/>
<feGaussianBlur stdDeviation="8.23077"/>
<feComposite in2="hardAlpha" operator="out"/>
<feColorMatrix type="matrix" values="0 0 0 0 0.964706 0 0 0 0 0.964706 0 0 0 0 0.968627 0 0 0 1 0"/>
<feBlend mode="normal" in2="BackgroundImageFix" result="effect1_dropShadow_284_5465"/>
<feBlend mode="normal" in="SourceGraphic" in2="effect1_dropShadow_284_5465" result="shape"/>
</filter>
<filter id="filter2_d_284_5465" x="3.53846" y="80.0847" width="302.069" height="819.785" filterUnits="userSpaceOnUse" color-interpolation-filters="sRGB">
<feFlood flood-opacity="0" result="BackgroundImageFix"/>
<feColorMatrix in="SourceAlpha" type="matrix" values="0 0 0 0 0 0 0 0 0 0 0 0 0 0 0 0 0 0 127 0" result="hardAlpha"/>
<feOffset dy="3.29231"/>
<feGaussianBlur stdDeviation="8.23077"/>
<feComposite in2="hardAlpha" operator="out"/>
<feColorMatrix type="matrix" values="0 0 0 0 0 0 0 0 0 0 0 0 0 0 0 0 0 0 0.1 0"/>
<feBlend mode="normal" in2="BackgroundImageFix" result="effect1_dropShadow_284_5465"/>
<feBlend mode="normal" in="SourceGraphic" in2="effect1_dropShadow_284_5465" result="shape"/>
</filter>
<filter id="filter3_d_284_5465" x="16.7077" y="20" width="1076.58" height="79.9274" filterUnits="userSpaceOnUse" color-interpolation-filters="sRGB">
<feFlood flood-opacity="0" result="BackgroundImageFix"/>
<feColorMatrix in="SourceAlpha" type="matrix" values="0 0 0 0 0 0 0 0 0 0 0 0 0 0 0 0 0 0 127 0" result="hardAlpha"/>
<feOffset dy="3.29231"/>
<feGaussianBlur stdDeviation="1.64615"/>
<feComposite in2="hardAlpha" operator="out"/>
<feColorMatrix type="matrix" values="0 0 0 0 0 0 0 0 0 0 0 0 0 0 0 0 0 0 0.1 0"/>
<feBlend mode="normal" in2="BackgroundImageFix" result="effect1_dropShadow_284_5465"/>
<feBlend mode="normal" in="SourceGraphic" in2="effect1_dropShadow_284_5465" result="shape"/>
</filter>
<clipPath id="clip0_284_5465">
<rect x="20" y="20" width="1070" height="830" rx="20" fill="white"/>
</clipPath>
<clipPath id="clip1_284_5465">
<rect width="35.8519" height="35.8519" fill="white" transform="translate(969.481 38.2593)"/>
</clipPath>
<clipPath id="clip2_284_5465">
<rect width="35.8519" height="35.8519" fill="white" transform="translate(1021.63 39.0741)"/>
</clipPath>
<clipPath id="clip3_284_5465">
<rect width="35.8519" height="35.8519" fill="white" transform="translate(390.148 39.0741)"/>
</clipPath>
<clipPath id="clip4_284_5465">
<rect width="35.8519" height="35.8519" fill="white" transform="translate(338 39.0741)"/>
</clipPath>
<clipPath id="clip5_284_5465">
<rect width="35.8519" height="35.8519" fill="white" transform="translate(52 39.0741)"/>
</clipPath>
<clipPath id="clip6_284_5465">
<rect width="30.963" height="30.963" fill="white" transform="translate(222.296 41.5186)"/>
</clipPath>
<clipPath id="clip7_284_5465">
<rect width="30.963" height="30.963" fill="white" transform="translate(258.148 41.5186)"/>
</clipPath>
</defs>
</svg>
