<svg width="1585" height="553" viewBox="0 0 1585 553" fill="none" xmlns="http://www.w3.org/2000/svg">
<g filter="url(#filter0_d_584_2013)">
<rect x="90" y="131" width="282" height="292" rx="40" fill="white"/>
<rect x="92" y="133" width="278" height="288" rx="38" stroke="#ECEFF8" stroke-width="4"/>
</g>
<g filter="url(#filter1_d_584_2013)">
<rect x="1214" y="131" width="282" height="292" rx="40" fill="white"/>
<rect x="1216" y="133" width="278" height="288" rx="38" stroke="#ECEFF8" stroke-width="4"/>
</g>
<g filter="url(#filter2_d_584_2013)">
<circle cx="792" cy="277" r="222" fill="#F2F4FB"/>
<circle cx="792" cy="277" r="221.5" stroke="white"/>
</g>
<g filter="url(#filter3_d_584_2013)">
<circle cx="792" cy="277" r="146" fill="#FDFDFD"/>
</g>
<path d="M782.732 219C803.889 219 821.041 236.151 821.041 257.308C821.041 257.938 821.024 258.563 820.994 259.185C821.38 259.174 821.768 259.168 822.156 259.168C843.313 259.168 860.465 276.319 860.465 297.476C860.465 317.251 845.481 333.525 826.248 335.567V335.784H737.729V335.38C719.217 332.679 705 316.738 705 297.476C705 276.319 722.151 259.168 743.308 259.168C743.697 259.168 744.084 259.174 744.47 259.185C744.44 258.563 744.424 257.938 744.424 257.308C744.424 236.151 761.575 219 782.732 219Z" fill="#23278A"/>
<path d="M860.389 296.92L879.822 296.868C879.575 307.62 875.975 317.213 868.143 324.774C862.767 329.963 856.014 333.5 848.688 334.965C842.256 336.266 834.267 335.975 827.605 335.966L801.44 335.918C782.517 335.881 763.557 335.986 744.634 335.919C743.12 335.914 741.446 335.863 739.961 335.574C742.668 335.376 745.431 335.663 748.178 335.329C769.15 332.78 781.463 317.136 782.747 296.955L860.389 296.92Z" fill="url(#paint0_linear_584_2013)"/>
<g filter="url(#filter4_i_584_2013)">
<path d="M860.45 296.412C860.46 296.765 860.466 297.12 860.466 297.476C860.466 316.935 845.956 333.003 827.166 335.457L801.441 335.41C782.519 335.373 763.558 335.479 744.635 335.411C743.121 335.406 741.447 335.354 739.963 335.065C742.67 334.867 745.432 335.154 748.179 334.82C769.151 332.271 781.465 316.628 782.749 296.446L860.391 296.412H860.45Z" fill="url(#paint1_linear_584_2013)"/>
</g>
<path d="M543.333 277C543.333 291.728 555.272 303.667 570 303.667C584.728 303.667 596.667 291.728 596.667 277C596.667 262.272 584.728 250.333 570 250.333C555.272 250.333 543.333 262.272 543.333 277ZM372.524 282C375.285 282 377.524 279.761 377.524 277C377.524 274.239 375.285 272 372.524 272V277V282ZM393.476 272C390.715 272 388.476 274.239 388.476 277C388.476 279.761 390.715 282 393.476 282V277V272ZM394.524 282C397.285 282 399.524 279.761 399.524 277C399.524 274.239 397.285 272 394.524 272V277V282ZM415.476 272C412.715 272 410.476 274.239 410.476 277C410.476 279.761 412.715 282 415.476 282V277V272ZM416.524 282C419.285 282 421.524 279.761 421.524 277C421.524 274.239 419.285 272 416.524 272V277V282ZM437.476 272C434.715 272 432.476 274.239 432.476 277C432.476 279.761 434.715 282 437.476 282V277V272ZM438.524 282C441.285 282 443.524 279.761 443.524 277C443.524 274.239 441.285 272 438.524 272V277V282ZM459.476 272C456.715 272 454.476 274.239 454.476 277C454.476 279.761 456.715 282 459.476 282V277V272ZM460.524 282C463.285 282 465.524 279.761 465.524 277C465.524 274.239 463.285 272 460.524 272V277V282ZM481.476 272C478.715 272 476.476 274.239 476.476 277C476.476 279.761 478.715 282 481.476 282V277V272ZM482.524 282C485.285 282 487.524 279.761 487.524 277C487.524 274.239 485.285 272 482.524 272V277V282ZM503.476 272C500.715 272 498.476 274.239 498.476 277C498.476 279.761 500.715 282 503.476 282V277V272ZM504.524 282C507.285 282 509.524 279.761 509.524 277C509.524 274.239 507.285 272 504.524 272V277V282ZM525.476 272C522.715 272 520.476 274.239 520.476 277C520.476 279.761 522.715 282 525.476 282V277V272ZM526.524 282C529.285 282 531.524 279.761 531.524 277C531.524 274.239 529.285 272 526.524 272V277V282ZM547.476 272C544.715 272 542.476 274.239 542.476 277C542.476 279.761 544.715 282 547.476 282V277V272ZM548.524 282C551.285 282 553.524 279.761 553.524 277C553.524 274.239 551.285 272 548.524 272V277V282ZM569.476 272C566.715 272 564.476 274.239 564.476 277C564.476 279.761 566.715 282 569.476 282V277V272ZM372 277V282H372.524V277V272H372V277ZM393.476 277V282H394.524V277V272H393.476V277ZM415.476 277V282H416.524V277V272H415.476V277ZM437.476 277V282H438.524V277V272H437.476V277ZM459.476 277V282H460.524V277V272H459.476V277ZM481.476 277V282H482.524V277V272H481.476V277ZM503.476 277V282H504.524V277V272H503.476V277ZM525.476 277V282H526.524V277V272H525.476V277ZM547.476 277V282H548.524V277V272H547.476V277ZM569.476 277V282H570V277V272H569.476V277ZM543.333 277C543.333 291.728 555.272 303.667 570 303.667C584.728 303.667 596.667 291.728 596.667 277C596.667 262.272 584.728 250.333 570 250.333C555.272 250.333 543.333 262.272 543.333 277ZM372.524 282C375.285 282 377.524 279.761 377.524 277C377.524 274.239 375.285 272 372.524 272V277V282ZM393.476 272C390.715 272 388.476 274.239 388.476 277C388.476 279.761 390.715 282 393.476 282V277V272ZM394.524 282C397.285 282 399.524 279.761 399.524 277C399.524 274.239 397.285 272 394.524 272V277V282ZM415.476 272C412.715 272 410.476 274.239 410.476 277C410.476 279.761 412.715 282 415.476 282V277V272ZM416.524 282C419.285 282 421.524 279.761 421.524 277C421.524 274.239 419.285 272 416.524 272V277V282ZM437.476 272C434.715 272 432.476 274.239 432.476 277C432.476 279.761 434.715 282 437.476 282V277V272ZM438.524 282C441.285 282 443.524 279.761 443.524 277C443.524 274.239 441.285 272 438.524 272V277V282ZM459.476 272C456.715 272 454.476 274.239 454.476 277C454.476 279.761 456.715 282 459.476 282V277V272ZM460.524 282C463.285 282 465.524 279.761 465.524 277C465.524 274.239 463.285 272 460.524 272V277V282ZM481.476 272C478.715 272 476.476 274.239 476.476 277C476.476 279.761 478.715 282 481.476 282V277V272ZM482.524 282C485.285 282 487.524 279.761 487.524 277C487.524 274.239 485.285 272 482.524 272V277V282ZM503.476 272C500.715 272 498.476 274.239 498.476 277C498.476 279.761 500.715 282 503.476 282V277V272ZM504.524 282C507.285 282 509.524 279.761 509.524 277C509.524 274.239 507.285 272 504.524 272V277V282ZM525.476 272C522.715 272 520.476 274.239 520.476 277C520.476 279.761 522.715 282 525.476 282V277V272ZM526.524 282C529.285 282 531.524 279.761 531.524 277C531.524 274.239 529.285 272 526.524 272V277V282ZM547.476 272C544.715 272 542.476 274.239 542.476 277C542.476 279.761 544.715 282 547.476 282V277V272ZM548.524 282C551.285 282 553.524 279.761 553.524 277C553.524 274.239 551.285 272 548.524 272V277V282ZM569.476 272C566.715 272 564.476 274.239 564.476 277C564.476 279.761 566.715 282 569.476 282V277V272ZM372 277V282H372.524V277V272H372V277ZM393.476 277V282H394.524V277V272H393.476V277ZM415.476 277V282H416.524V277V272H415.476V277ZM437.476 277V282H438.524V277V272H437.476V277ZM459.476 277V282H460.524V277V272H459.476V277ZM481.476 277V282H482.524V277V272H481.476V277ZM503.476 277V282H504.524V277V272H503.476V277ZM525.476 277V282H526.524V277V272H525.476V277ZM547.476 277V282H548.524V277V272H547.476V277ZM569.476 277V282H570V277V272H569.476V277Z" fill="#005CFD"/>
<path d="M1040.67 277C1040.67 262.272 1028.73 250.333 1014 250.333C999.272 250.333 987.333 262.272 987.333 277C987.333 291.728 999.272 303.667 1014 303.667C1028.73 303.667 1040.67 291.728 1040.67 277ZM1210.48 272C1207.72 272 1205.48 274.239 1205.48 277C1205.48 279.761 1207.72 282 1210.48 282V277V272ZM1189.63 282C1192.39 282 1194.63 279.761 1194.63 277C1194.63 274.239 1192.39 272 1189.63 272V277V282ZM1188.59 272C1185.83 272 1183.59 274.239 1183.59 277C1183.59 279.761 1185.83 282 1188.59 282V277V272ZM1167.74 282C1170.5 282 1172.74 279.761 1172.74 277C1172.74 274.239 1170.5 272 1167.74 272V277V282ZM1166.7 272C1163.94 272 1161.7 274.239 1161.7 277C1161.7 279.761 1163.94 282 1166.7 282V277V272ZM1145.85 282C1148.62 282 1150.85 279.761 1150.85 277C1150.85 274.239 1148.62 272 1145.85 272V277V282ZM1144.81 272C1142.05 272 1139.81 274.239 1139.81 277C1139.81 279.761 1142.05 282 1144.81 282V277V272ZM1123.97 282C1126.73 282 1128.97 279.761 1128.97 277C1128.97 274.239 1126.73 272 1123.97 272V277V282ZM1122.92 272C1120.16 272 1117.92 274.239 1117.92 277C1117.92 279.761 1120.16 282 1122.92 282V277V272ZM1102.08 282C1104.84 282 1107.08 279.761 1107.08 277C1107.08 274.239 1104.84 272 1102.08 272V277V282ZM1101.03 272C1098.27 272 1096.03 274.239 1096.03 277C1096.03 279.761 1098.27 282 1101.03 282V277V272ZM1080.19 282C1082.95 282 1085.19 279.761 1085.19 277C1085.19 274.239 1082.95 272 1080.19 272V277V282ZM1079.15 272C1076.38 272 1074.15 274.239 1074.15 277C1074.15 279.761 1076.38 282 1079.15 282V277V272ZM1058.3 282C1061.06 282 1063.3 279.761 1063.3 277C1063.3 274.239 1061.06 272 1058.3 272V277V282ZM1057.26 272C1054.5 272 1052.26 274.239 1052.26 277C1052.26 279.761 1054.5 282 1057.26 282V277V272ZM1036.41 282C1039.17 282 1041.41 279.761 1041.41 277C1041.41 274.239 1039.17 272 1036.41 272V277V282ZM1035.37 272C1032.61 272 1030.37 274.239 1030.37 277C1030.37 279.761 1032.61 282 1035.37 282V277V272ZM1014.52 282C1017.28 282 1019.52 279.761 1019.52 277C1019.52 274.239 1017.28 272 1014.52 272V277V282ZM1211 277V272H1210.48V277V282H1211V277ZM1189.63 277V272H1188.59V277V282H1189.63V277ZM1167.74 277V272H1166.7V277V282H1167.74V277ZM1145.85 277V272H1144.81V277V282H1145.85V277ZM1123.97 277V272H1122.92V277V282H1123.97V277ZM1102.08 277V272H1101.03V277V282H1102.08V277ZM1080.19 277V272H1079.15V277V282H1080.19V277ZM1058.3 277V272H1057.26V277V282H1058.3V277ZM1036.41 277V272H1035.37V277V282H1036.41V277ZM1014.52 277V272H1014V277V282H1014.52V277ZM1040.67 277C1040.67 262.272 1028.73 250.333 1014 250.333C999.272 250.333 987.333 262.272 987.333 277C987.333 291.728 999.272 303.667 1014 303.667C1028.73 303.667 1040.67 291.728 1040.67 277ZM1210.48 272C1207.72 272 1205.48 274.239 1205.48 277C1205.48 279.761 1207.72 282 1210.48 282V277V272ZM1189.63 282C1192.39 282 1194.63 279.761 1194.63 277C1194.63 274.239 1192.39 272 1189.63 272V277V282ZM1188.59 272C1185.83 272 1183.59 274.239 1183.59 277C1183.59 279.761 1185.83 282 1188.59 282V277V272ZM1167.74 282C1170.5 282 1172.74 279.761 1172.74 277C1172.74 274.239 1170.5 272 1167.74 272V277V282ZM1166.7 272C1163.94 272 1161.7 274.239 1161.7 277C1161.7 279.761 1163.94 282 1166.7 282V277V272ZM1145.85 282C1148.62 282 1150.85 279.761 1150.85 277C1150.85 274.239 1148.62 272 1145.85 272V277V282ZM1144.81 272C1142.05 272 1139.81 274.239 1139.81 277C1139.81 279.761 1142.05 282 1144.81 282V277V272ZM1123.97 282C1126.73 282 1128.97 279.761 1128.97 277C1128.97 274.239 1126.73 272 1123.97 272V277V282ZM1122.92 272C1120.16 272 1117.92 274.239 1117.92 277C1117.92 279.761 1120.16 282 1122.92 282V277V272ZM1102.08 282C1104.84 282 1107.08 279.761 1107.08 277C1107.08 274.239 1104.84 272 1102.08 272V277V282ZM1101.03 272C1098.27 272 1096.03 274.239 1096.03 277C1096.03 279.761 1098.27 282 1101.03 282V277V272ZM1080.19 282C1082.95 282 1085.19 279.761 1085.19 277C1085.19 274.239 1082.95 272 1080.19 272V277V282ZM1079.15 272C1076.38 272 1074.15 274.239 1074.15 277C1074.15 279.761 1076.38 282 1079.15 282V277V272ZM1058.3 282C1061.06 282 1063.3 279.761 1063.3 277C1063.3 274.239 1061.06 272 1058.3 272V277V282ZM1057.26 272C1054.5 272 1052.26 274.239 1052.26 277C1052.26 279.761 1054.5 282 1057.26 282V277V272ZM1036.41 282C1039.17 282 1041.41 279.761 1041.41 277C1041.41 274.239 1039.17 272 1036.41 272V277V282ZM1035.37 272C1032.61 272 1030.37 274.239 1030.37 277C1030.37 279.761 1032.61 282 1035.37 282V277V272ZM1014.52 282C1017.28 282 1019.52 279.761 1019.52 277C1019.52 274.239 1017.28 272 1014.52 272V277V282ZM1211 277V272H1210.48V277V282H1211V277ZM1189.63 277V272H1188.59V277V282H1189.63V277ZM1167.74 277V272H1166.7V277V282H1167.74V277ZM1145.85 277V272H1144.81V277V282H1145.85V277ZM1123.97 277V272H1122.92V277V282H1123.97V277ZM1102.08 277V272H1101.03V277V282H1102.08V277ZM1080.19 277V272H1079.15V277V282H1080.19V277ZM1058.3 277V272H1057.26V277V282H1058.3V277ZM1036.41 277V272H1035.37V277V282H1036.41V277ZM1014.52 277V272H1014V277V282H1014.52V277Z" fill="#005CFD"/>
<path d="M316.223 333.19C316.223 329.35 319.403 326.68 324.023 326.68C328.463 326.68 331.283 329.14 331.403 333.1H327.563C327.473 331.21 326.123 330.1 323.963 330.1C321.593 330.1 320.063 331.24 320.063 333.07C320.063 334.63 320.903 335.5 322.733 335.92L326.183 336.67C329.933 337.48 331.763 339.4 331.763 342.67C331.763 346.75 328.583 349.39 323.753 349.39C319.073 349.39 316.013 346.9 315.923 342.97H319.763C319.793 344.83 321.293 345.94 323.753 345.94C326.303 345.94 327.923 344.83 327.923 343C327.923 341.53 327.173 340.66 325.373 340.27L321.893 339.49C318.173 338.68 316.223 336.55 316.223 333.19Z" fill="black"/>
<path d="M305.097 349.39C301.947 349.39 300.027 347.56 300.027 344.77C300.027 342.04 302.007 340.33 305.517 340.06L309.957 339.73V339.4C309.957 337.39 308.757 336.58 306.897 336.58C304.737 336.58 303.537 337.48 303.537 339.04H300.417C300.417 335.83 303.057 333.73 307.077 333.73C311.067 333.73 313.527 335.89 313.527 340V349H310.317L310.047 346.81C309.417 348.34 307.407 349.39 305.097 349.39ZM306.297 346.63C308.547 346.63 309.987 345.28 309.987 343V342.22L306.897 342.46C304.617 342.67 303.747 343.42 303.747 344.62C303.747 345.97 304.647 346.63 306.297 346.63Z" fill="black"/>
<path d="M288.841 349.39C285.691 349.39 283.771 347.56 283.771 344.77C283.771 342.04 285.751 340.33 289.261 340.06L293.701 339.73V339.4C293.701 337.39 292.501 336.58 290.641 336.58C288.481 336.58 287.281 337.48 287.281 339.04H284.161C284.161 335.83 286.801 333.73 290.821 333.73C294.811 333.73 297.271 335.89 297.271 340V349H294.061L293.791 346.81C293.161 348.34 291.151 349.39 288.841 349.39ZM290.041 346.63C292.291 346.63 293.731 345.28 293.731 343V342.22L290.641 342.46C288.361 342.67 287.491 343.42 287.491 344.62C287.491 345.97 288.391 346.63 290.041 346.63Z" fill="black"/>
<path d="M266.138 333.19C266.138 329.35 269.318 326.68 273.938 326.68C278.378 326.68 281.198 329.14 281.318 333.1H277.478C277.388 331.21 276.038 330.1 273.878 330.1C271.508 330.1 269.978 331.24 269.978 333.07C269.978 334.63 270.818 335.5 272.648 335.92L276.098 336.67C279.848 337.48 281.678 339.4 281.678 342.67C281.678 346.75 278.498 349.39 273.668 349.39C268.988 349.39 265.928 346.9 265.838 342.97H269.678C269.708 344.83 271.208 345.94 273.668 345.94C276.218 345.94 277.838 344.83 277.838 343C277.838 341.53 277.088 340.66 275.288 340.27L271.808 339.49C268.088 338.68 266.138 336.55 266.138 333.19Z" fill="black"/>
<path d="M246.648 349.39C242.358 349.39 239.688 346.24 239.688 341.65C239.688 337.03 242.388 333.73 246.858 333.73C248.928 333.73 250.758 334.6 251.688 336.07V326.68H255.318V349H251.958L251.717 346.69C250.817 348.4 248.898 349.39 246.648 349.39ZM247.458 346.03C250.008 346.03 251.658 344.2 251.658 341.53C251.658 338.86 250.008 337 247.458 337C244.908 337 243.348 338.89 243.348 341.53C243.348 344.17 244.908 346.03 247.458 346.03Z" fill="black"/>
<path d="M230.669 349.39C226.259 349.39 223.169 346.18 223.169 341.59C223.169 336.94 226.199 333.73 230.549 333.73C234.989 333.73 237.809 336.7 237.809 341.32V342.43L226.649 342.46C226.919 345.07 228.299 346.39 230.729 346.39C232.739 346.39 234.059 345.61 234.479 344.2H237.869C237.239 347.44 234.539 349.39 230.669 349.39ZM230.579 336.73C228.419 336.73 227.099 337.9 226.739 340.12H234.179C234.179 338.08 232.769 336.73 230.579 336.73Z" fill="black"/>
<path d="M204.951 341.26C204.951 336.94 207.771 333.7 212.001 333.7C214.221 333.7 215.961 334.63 216.831 336.22L217.041 334.18H220.431V348.25C220.431 353.2 217.461 356.29 212.661 356.29C208.401 356.29 205.491 353.86 205.041 349.9H208.701C208.941 351.82 210.411 352.96 212.661 352.96C215.181 352.96 216.801 351.37 216.801 348.91V346.45C215.871 347.83 214.041 348.7 211.911 348.7C207.711 348.7 204.951 345.55 204.951 341.26ZM208.641 341.17C208.641 343.66 210.231 345.52 212.631 345.52C215.151 345.52 216.711 343.75 216.711 341.17C216.711 338.65 215.181 336.91 212.631 336.91C210.201 336.91 208.641 338.74 208.641 341.17Z" fill="black"/>
<path d="M193.945 349.39C190.795 349.39 188.875 347.56 188.875 344.77C188.875 342.04 190.855 340.33 194.365 340.06L198.805 339.73V339.4C198.805 337.39 197.605 336.58 195.745 336.58C193.585 336.58 192.385 337.48 192.385 339.04H189.265C189.265 335.83 191.905 333.73 195.925 333.73C199.915 333.73 202.375 335.89 202.375 340V349H199.165L198.895 346.81C198.265 348.34 196.255 349.39 193.945 349.39ZM195.145 346.63C197.395 346.63 198.835 345.28 198.835 343V342.22L195.745 342.46C193.465 342.67 192.595 343.42 192.595 344.62C192.595 345.97 193.495 346.63 195.145 346.63Z" fill="black"/>
<path d="M175.709 349H172.049V334.18H175.439L175.739 336.1C176.669 334.6 178.469 333.73 180.479 333.73C184.199 333.73 186.119 336.04 186.119 339.88V349H182.459V340.75C182.459 338.26 181.229 337.06 179.339 337.06C177.089 337.06 175.709 338.62 175.709 341.02V349Z" fill="black"/>
<path d="M160.204 349.39C157.054 349.39 155.134 347.56 155.134 344.77C155.134 342.04 157.114 340.33 160.624 340.06L165.064 339.73V339.4C165.064 337.39 163.864 336.58 162.004 336.58C159.844 336.58 158.644 337.48 158.644 339.04H155.524C155.524 335.83 158.164 333.73 162.184 333.73C166.174 333.73 168.634 335.89 168.634 340V349H165.424L165.154 346.81C164.524 348.34 162.514 349.39 160.204 349.39ZM161.404 346.63C163.654 346.63 165.094 345.28 165.094 343V342.22L162.004 342.46C159.724 342.67 158.854 343.42 158.854 344.62C158.854 345.97 159.754 346.63 161.404 346.63Z" fill="black"/>
<path d="M133.72 349H130V327.07H133.72L140.8 344.53L147.88 327.07H151.66V349H147.94V342.25C147.94 337.84 147.94 336.55 148.15 334.99L142.57 349H139.03L133.48 335.02C133.69 336.34 133.72 338.41 133.72 341.14V349Z" fill="black"/>
<path d="M230.188 198C247.88 198 262.222 212.392 262.222 230.146C262.222 230.675 262.208 231.2 262.183 231.722C262.506 231.712 262.83 231.707 263.155 231.707C280.847 231.707 295.188 246.099 295.188 263.854C295.188 280.448 282.659 294.104 266.576 295.818V296H192.557V295.66C177.076 293.394 165.188 280.017 165.188 263.854C165.188 246.099 179.53 231.707 197.222 231.707C197.547 231.707 197.871 231.712 198.193 231.722C198.168 231.2 198.155 230.675 198.155 230.146C198.155 212.392 212.497 198 230.188 198Z" fill="#B3D1FD"/>
<path d="M1423.91 355.39C1419.62 355.39 1416.95 352.24 1416.95 347.65C1416.95 343.03 1419.65 339.73 1424.12 339.73C1426.19 339.73 1428.02 340.6 1428.95 342.07V332.68H1432.58V355H1429.22L1428.98 352.69C1428.08 354.4 1426.16 355.39 1423.91 355.39ZM1424.72 352.03C1427.27 352.03 1428.92 350.2 1428.92 347.53C1428.92 344.86 1427.27 343 1424.72 343C1422.17 343 1420.61 344.89 1420.61 347.53C1420.61 350.17 1422.17 352.03 1424.72 352.03Z" fill="black"/>
<path d="M1407.93 355.39C1403.52 355.39 1400.43 352.18 1400.43 347.59C1400.43 342.94 1403.46 339.73 1407.81 339.73C1412.25 339.73 1415.07 342.7 1415.07 347.32V348.43L1403.91 348.46C1404.18 351.07 1405.56 352.39 1407.99 352.39C1410 352.39 1411.32 351.61 1411.74 350.2H1415.13C1414.5 353.44 1411.8 355.39 1407.93 355.39ZM1407.84 342.73C1405.68 342.73 1404.36 343.9 1404 346.12H1411.44C1411.44 344.08 1410.03 342.73 1407.84 342.73Z" fill="black"/>
<path d="M1396.47 355H1392.81V343.24H1389.96V340.18H1392.81V335.56H1396.47V340.18H1399.35V343.24H1396.47V355Z" fill="black"/>
<path d="M1376.58 350.5H1380.06C1380.09 351.79 1381.05 352.6 1382.73 352.6C1384.44 352.6 1385.37 351.91 1385.37 350.83C1385.37 350.08 1384.98 349.54 1383.66 349.24L1380.99 348.61C1378.32 348.01 1377.03 346.75 1377.03 344.38C1377.03 341.47 1379.49 339.73 1382.91 339.73C1386.24 339.73 1388.49 341.65 1388.52 344.53H1385.04C1385.01 343.27 1384.17 342.46 1382.76 342.46C1381.32 342.46 1380.48 343.12 1380.48 344.23C1380.48 345.07 1381.14 345.61 1382.4 345.91L1385.07 346.54C1387.56 347.11 1388.82 348.25 1388.82 350.53C1388.82 353.53 1386.27 355.39 1382.61 355.39C1378.92 355.39 1376.58 353.41 1376.58 350.5Z" fill="black"/>
<path d="M1359.16 347.56C1359.16 342.94 1362.49 339.76 1367.08 339.76C1371.67 339.76 1375 342.94 1375 347.56C1375 352.18 1371.67 355.36 1367.08 355.36C1362.49 355.36 1359.16 352.18 1359.16 347.56ZM1362.82 347.56C1362.82 350.26 1364.56 352.09 1367.08 352.09C1369.6 352.09 1371.34 350.26 1371.34 347.56C1371.34 344.86 1369.6 343.03 1367.08 343.03C1364.56 343.03 1362.82 344.86 1362.82 347.56Z" fill="black"/>
<path d="M1346.2 355H1342.54V332.68H1346.23V342.1C1347.16 340.66 1348.9 339.73 1351.03 339.73C1354.69 339.73 1356.61 342.04 1356.61 345.88V355H1352.95V346.75C1352.95 344.26 1351.72 343.06 1349.86 343.06C1347.55 343.06 1346.2 344.68 1346.2 346.9V355Z" fill="black"/>
<path d="M1329.33 348.61V345.37H1338.99V348.61H1329.33Z" fill="black"/>
<path d="M1318.99 340.18H1321.12V338.38C1321.12 334.36 1323.25 332.68 1326.46 332.68C1327.03 332.68 1327.72 332.71 1328.35 332.83V335.95H1327.06C1325.2 335.95 1324.75 336.91 1324.75 338.38V340.18H1328.29V343.24H1324.75V355H1321.12V343.24H1318.99V340.18Z" fill="black"/>
<path d="M1316.8 355H1313.17V332.68H1316.8V355Z" fill="black"/>
<path d="M1303.22 355.39C1298.81 355.39 1295.72 352.18 1295.72 347.59C1295.72 342.94 1298.75 339.73 1303.1 339.73C1307.54 339.73 1310.36 342.7 1310.36 347.32V348.43L1299.2 348.46C1299.47 351.07 1300.85 352.39 1303.28 352.39C1305.29 352.39 1306.61 351.61 1307.03 350.2H1310.42C1309.79 353.44 1307.09 355.39 1303.22 355.39ZM1303.13 342.73C1300.97 342.73 1299.65 343.9 1299.29 346.12H1306.73C1306.73 344.08 1305.32 342.73 1303.13 342.73Z" fill="black"/>
<path d="M1278.3 339.19C1278.3 335.35 1281.48 332.68 1286.1 332.68C1290.54 332.68 1293.36 335.14 1293.48 339.1H1289.64C1289.55 337.21 1288.2 336.1 1286.04 336.1C1283.67 336.1 1282.14 337.24 1282.14 339.07C1282.14 340.63 1282.98 341.5 1284.81 341.92L1288.26 342.67C1292.01 343.48 1293.84 345.4 1293.84 348.67C1293.84 352.75 1290.66 355.39 1285.83 355.39C1281.15 355.39 1278.09 352.9 1278 348.97H1281.84C1281.87 350.83 1283.37 351.94 1285.83 351.94C1288.38 351.94 1290 350.83 1290 349C1290 347.53 1289.25 346.66 1287.45 346.27L1283.97 345.49C1280.25 344.68 1278.3 342.55 1278.3 339.19Z" fill="black"/>
<rect x="1290.81" y="199" width="130" height="44" rx="10" fill="#B599FC"/>
<rect x="1290.81" y="262" width="130" height="44" rx="10" fill="#B599FC"/>
<circle cx="1313.81" cy="221" r="8" fill="white"/>
<circle cx="1313.81" cy="284" r="8" fill="white"/>
<defs>
<filter id="filter0_d_584_2013" x="68" y="119" width="326" height="336" filterUnits="userSpaceOnUse" color-interpolation-filters="sRGB">
<feFlood flood-opacity="0" result="BackgroundImageFix"/>
<feColorMatrix in="SourceAlpha" type="matrix" values="0 0 0 0 0 0 0 0 0 0 0 0 0 0 0 0 0 0 127 0" result="hardAlpha"/>
<feMorphology radius="2" operator="dilate" in="SourceAlpha" result="effect1_dropShadow_584_2013"/>
<feOffset dy="10"/>
<feGaussianBlur stdDeviation="10"/>
<feComposite in2="hardAlpha" operator="out"/>
<feColorMatrix type="matrix" values="0 0 0 0 0.905882 0 0 0 0 0.921569 0 0 0 0 0.960784 0 0 0 1 0"/>
<feBlend mode="normal" in2="BackgroundImageFix" result="effect1_dropShadow_584_2013"/>
<feBlend mode="normal" in="SourceGraphic" in2="effect1_dropShadow_584_2013" result="shape"/>
</filter>
<filter id="filter1_d_584_2013" x="1192" y="119" width="326" height="336" filterUnits="userSpaceOnUse" color-interpolation-filters="sRGB">
<feFlood flood-opacity="0" result="BackgroundImageFix"/>
<feColorMatrix in="SourceAlpha" type="matrix" values="0 0 0 0 0 0 0 0 0 0 0 0 0 0 0 0 0 0 127 0" result="hardAlpha"/>
<feMorphology radius="2" operator="dilate" in="SourceAlpha" result="effect1_dropShadow_584_2013"/>
<feOffset dy="10"/>
<feGaussianBlur stdDeviation="10"/>
<feComposite in2="hardAlpha" operator="out"/>
<feColorMatrix type="matrix" values="0 0 0 0 0.905882 0 0 0 0 0.921569 0 0 0 0 0.960784 0 0 0 1 0"/>
<feBlend mode="normal" in2="BackgroundImageFix" result="effect1_dropShadow_584_2013"/>
<feBlend mode="normal" in="SourceGraphic" in2="effect1_dropShadow_584_2013" result="shape"/>
</filter>
<filter id="filter2_d_584_2013" x="520" y="9" width="544" height="544" filterUnits="userSpaceOnUse" color-interpolation-filters="sRGB">
<feFlood flood-opacity="0" result="BackgroundImageFix"/>
<feColorMatrix in="SourceAlpha" type="matrix" values="0 0 0 0 0 0 0 0 0 0 0 0 0 0 0 0 0 0 127 0" result="hardAlpha"/>
<feOffset dy="4"/>
<feGaussianBlur stdDeviation="25"/>
<feComposite in2="hardAlpha" operator="out"/>
<feColorMatrix type="matrix" values="0 0 0 0 0.756092 0 0 0 0 0.814501 0 0 0 0 0.960524 0 0 0 1 0"/>
<feBlend mode="normal" in2="BackgroundImageFix" result="effect1_dropShadow_584_2013"/>
<feBlend mode="normal" in="SourceGraphic" in2="effect1_dropShadow_584_2013" result="shape"/>
</filter>
<filter id="filter3_d_584_2013" x="616" y="107" width="352" height="352" filterUnits="userSpaceOnUse" color-interpolation-filters="sRGB">
<feFlood flood-opacity="0" result="BackgroundImageFix"/>
<feColorMatrix in="SourceAlpha" type="matrix" values="0 0 0 0 0 0 0 0 0 0 0 0 0 0 0 0 0 0 127 0" result="hardAlpha"/>
<feOffset dy="6"/>
<feGaussianBlur stdDeviation="15"/>
<feComposite in2="hardAlpha" operator="out"/>
<feColorMatrix type="matrix" values="0 0 0 0 0.808877 0 0 0 0 0.829238 0 0 0 0 0.900503 0 0 0 1 0"/>
<feBlend mode="normal" in2="BackgroundImageFix" result="effect1_dropShadow_584_2013"/>
<feBlend mode="normal" in="SourceGraphic" in2="effect1_dropShadow_584_2013" result="shape"/>
</filter>
<filter id="filter4_i_584_2013" x="739.963" y="296.412" width="120.502" height="39.0449" filterUnits="userSpaceOnUse" color-interpolation-filters="sRGB">
<feFlood flood-opacity="0" result="BackgroundImageFix"/>
<feBlend mode="normal" in="SourceGraphic" in2="BackgroundImageFix" result="shape"/>
<feColorMatrix in="SourceAlpha" type="matrix" values="0 0 0 0 0 0 0 0 0 0 0 0 0 0 0 0 0 0 127 0" result="hardAlpha"/>
<feOffset/>
<feGaussianBlur stdDeviation="2"/>
<feComposite in2="hardAlpha" operator="arithmetic" k2="-1" k3="1"/>
<feColorMatrix type="matrix" values="0 0 0 0 0 0 0 0 0 0 0 0 0 0 0 0 0 0 0.25 0"/>
<feBlend mode="normal" in2="shape" result="effect1_innerShadow_584_2013"/>
</filter>
<linearGradient id="paint0_linear_584_2013" x1="809.892" y1="296.868" x2="809.892" y2="336" gradientUnits="userSpaceOnUse">
<stop offset="0.846154" stop-color="#2CADF4"/>
<stop offset="1" stop-color="#147FE5" stop-opacity="0.8"/>
</linearGradient>
<linearGradient id="paint1_linear_584_2013" x1="800.214" y1="296.412" x2="800.214" y2="335.457" gradientUnits="userSpaceOnUse">
<stop offset="0.600962" stop-color="#1189FA"/>
<stop offset="1" stop-color="#1A84E8"/>
</linearGradient>
</defs>
</svg>
