<svg width="988" height="1086" viewBox="0 0 988 1086" fill="none" xmlns="http://www.w3.org/2000/svg">
<g clip-path="url(#clip0_584_1994)">
<g filter="url(#filter0_d_584_1994)">
<path d="M896.087 723.719C896.72 738.588 896.821 748.525 893.435 756.864C890.174 764.894 883.615 771.576 870.684 779.659L869.412 780.446C841.696 797.429 814.046 815.786 786.981 833.893L775.42 841.633C765.718 848.127 755.381 854.198 745.065 860.37C734.767 866.533 724.496 872.793 714.978 879.642C689.305 897.424 661.003 914.458 635.203 931.668C608.047 949.779 587.152 964.979 564.433 974.075C541.785 983.143 517.305 986.143 483.048 979.688C471.881 977.582 459.225 972.613 446.654 966.861C434.067 961.102 421.71 954.629 411.001 949.484H411L330.688 910.809C317.65 904.532 303.017 897.071 289.85 891.202C287.17 889.441 279.738 885.725 272.125 882.072C264.398 878.365 256.375 874.669 252.662 873.028C214.342 856.086 180.367 840.581 142.828 822.102C140.063 820.741 136.521 819.165 132.692 817.43C128.853 815.69 124.708 813.781 120.699 811.738C116.688 809.695 112.834 807.526 109.572 805.271C106.299 803.009 103.686 800.701 102.097 798.396L102.041 798.316L101.973 798.249L101.475 797.745C96.4044 792.442 93.6459 784.111 92.5566 775.207C91.607 767.445 91.9415 759.376 93.0322 752.779C95.3266 758.498 97.736 762.94 100.371 768.433L100.445 768.586L100.565 768.707C104.97 773.115 109.112 775.872 115.047 778.892C122.078 782.468 128.481 786.151 134.947 789.792C141.003 793.202 147.107 796.571 153.786 799.75L155.13 800.383L238.966 839.936L378.664 906.533C404.336 918.86 441.413 933.856 467.596 945.415L467.636 945.433L467.677 945.446C505.872 958.513 548.444 959.055 584.946 936.531C597.411 928.836 609.892 920.212 622.06 912.23L696.058 864.275L696.059 864.276L819.104 784.948V784.947L855.449 761.495C872.134 750.803 885.906 732.085 894.412 713.068L896.087 723.719Z" fill="url(#paint0_linear_584_1994)" stroke="#95B2EA" stroke-width="2"></path>
<path d="M111.601 720.947C87.6031 737.446 86.1017 763.946 118.601 781.947C151.101 799.947 438.601 933.947 438.601 933.947C500.602 961.946 548.602 957.446 580.601 939.447L875.101 747.947C900.102 731.946 901.102 698.946 875.101 686.947L541.601 528.947C514.602 515.446 446.602 517.446 420.601 533.447C420.601 533.447 135.599 704.447 111.601 720.947Z" fill="url(#paint1_linear_584_1994)" stroke="url(#paint2_linear_584_1994)" stroke-width="2"></path>
<path d="M492.311 592.052C514.753 589.455 532.933 599.051 552.391 608.557L556.301 610.454L612.375 637.412L612.376 637.413L696.456 677.782C699.437 679.219 702.74 680.731 706.167 682.303C709.598 683.877 713.157 685.512 716.665 687.196C723.692 690.569 730.461 694.12 735.533 697.749C744.024 703.824 746.645 710.822 745.433 717.403C744.242 723.868 739.307 730.195 731.92 735.053L731.197 735.519C716.954 744.507 703.246 753.577 689.468 762.451L689.467 762.452L611.46 812.825L611.455 812.828L567.195 841.745C555.886 849.138 548.81 854.17 541.072 857.829C533.39 861.461 525.04 863.74 511.252 865.504C481.382 866.23 465.262 855.691 439.223 843.373L366.742 809.076L366.734 809.072L302.129 779.214L302.126 779.212L300.721 778.582C293.497 775.387 283.378 771.604 274.375 766.621C269.595 763.975 265.207 761.028 261.821 757.716C258.437 754.406 256.104 750.779 255.334 746.769C254.505 742.45 255.979 738.014 258.651 733.982C261.319 729.956 265.113 726.442 268.695 724.03V724.029C281.452 715.439 294.518 706.998 307.51 698.586L307.511 698.587L378.164 653.015C396.739 641.09 415.388 629.28 434.107 617.583L434.109 617.582C456.094 603.781 465.871 594.913 492.304 592.052H492.311Z" fill="url(#paint3_radial_584_1994)" stroke="#3884F7" stroke-width="2"></path>
</g>
<path d="M893.864 502.5L896.084 516.625C897.35 546.322 896.607 557.345 868.934 574.299C837.28 593.696 805.708 614.887 774.977 635.464C755.519 648.488 733.516 659.813 714.547 673.464C688.889 691.236 660.48 708.342 634.758 725.5C580.564 761.643 550.706 786.643 481.863 773.67C459.28 769.413 430.877 753.623 409.568 743.386L329.255 704.709C316.164 698.407 301.544 690.952 288.377 685.087C283.309 681.708 258.659 670.214 251.257 666.943C212.93 649.997 178.942 634.487 141.387 615.999C130.403 610.592 107.031 601.766 100.273 591.964C89.0164 580.956 88.4911 556.55 91.718 542.145C94.3643 549.5 97.1282 554.445 100.273 561C104.585 565.315 105.188 568.834 111.055 571.819C125.165 578.997 140.208 585.785 154.553 592.477L238.392 632.031L378.095 698.631C403.753 710.952 437.127 725.917 463.364 737.5C501.364 750.5 547.242 751.004 583.421 728.68C595.872 720.994 608.315 712.395 620.512 704.395L694.517 656.435L817.561 577.107L853.91 553.653C871.303 542.507 885.564 522.464 893.864 502.5Z" fill="url(#paint4_linear_584_1994)"></path>
<path d="M110.601 513.947C86.6031 530.446 85.1017 556.946 117.601 574.947C150.101 592.947 437.601 726.947 437.601 726.947C499.602 754.946 547.602 750.446 579.601 732.447L874.101 540.947C899.102 524.946 900.102 491.946 874.101 479.947L540.601 321.947C513.602 308.446 445.602 310.446 419.601 326.447C419.601 326.447 134.599 497.447 110.601 513.947Z" fill="url(#paint5_linear_584_1994)" stroke="url(#paint6_linear_584_1994)" stroke-width="2"></path>
<path d="M491.311 385.052C513.753 382.455 531.933 392.051 551.391 401.557L555.301 403.454L611.375 430.412L611.376 430.413L695.456 470.782C698.437 472.219 701.74 473.731 705.167 475.303C708.598 476.877 712.157 478.512 715.665 480.196C722.692 483.569 729.461 487.12 734.533 490.749C743.024 496.824 745.645 503.822 744.433 510.403C743.242 516.868 738.307 523.195 730.92 528.053L730.197 528.519C715.954 537.507 702.246 546.577 688.468 555.451L688.467 555.452L610.46 605.825L610.455 605.828L566.195 634.745C554.886 642.138 547.81 647.17 540.072 650.829C532.39 654.461 524.04 656.74 510.252 658.504C480.382 659.23 464.262 648.691 438.223 636.373L365.742 602.076L365.734 602.072L301.129 572.214L301.126 572.212L299.721 571.582C292.497 568.387 282.378 564.604 273.375 559.621C268.595 556.975 264.207 554.028 260.821 550.716C257.437 547.406 255.104 543.779 254.334 539.769C253.505 535.45 254.979 531.014 257.651 526.982C260.319 522.956 264.113 519.442 267.695 517.03V517.029C280.452 508.439 293.518 499.998 306.51 491.586L306.511 491.587L377.164 446.015C395.739 434.09 414.388 422.28 433.107 410.583L433.109 410.582C455.094 396.781 464.871 387.913 491.304 385.052H491.311Z" fill="url(#paint7_radial_584_1994)" stroke="#79ABFF" stroke-width="2"></path>
<path d="M895.867 304.659C896.5 319.515 896.62 329.608 893.169 338.107C889.725 346.589 882.7 353.533 868.885 361.997C837.223 381.398 805.645 402.594 774.916 423.17C765.197 429.676 754.841 435.758 744.533 441.926C734.231 448.09 723.978 454.339 714.481 461.173C688.818 478.948 660.447 496.03 634.698 513.206C607.58 531.291 586.609 546.547 563.809 555.676C541.034 564.794 516.428 567.798 482.064 561.322C470.817 559.202 458.102 554.206 445.521 548.449C432.934 542.69 420.531 536.195 409.857 531.067L329.544 492.391C316.472 486.097 301.848 478.641 288.682 472.774C286.096 471.06 278.665 467.342 270.981 463.655C263.258 459.95 255.241 456.257 251.536 454.619C213.211 437.674 179.228 422.166 141.679 403.682C138.926 402.327 135.398 400.757 131.562 399.019C127.721 397.278 123.565 395.364 119.542 393.314C115.519 391.264 111.635 389.081 108.34 386.804C105.041 384.523 102.354 382.163 100.7 379.764L100.681 379.735L100.656 379.711L100.144 379.193C94.9308 373.742 92.1467 365.243 91.0508 356.285C89.9824 347.552 90.5266 338.439 91.9453 331.417C94.4722 338.173 97.1201 342.963 100.09 349.153L100.116 349.207L100.159 349.25C102.296 351.389 103.489 353.302 104.939 355.128C106.386 356.95 108.041 358.614 111.03 360.135C125.146 367.316 140.198 374.107 154.537 380.796V380.797L238.377 420.351V420.35L378.077 486.949V486.95C403.741 499.274 437.12 514.24 463.357 525.823L463.371 525.829L463.386 525.835C501.453 538.858 547.448 539.375 583.742 516.98C596.197 509.292 608.653 500.683 620.839 492.69L620.84 492.691L694.844 444.731L817.889 365.404L854.236 341.949C871.375 330.966 885.46 311.406 893.843 291.779L895.867 304.659Z" fill="url(#paint8_linear_584_1994)" stroke="#DDE7FC" stroke-width="0.707031"></path>
<path d="M110.737 301.947C86.7388 318.446 85.2374 344.946 117.737 362.947C150.237 380.947 437.737 514.947 437.737 514.947C499.737 542.946 547.737 538.446 579.737 520.447L874.237 328.947C899.237 312.946 900.237 279.946 874.237 267.947L540.737 109.947C513.737 96.4464 445.737 98.4465 419.737 114.447C419.737 114.447 134.735 285.447 110.737 301.947Z" fill="url(#paint9_linear_584_1994)" stroke="#DDE7FC" stroke-width="2"></path>
<path d="M491.372 172.41C515.54 169.613 534.826 180.837 555.717 190.871L611.791 217.83L695.871 258.199C698.846 259.633 702.143 261.143 705.572 262.716C709.003 264.29 712.567 265.926 716.081 267.613C723.112 270.989 729.924 274.559 735.045 278.222C743.692 284.409 746.471 291.639 745.204 298.52C743.971 305.218 738.887 311.678 731.409 316.595L730.678 317.066C716.437 326.052 702.742 335.113 688.953 343.994V343.995L610.946 394.368L610.944 394.369L566.685 423.286C555.407 430.658 548.274 435.73 540.484 439.414C532.714 443.088 524.284 445.38 510.438 447.15C480.356 447.89 464.07 437.252 438.082 424.958L365.602 390.66L365.599 390.659L300.994 360.801L300.992 360.8C293.791 357.507 282.824 353.514 273.197 348.186C268.392 345.526 263.948 342.546 260.505 339.178C257.062 335.811 254.636 332.072 253.834 327.891C252.961 323.345 254.524 318.736 257.248 314.625C259.97 310.517 263.829 306.944 267.47 304.493C280.233 295.898 293.305 287.455 306.296 279.043L376.95 233.473C395.528 221.546 414.178 209.733 432.9 198.035H432.901C454.84 184.263 464.757 175.29 491.37 172.41H491.372Z" fill="#0268FE" stroke="#DDE7FC" stroke-width="0.707031"></path>
<path d="M518.375 218.284C519.082 218.434 519.619 218.587 520.284 218.888C551.344 232.576 582.298 248.666 613.103 262.643C656.486 282.332 653.524 310.753 613.146 332.379C585.494 347.189 551.153 350.045 521.019 341.264C512.139 338.673 502.53 333.818 493.968 329.934L457.129 313.213C453.426 311.417 449.208 309.646 445.414 307.954L377.619 350.667L337.321 332.174C395.642 292.891 458.706 255.681 518.375 218.284Z" fill="#FBFCFE"></path>
<path d="M527.008 257.161C532.155 257.808 585.232 282.52 589.99 287.508C602.526 300.649 571.798 313.222 561.85 314.427C557.658 314.934 551.344 315.519 544.811 315.255C530.628 313.201 493.205 294.501 478.046 287.64C481.044 285.347 490.603 279.746 494.187 277.523L527.008 257.161Z" fill="#0268FE"></path>
</g>
<defs>
<filter id="filter0_d_584_1994" x="-9" y="439" width="1006.44" height="665.142" filterUnits="userSpaceOnUse" color-interpolation-filters="sRGB">
<feFlood flood-opacity="0" result="BackgroundImageFix"></feFlood>
<feColorMatrix in="SourceAlpha" type="matrix" values="0 0 0 0 0 0 0 0 0 0 0 0 0 0 0 0 0 0 127 0" result="hardAlpha"></feColorMatrix>
<feOffset dy="20"></feOffset>
<feGaussianBlur stdDeviation="50"></feGaussianBlur>
<feComposite in2="hardAlpha" operator="out"></feComposite>
<feColorMatrix type="matrix" values="0 0 0 0 0.733333 0 0 0 0 0.792157 0 0 0 0 0.921569 0 0 0 1 0"></feColorMatrix>
<feBlend mode="normal" in2="BackgroundImageFix" result="effect1_dropShadow_584_1994"></feBlend>
<feBlend mode="normal" in="SourceGraphic" in2="effect1_dropShadow_584_1994" result="shape"></feBlend>
</filter>
<linearGradient id="paint0_linear_584_1994" x1="91" y1="773.5" x2="887" y2="782" gradientUnits="userSpaceOnUse">
<stop stop-color="#C7D7F7"></stop>
<stop offset="0.390244" stop-color="#D9E4FA"></stop>
<stop offset="0.5" stop-color="#E3EAFB"></stop>
<stop offset="0.607946" stop-color="#D7E2FB"></stop>
<stop offset="1" stop-color="#C1D3F6"></stop>
</linearGradient>
<linearGradient id="paint1_linear_584_1994" x1="494" y1="412" x2="494" y2="973" gradientUnits="userSpaceOnUse">
<stop offset="0.0144231" stop-color="#C3D1F0"></stop>
<stop offset="0.254808" stop-color="#B1C3E9"></stop>
<stop offset="0.605769" stop-color="#FDFDFE"></stop>
</linearGradient>
<linearGradient id="paint2_linear_584_1994" x1="494.046" y1="520" x2="494.046" y2="953.948" gradientUnits="userSpaceOnUse">
<stop stop-color="#C7D7F7"></stop>
<stop offset="1" stop-color="#DDE6FB"></stop>
</linearGradient>
<radialGradient id="paint3_radial_584_1994" cx="0" cy="0" r="1" gradientUnits="userSpaceOnUse" gradientTransform="translate(500 742.5) rotate(89.8116) scale(124.041 221.457)">
<stop stop-color="#0045AA"></stop>
<stop offset="1" stop-color="#5A9DFE"></stop>
</radialGradient>
<linearGradient id="paint4_linear_584_1994" x1="90" y1="563.5" x2="896" y2="561.5" gradientUnits="userSpaceOnUse">
<stop stop-color="#C4D5F7"></stop>
<stop offset="0.352023" stop-color="#D2DFFA"></stop>
<stop offset="0.5" stop-color="#DDE7F9"></stop>
<stop offset="0.648734" stop-color="#CFDDFA"></stop>
<stop offset="1" stop-color="#BBD0F8"></stop>
</linearGradient>
<linearGradient id="paint5_linear_584_1994" x1="493.046" y1="313" x2="493.046" y2="746.948" gradientUnits="userSpaceOnUse">
<stop stop-color="#B3C3E9"></stop>
<stop offset="0.5" stop-color="#EEF2FC"></stop>
<stop offset="1" stop-color="#FCFDFE"></stop>
</linearGradient>
<linearGradient id="paint6_linear_584_1994" x1="493.046" y1="313" x2="493.046" y2="746.948" gradientUnits="userSpaceOnUse">
<stop stop-color="#C4D5F7"></stop>
<stop offset="1" stop-color="#DBE5F9"></stop>
</linearGradient>
<radialGradient id="paint7_radial_584_1994" cx="0" cy="0" r="1" gradientUnits="userSpaceOnUse" gradientTransform="translate(499.408 521.581) rotate(90) scale(137.96 246.305)">
<stop stop-color="#0268FE"></stop>
<stop offset="1" stop-color="#A9C9FC"></stop>
</radialGradient>
<linearGradient id="paint8_linear_584_1994" x1="90" y1="344" x2="886.5" y2="331.5" gradientUnits="userSpaceOnUse">
<stop stop-color="#97BFFC"></stop>
<stop offset="0.5" stop-color="#CADDFD"></stop>
<stop offset="1" stop-color="#88B4FC"></stop>
</linearGradient>
<linearGradient id="paint9_linear_584_1994" x1="493.182" y1="101" x2="493.182" y2="534.948" gradientUnits="userSpaceOnUse">
<stop stop-color="#F9FBFD"></stop>
<stop offset="1" stop-color="#F8F9FD"></stop>
</linearGradient>
<clipPath id="clip0_584_1994">
<rect width="988" height="1086" fill="white"></rect>
</clipPath>
</defs>
</svg>